<svg width="38" height="34" viewBox="0 0 38 34" fill="none" xmlns="http://www.w3.org/2000/svg">
<path fill-rule="evenodd" clip-rule="evenodd" d="M9.21975 6.40648V4.09027C9.21975 2.37507 10.4746 0.91797 12.1708 0.663536L14.5863 0.301214C17.2638 -0.100404 19.9861 -0.100405 22.6636 0.301214L25.0791 0.663536C26.7753 0.917969 28.0301 2.37507 28.0301 4.09027V6.40648L31.424 6.68043C34.0226 6.89019 36.1423 8.84675 36.5591 11.4203C37.4801 17.108 37.4801 22.9069 36.5591 28.5946C36.1423 31.1681 34.0226 33.1247 31.424 33.3344L27.7175 33.6336C21.6656 34.1221 15.5842 34.1221 9.53235 33.6336L5.82587 33.3344C3.22729 33.1247 1.10758 31.1681 0.690818 28.5946C-0.230273 22.9069 -0.230273 17.108 0.690818 11.4203C1.10758 8.84675 3.22729 6.89019 5.82587 6.68043L9.21975 6.40648ZM15.0269 3.23842C17.4122 2.88061 19.8377 2.88061 22.223 3.23842L24.6385 3.60074C24.8808 3.63709 25.0601 3.84525 25.0601 4.09027V6.19824C20.7735 5.95375 16.4764 5.95375 12.1898 6.19824V4.09027C12.1898 3.84524 12.3691 3.63709 12.6114 3.60074L15.0269 3.23842ZM9.77131 9.34168C15.6641 8.86602 21.5857 8.86602 27.4786 9.34168L31.185 9.64087C32.4209 9.74062 33.429 10.6711 33.6272 11.895C33.7506 12.6572 33.8565 13.4215 33.945 14.1873C24.2871 18.943 12.9628 18.943 3.30492 14.1873C3.39333 13.4215 3.49926 12.6572 3.62269 11.895C3.82089 10.6711 4.82899 9.74062 6.06483 9.64087L9.77131 9.34168ZM3.03982 17.3476C12.9388 21.8496 24.311 21.8496 34.2101 17.3476C34.3988 20.9436 34.2045 24.5548 33.6272 28.1198C33.429 29.3437 32.4209 30.2743 31.185 30.374L27.4786 30.6732C21.5857 31.1489 15.6641 31.1489 9.77131 30.6732L6.06483 30.374C4.82899 30.2743 3.82089 29.3437 3.62269 28.1198C3.04536 24.5548 2.85107 20.9437 3.03982 17.3476Z" fill="black"/>
</svg>
