<svg width="29" height="37" viewBox="0 0 29 37" fill="none" xmlns="http://www.w3.org/2000/svg">
<path d="M11.3865 26.1217C11.3865 24.5448 12.6648 23.2664 14.2418 23.2664C15.8187 23.2664 17.0971 24.5448 17.0971 26.1217C17.0971 27.6987 15.8187 28.977 14.2418 28.977C12.6648 28.977 11.3865 27.6987 11.3865 26.1217Z" fill="black"/>
<path fill-rule="evenodd" clip-rule="evenodd" d="M5.90743 15.8372L5.30698 10.4331C5.22999 9.7403 5.22999 9.04105 5.30698 8.34821L5.35031 7.95818C5.80999 3.82106 9.06237 0.547636 13.1964 0.0612755C13.8909 -0.0204252 14.5925 -0.0204252 15.287 0.0612756C19.4211 0.547636 22.6734 3.82106 23.1331 7.95818L23.1765 8.34821C23.2534 9.04105 23.2534 9.74029 23.1765 10.4331L22.576 15.8372L23.883 15.9415C25.944 16.1061 27.6269 17.6554 27.961 19.6958C28.6578 23.9514 28.6578 28.2921 27.961 32.5477C27.6269 34.5881 25.944 36.1374 23.883 36.3019L21.035 36.5293C16.5134 36.8902 11.9702 36.8902 7.44859 36.5293L4.60065 36.3019C2.53965 36.1374 0.856722 34.5881 0.522622 32.5477C-0.174207 28.2921 -0.174207 23.9514 0.522622 19.6958C0.856722 17.6554 2.53964 16.1061 4.60065 15.9415L5.90743 15.8372ZM13.5301 2.89702C14.0029 2.84139 14.4806 2.84139 14.9534 2.89702C17.768 3.22815 19.9823 5.45681 20.2953 8.2735L20.3386 8.66353C20.3923 9.1468 20.3923 9.63454 20.3386 10.1178L19.7273 15.6199C16.074 15.3846 12.4094 15.3847 8.75615 15.6199L8.14481 10.1178C8.09111 9.63455 8.09111 9.1468 8.14481 8.66353L8.18815 8.2735C8.50111 5.45681 10.7154 3.22815 13.5301 2.89702ZM20.8078 18.5604C16.4374 18.2115 12.0462 18.2115 7.67581 18.5604L4.82787 18.7878C4.07611 18.8478 3.46226 19.4129 3.3404 20.1572C2.6936 24.1072 2.6936 28.1362 3.3404 32.0863C3.46226 32.8305 4.07611 33.3957 4.82787 33.4557L7.67581 33.683C12.0462 34.0319 16.4374 34.0319 20.8078 33.683L23.6557 33.4557C24.4075 33.3957 25.0214 32.8306 25.1432 32.0863C25.79 28.1362 25.79 24.1072 25.1432 20.1572C25.0214 19.4129 24.4075 18.8478 23.6557 18.7878L20.8078 18.5604Z" fill="black"/>
</svg>
