<svg width="43" height="37" viewBox="0 0 43 37" fill="none" xmlns="http://www.w3.org/2000/svg">
<path fill-rule="evenodd" clip-rule="evenodd" d="M21.2988 18.799C19.9181 18.799 18.7988 19.9182 18.7988 21.299C18.7988 22.6797 19.9181 23.799 21.2988 23.799C22.6795 23.799 23.7988 22.6797 23.7988 21.299C23.7988 19.9182 22.6795 18.799 21.2988 18.799ZM15.7988 21.299C15.7988 18.2614 18.2613 15.799 21.2988 15.799C24.3364 15.799 26.7988 18.2614 26.7988 21.299C26.7988 24.3365 24.3364 26.799 21.2988 26.799C18.2613 26.799 15.7988 24.3365 15.7988 21.299Z" fill="black"/>
<path fill-rule="evenodd" clip-rule="evenodd" d="M21.2988 10.799C19.2221 10.799 17.1921 11.4148 15.4654 12.5685C13.7386 13.7223 12.3928 15.3622 11.5981 17.2808C10.8034 19.1994 10.5954 21.3106 11.0006 23.3474C11.4057 25.3842 12.4058 27.2551 13.8742 28.7236C14.46 29.3094 14.46 30.2591 13.8742 30.8449C13.2884 31.4307 12.3387 31.4307 11.7529 30.8449C9.86489 28.9569 8.57914 26.5514 8.05824 23.9327C7.53733 21.3139 7.80468 18.5995 8.82646 16.1327C9.84825 13.6659 11.5786 11.5575 13.7986 10.0741C16.0187 8.59071 18.6288 7.79895 21.2988 7.79895C23.9689 7.79895 26.579 8.59071 28.799 10.0741C31.0191 11.5575 32.7494 13.6659 33.7712 16.1327C34.793 18.5995 35.0603 21.3139 34.5394 23.9327C34.0185 26.5514 32.7328 28.9569 30.8448 30.8449C30.259 31.4307 29.3092 31.4307 28.7235 30.8449C28.1377 30.2591 28.1377 29.3094 28.7235 28.7236C30.1919 27.2551 31.1919 25.3842 31.5971 23.3474C32.0022 21.3106 31.7943 19.1994 30.9996 17.2808C30.2049 15.3622 28.859 13.7223 27.1323 12.5685C25.4056 11.4148 23.3755 10.799 21.2988 10.799Z" fill="black"/>
<path fill-rule="evenodd" clip-rule="evenodd" d="M21.299 3C17.6798 3 14.1419 4.07322 11.1326 6.08394C8.12337 8.09466 5.77794 10.9526 4.39293 14.2963C3.00793 17.64 2.64555 21.3193 3.35162 24.8689C4.05769 28.4186 5.8005 31.6792 8.35966 34.2383C8.94544 34.8241 8.94544 35.7738 8.35966 36.3596C7.77387 36.9454 6.82412 36.9454 6.23833 36.3596C3.25962 33.3809 1.23109 29.5858 0.409263 25.4542C-0.412561 21.3226 0.00922668 17.0401 1.6213 13.1482C3.23336 9.25633 5.96331 5.92989 9.46591 3.58953C12.9685 1.24916 17.0864 3.57628e-07 21.299 0C25.5115 -3.57628e-07 29.6295 1.24916 33.1321 3.58953C36.6347 5.92989 39.3646 9.25634 40.9767 13.1482C42.5887 17.0401 43.0105 21.3226 42.1887 25.4542C41.3669 29.5858 39.3384 33.3809 36.3596 36.3596C35.7739 36.9454 34.8241 36.9454 34.2383 36.3596C33.6525 35.7738 33.6525 34.8241 34.2383 34.2383C36.7975 31.6792 38.5403 28.4186 39.2464 24.8689C39.9524 21.3193 39.59 17.64 38.205 14.2963C36.82 10.9526 34.4746 8.09465 31.4654 6.08394C28.4561 4.07322 24.9182 3 21.299 3Z" fill="black"/>
</svg>
