<svg width="44" height="24" viewBox="0 0 44 24" fill="none" xmlns="http://www.w3.org/2000/svg">
<path d="M11.7674 7.67442C9.50693 7.67442 7.67442 9.50693 7.67442 11.7674C7.67442 14.028 9.50693 15.8605 11.7674 15.8605C14.028 15.8605 15.8605 14.028 15.8605 11.7674C15.8605 9.50693 14.028 7.67442 11.7674 7.67442Z" fill="black"/>
<path fill-rule="evenodd" clip-rule="evenodd" d="M11.7674 0C5.26846 0 0 5.26846 0 11.7674C0 18.2664 5.26846 23.5349 11.7674 23.5349C16.23 23.5349 20.1095 21.051 22.104 17.3953H28.6512V22C28.6512 22.8477 29.3384 23.5349 30.186 23.5349H37.3488C38.1965 23.5349 38.8837 22.8477 38.8837 22V17.3953H42.4651C43.3128 17.3953 44 16.7082 44 15.8605V9.72093C44 7.74298 42.3966 6.13953 40.4186 6.13953H22.104C20.1095 2.48387 16.23 0 11.7674 0ZM3.06977 11.7674C3.06977 6.96385 6.96385 3.06977 11.7674 3.06977C15.3317 3.06977 18.3985 5.21388 19.7421 8.28894C19.9863 8.84799 20.5385 9.2093 21.1486 9.2093H40.4186C40.7012 9.2093 40.9302 9.43836 40.9302 9.72093V14.3256H37.3488C36.5011 14.3256 35.814 15.0128 35.814 15.8605V20.4651H31.7209V15.8605C31.7209 15.0128 31.0337 14.3256 30.186 14.3256H21.1486C20.5385 14.3256 19.9863 14.6869 19.7421 15.2459C18.3985 18.321 15.3317 20.4651 11.7674 20.4651C6.96385 20.4651 3.06977 16.571 3.06977 11.7674Z" fill="black"/>
</svg>
