<svg width="106" height="106" viewBox="0 0 106 106" fill="none" xmlns="http://www.w3.org/2000/svg">
<rect width="106" height="106" rx="53" fill="white"/>
<rect x="3.5" y="3.5" width="99" height="99" rx="49.5" fill="white" stroke="#016FB9"/>
<path d="M57.5669 56.5457V61.1052H31.2054V57.5414L46.1418 43.1291C47.9586 41.3821 49.1815 39.8798 49.8104 38.622C50.4393 37.3293 50.7538 36.0364 50.7538 34.7437C50.7538 32.8221 50.0725 31.3372 48.7098 30.289C47.3821 29.206 45.4605 28.6644 42.9449 28.6644C38.892 28.6644 35.7649 29.9921 33.5638 32.6474L30 29.5553C31.4325 27.8083 33.3017 26.4457 35.6077 25.4674C37.9486 24.4892 40.5516 24 43.4166 24C47.2599 24 50.317 24.9258 52.5881 26.7777C54.8591 28.5944 55.9946 31.0751 55.9946 34.2197C55.9946 36.1763 55.5753 38.028 54.7368 39.775C53.8983 41.5219 52.3085 43.5135 49.9676 45.7495L38.7522 56.5457H57.5669ZM73.2484 24.4193V61.1052H68.06V28.9788H59.7795V24.4193H73.2484Z" fill="#016FB9"/>
<path d="M36.5356 71.0367V74.2075H35.2385V71.0105L31.5961 65.036H32.9981L35.9329 69.8707L38.8809 65.036H40.178L36.5356 71.0367ZM48.0098 73.0676V74.2075H41.3539V65.036H47.8263V66.1759H42.6641V68.9928H47.2629V70.1065H42.6641V73.0676H48.0098ZM55.9748 71.9146H51.1008L50.0919 74.2075H48.7424L52.8958 65.036H54.1929L58.3594 74.2075H56.9836L55.9748 71.9146ZM55.5162 70.8664L53.5378 66.3724L51.5594 70.8664H55.5162ZM65.8593 74.2075L63.8808 71.3905C63.6363 71.408 63.4442 71.4167 63.3043 71.4167H61.0377V74.2075H59.7275V65.036H63.3043C64.4923 65.036 65.4269 65.3198 66.1082 65.8876C66.7895 66.4554 67.1302 67.2371 67.1302 68.2329C67.1302 68.9404 66.9555 69.5431 66.6061 70.041C66.2567 70.5389 65.7588 70.9013 65.1124 71.1285L67.2874 74.2075H65.8593ZM63.265 70.303C64.0949 70.303 64.7282 70.124 65.1648 69.7658C65.6016 69.4077 65.82 68.8967 65.82 68.2329C65.82 67.5691 65.6016 67.0624 65.1648 66.713C64.7282 66.3549 64.0949 66.1759 63.265 66.1759H61.0377V70.303H63.265ZM71.9198 74.3123C71.2298 74.3123 70.5616 74.2075 69.9152 73.9978C69.2776 73.7795 68.7753 73.4999 68.4085 73.1593L68.8932 72.1373C69.2427 72.4518 69.6882 72.7094 70.2296 72.9103C70.7799 73.1025 71.3433 73.1986 71.9198 73.1986C72.6797 73.1986 73.2475 73.072 73.6231 72.8186C73.9988 72.5566 74.1865 72.2115 74.1865 71.7836C74.1865 71.4691 74.0817 71.2158 73.872 71.0236C73.6712 70.8227 73.4179 70.6699 73.1121 70.5651C72.8152 70.4602 72.3915 70.3423 71.8412 70.2113C71.1512 70.0454 70.5922 69.8793 70.1641 69.7134C69.7449 69.5475 69.3824 69.2942 69.0767 68.9535C68.7797 68.6042 68.6312 68.1368 68.6312 67.5516C68.6312 67.0624 68.7579 66.6213 69.0112 66.2283C69.2732 65.8352 69.6663 65.5207 70.1903 65.2849C70.7144 65.0491 71.3652 64.9312 72.1426 64.9312C72.6842 64.9312 73.2169 65.0011 73.741 65.1408C74.2651 65.2805 74.715 65.4814 75.0905 65.7435L74.6582 66.7916C74.2739 66.5471 73.8633 66.3637 73.4266 66.2414C72.9899 66.1103 72.5618 66.0448 72.1426 66.0448C71.4001 66.0448 70.8412 66.1803 70.4655 66.451C70.0986 66.7217 69.9152 67.0712 69.9152 67.4992C69.9152 67.8136 70.02 68.0713 70.2296 68.2722C70.4393 68.4643 70.697 68.6173 71.0027 68.7308C71.3171 68.8356 71.7408 68.9491 72.2736 69.0714C72.9637 69.2373 73.5183 69.4034 73.9375 69.5693C74.3568 69.7352 74.715 69.9886 75.0119 70.3292C75.3177 70.6699 75.4705 71.1285 75.4705 71.7049C75.4705 72.1853 75.3395 72.6265 75.0774 73.0283C74.8154 73.4213 74.418 73.7358 73.8851 73.9716C73.3524 74.1988 72.6973 74.3123 71.9198 74.3123Z" fill="#016FB9"/>
<path d="M34.8036 81.4003V81.9495H31.5967V77.5305H34.7152V78.0797H32.228V79.437H34.4438V79.9736H32.228V81.4003H34.8036ZM37.1136 82C36.7811 82 36.4592 81.9495 36.1477 81.8485C35.8405 81.7433 35.5985 81.6086 35.4218 81.4444L35.6553 80.952C35.8237 81.1036 36.0383 81.2277 36.2993 81.3245C36.5644 81.417 36.8358 81.4634 37.1136 81.4634C37.4798 81.4634 37.7533 81.4024 37.9343 81.2803C38.1152 81.1541 38.2057 80.9878 38.2057 80.7816C38.2057 80.6301 38.1552 80.508 38.0542 80.4155C37.9574 80.3186 37.8354 80.245 37.6881 80.1945C37.545 80.144 37.3409 80.0872 37.0757 80.0241C36.7433 79.9441 36.4739 79.8641 36.2677 79.7842C36.0657 79.7042 35.891 79.5822 35.7437 79.418C35.6006 79.2497 35.5291 79.0245 35.5291 78.7425C35.5291 78.5068 35.5901 78.2943 35.7122 78.105C35.8384 77.9156 36.0278 77.7641 36.2803 77.6504C36.5328 77.5368 36.8464 77.48 37.2209 77.48C37.4819 77.48 37.7386 77.5137 37.9911 77.581C38.2436 77.6483 38.4604 77.7451 38.6413 77.8714L38.433 78.3764C38.2478 78.2586 38.05 78.1702 37.8396 78.1113C37.6292 78.0481 37.4229 78.0166 37.2209 78.0166C36.8632 78.0166 36.5939 78.0818 36.4129 78.2123C36.2361 78.3427 36.1477 78.5111 36.1477 78.7173C36.1477 78.8688 36.1983 78.9929 36.2993 79.0898C36.4003 79.1823 36.5244 79.256 36.6717 79.3107C36.8232 79.3612 37.0273 79.4159 37.2841 79.4748C37.6165 79.5548 37.8838 79.6348 38.0858 79.7147C38.2878 79.7946 38.4604 79.9167 38.6034 80.0809C38.7507 80.245 38.8244 80.466 38.8244 80.7437C38.8244 80.9752 38.7613 81.1878 38.635 81.3813C38.5088 81.5707 38.3173 81.7222 38.0605 81.8358C37.8038 81.9453 37.4882 82 37.1136 82ZM40.5625 78.0797H39.0474V77.5305H42.7025V78.0797H41.1874V81.9495H40.5625V78.0797ZM45.9837 80.8447H43.6354L43.1493 81.9495H42.4991L44.5002 77.5305H45.1252L47.1327 81.9495H46.4698L45.9837 80.8447ZM45.7628 80.3397L44.8096 78.1744L43.8563 80.3397H45.7628ZM50.7652 79.6579C51.0219 79.7295 51.2239 79.8599 51.3712 80.0493C51.5186 80.2345 51.5922 80.4701 51.5922 80.7563C51.5922 81.1393 51.447 81.434 51.1566 81.6401C50.8704 81.8463 50.4517 81.9495 49.9003 81.9495H47.7918V77.5305H49.7741C50.2791 77.5305 50.6683 77.6315 50.9419 77.8335C51.2197 78.0355 51.3586 78.3154 51.3586 78.6731C51.3586 78.9045 51.3039 79.1045 51.1945 79.2728C51.0893 79.4411 50.9461 79.5695 50.7652 79.6579ZM48.4231 78.0418V79.4559H49.7172C50.0413 79.4559 50.2896 79.3969 50.4622 79.2791C50.6389 79.1571 50.7273 78.9803 50.7273 78.7489C50.7273 78.5174 50.6389 78.3427 50.4622 78.2249C50.2896 78.1028 50.0413 78.0418 49.7172 78.0418H48.4231ZM49.8751 81.4381C50.2328 81.4381 50.5022 81.3792 50.6831 81.2614C50.864 81.1436 50.9546 80.9584 50.9546 80.7058C50.9546 80.2134 50.5947 79.9672 49.8751 79.9672H48.4231V81.4381H49.8751ZM52.5696 77.5305H53.2009V81.4003H55.5934V81.9495H52.5696V77.5305ZM56.3179 77.5305H56.9491V81.9495H56.3179V77.5305ZM59.5599 82C59.2275 82 58.9055 81.9495 58.5941 81.8485C58.2869 81.7433 58.0448 81.6086 57.8681 81.4444L58.1017 80.952C58.2701 81.1036 58.4847 81.2277 58.7456 81.3245C59.0107 81.417 59.2822 81.4634 59.5599 81.4634C59.9261 81.4634 60.1997 81.4024 60.3806 81.2803C60.5616 81.1541 60.652 80.9878 60.652 80.7816C60.652 80.6301 60.6015 80.508 60.5005 80.4155C60.4038 80.3186 60.2817 80.245 60.1344 80.1945C59.9913 80.144 59.7872 80.0872 59.522 80.0241C59.1896 79.9441 58.9203 79.8641 58.714 79.7842C58.512 79.7042 58.3374 79.5822 58.19 79.418C58.047 79.2497 57.9754 79.0245 57.9754 78.7425C57.9754 78.5068 58.0365 78.2943 58.1585 78.105C58.2847 77.9156 58.4741 77.7641 58.7266 77.6504C58.9791 77.5368 59.2928 77.48 59.6672 77.48C59.9282 77.48 60.1849 77.5137 60.4374 77.581C60.6899 77.6483 60.9067 77.7451 61.0876 77.8714L60.8793 78.3764C60.6942 78.2586 60.4964 78.1702 60.2859 78.1113C60.0755 78.0481 59.8692 78.0166 59.6672 78.0166C59.3095 78.0166 59.0402 78.0818 58.8592 78.2123C58.6824 78.3427 58.5941 78.5111 58.5941 78.7173C58.5941 78.8688 58.6446 78.9929 58.7456 79.0898C58.8466 79.1823 58.9708 79.256 59.118 79.3107C59.2695 79.3612 59.4737 79.4159 59.7304 79.4748C60.0629 79.5548 60.3301 79.6348 60.5321 79.7147C60.7341 79.7946 60.9067 79.9167 61.0497 80.0809C61.1971 80.245 61.2707 80.466 61.2707 80.7437C61.2707 80.9752 61.2076 81.1878 61.0813 81.3813C60.9551 81.5707 60.7636 81.7222 60.5068 81.8358C60.2502 81.9453 59.9345 82 59.5599 82ZM65.9933 77.5305V81.9495H65.362V79.9799H62.8243V81.9495H62.193V77.5305H62.8243V79.4306H65.362V77.5305H65.9933ZM70.5229 81.4003V81.9495H67.316V77.5305H70.4346V78.0797H67.9473V79.437H70.1631V79.9736H67.9473V81.4003H70.5229ZM71.5451 77.5305H73.4074C73.8746 77.5305 74.2891 77.623 74.6511 77.8082C75.013 77.9935 75.2928 78.2543 75.4907 78.591C75.6927 78.9235 75.7937 79.3065 75.7937 79.74C75.7937 80.1734 75.6927 80.5585 75.4907 80.8952C75.2928 81.2277 75.013 81.4865 74.6511 81.6717C74.2891 81.8569 73.8746 81.9495 73.4074 81.9495H71.5451V77.5305ZM73.3696 81.4003C73.7272 81.4003 74.0409 81.3308 74.3102 81.1919C74.5838 81.053 74.7941 80.8595 74.9415 80.6111C75.0888 80.3586 75.1624 80.0682 75.1624 79.74C75.1624 79.4117 75.0888 79.1235 74.9415 78.8751C74.7941 78.6226 74.5838 78.4269 74.3102 78.288C74.0409 78.1491 73.7272 78.0797 73.3696 78.0797H72.1764V81.4003H73.3696Z" fill="#016FB9"/>
</svg>
