<svg width="41" height="38" viewBox="0 0 41 38" fill="none" xmlns="http://www.w3.org/2000/svg">
<path d="M10.812 21.692C12.4667 22.1787 13.732 23.1033 14.608 24.466C15.5813 25.7313 16.068 27.2887 16.068 29.138C16.068 31.474 15.338 33.372 13.878 34.832C12.418 36.292 10.6173 37.022 8.47601 37.022C6.14001 37.022 4.24201 36.292 2.78201 34.832C1.41934 33.2747 0.738007 31.3767 0.738007 29.138C0.738007 27.97 0.835341 26.8507 1.03001 25.78C1.32201 24.612 1.85734 22.9573 2.63601 20.816L8.76801 0.667999H15.776L10.812 21.692ZM35.632 21.692C37.2867 22.1787 38.552 23.1033 39.428 24.466C40.4013 25.7313 40.888 27.2887 40.888 29.138C40.888 31.474 40.158 33.372 38.698 34.832C37.238 36.292 35.4373 37.022 33.296 37.022C30.96 37.022 29.062 36.292 27.602 34.832C26.2393 33.2747 25.558 31.3767 25.558 29.138C25.558 27.97 25.6553 26.8507 25.85 25.78C26.142 24.612 26.6773 22.9573 27.456 20.816L33.588 0.667999H40.596L35.632 21.692Z" fill="#811E8B" fill-opacity="0.16"/>
</svg>
