<svg width="149" height="29" viewBox="0 0 149 29" fill="none" xmlns="http://www.w3.org/2000/svg">
<g clip-path="url(#clip0_1_156)">
<path d="M101.545 12.5944C101.643 12.5944 101.724 12.5605 101.788 12.4926C101.852 12.4247 101.884 12.3455 101.884 12.255V8.8381H105.143C105.237 8.8381 105.315 8.8103 105.378 8.75468L105.386 8.74759C105.45 8.68725 105.482 8.60805 105.482 8.50999C105.482 8.41948 105.45 8.34216 105.386 8.27805C105.322 8.21394 105.241 8.18188 105.143 8.18188H101.884V5.34203H105.652C105.746 5.34203 105.825 5.31239 105.887 5.25311L105.895 5.24586C105.959 5.18174 105.991 5.10443 105.991 5.01391C105.991 4.91586 105.959 4.83477 105.895 4.77066C105.831 4.70655 105.75 4.67449 105.652 4.67449H101.533C101.443 4.67449 101.364 4.70843 101.296 4.77632C101.228 4.8442 101.194 4.9234 101.194 5.01391V12.255C101.194 12.3455 101.226 12.4247 101.29 12.4926C101.354 12.5605 101.439 12.5944 101.545 12.5944ZM107.742 5.95299C107.893 5.95299 108.008 5.91716 108.087 5.84551C108.166 5.77385 108.206 5.67014 108.206 5.53437V5.42123C108.206 5.28546 108.166 5.18174 108.087 5.11009C108.008 5.03843 107.897 5.0026 107.753 5.0026C107.602 5.0026 107.484 5.03843 107.397 5.11009C107.31 5.18174 107.267 5.28546 107.267 5.42123V5.53437C107.267 5.67014 107.306 5.77385 107.386 5.84551C107.465 5.91716 107.584 5.95299 107.742 5.95299ZM107.742 12.5944C107.832 12.5944 107.912 12.5605 107.98 12.4926C108.047 12.4247 108.081 12.3455 108.081 12.255V7.05046C108.081 6.95995 108.049 6.88075 107.985 6.81287C107.921 6.74498 107.84 6.71104 107.742 6.71104C107.644 6.71104 107.563 6.74498 107.499 6.81287C107.435 6.88075 107.403 6.95995 107.403 7.05046V12.255C107.403 12.3455 107.435 12.4247 107.499 12.4926C107.563 12.5605 107.644 12.5944 107.742 12.5944ZM114.265 12.5944C114.355 12.5944 114.434 12.5605 114.502 12.4926C114.57 12.4247 114.604 12.3455 114.604 12.255V8.92862C114.604 8.51376 114.538 8.13474 114.406 7.79154C114.274 7.44835 114.059 7.17681 113.761 6.97692C113.463 6.77704 113.065 6.6771 112.567 6.6771C112.296 6.6771 112.026 6.72801 111.758 6.82984C111.491 6.93167 111.247 7.07121 111.029 7.24846C110.825 7.41349 110.656 7.59814 110.521 7.8024L110.52 7.80414V7.18623C110.52 7.09934 110.49 7.02288 110.431 6.95684L110.423 6.94864C110.359 6.88075 110.278 6.84681 110.18 6.84681C110.082 6.84681 110.001 6.88075 109.937 6.94864C109.873 7.01652 109.841 7.09572 109.841 7.18623V12.255C109.841 12.3455 109.871 12.4247 109.931 12.4926C109.992 12.5605 110.075 12.5944 110.18 12.5944C110.271 12.5944 110.35 12.5605 110.418 12.4926C110.486 12.4247 110.52 12.3455 110.52 12.255V8.96256C110.52 8.66085 110.61 8.38554 110.791 8.13662C110.972 7.88771 111.208 7.68783 111.498 7.53697C111.789 7.38612 112.096 7.31069 112.42 7.31069C112.782 7.31069 113.075 7.38612 113.297 7.53697C113.52 7.68783 113.68 7.88771 113.778 8.13662C113.876 8.38554 113.925 8.66085 113.925 8.96256V12.255C113.925 12.3455 113.955 12.4247 114.016 12.4926C114.076 12.5605 114.159 12.5944 114.265 12.5944ZM118.654 12.7075C118.979 12.7075 119.279 12.6491 119.554 12.5322C119.829 12.4153 120.069 12.2625 120.272 12.074C120.462 11.8984 120.614 11.7097 120.728 11.508L120.736 11.494V12.255C120.736 12.3417 120.764 12.4181 120.819 12.484L120.827 12.4926C120.887 12.5605 120.97 12.5944 121.076 12.5944C121.166 12.5944 121.245 12.5605 121.313 12.4926C121.381 12.4247 121.415 12.3455 121.415 12.255V7.16361C121.415 7.06555 121.383 6.98258 121.319 6.91469C121.255 6.84681 121.174 6.81287 121.076 6.81287C120.97 6.81287 120.887 6.84681 120.827 6.91469C120.766 6.98258 120.736 7.06555 120.736 7.16361V7.87366L120.733 7.86751C120.623 7.66939 120.484 7.48994 120.315 7.32916L120.295 7.31069C120.084 7.11458 119.837 6.95995 119.554 6.84681C119.271 6.73367 118.967 6.6771 118.643 6.6771C118.145 6.6771 117.697 6.80532 117.297 7.06178C116.897 7.31823 116.58 7.67086 116.346 8.11965C116.113 8.56845 115.996 9.08701 115.996 9.67535C115.996 10.2486 116.111 10.7653 116.341 11.2254C116.571 11.6855 116.888 12.0476 117.291 12.3116C117.695 12.5755 118.149 12.7075 118.654 12.7075ZM118.722 12.074C118.323 12.074 117.966 11.9702 117.653 11.7628C117.34 11.5554 117.097 11.2688 116.923 10.9029C116.75 10.5371 116.663 10.1279 116.663 9.67535C116.663 9.21524 116.752 8.80793 116.929 8.45342C117.106 8.09891 117.351 7.81983 117.664 7.61617C117.978 7.41252 118.33 7.31069 118.722 7.31069C119.122 7.31069 119.477 7.41629 119.786 7.62749C120.095 7.83868 120.338 8.12154 120.516 8.47605C120.693 8.83056 120.782 9.23033 120.782 9.67535C120.782 10.1279 120.693 10.5371 120.516 10.9029C120.338 11.2688 120.095 11.5554 119.786 11.7628C119.477 11.9702 119.122 12.074 118.722 12.074ZM127.615 12.5944C127.706 12.5944 127.785 12.5605 127.853 12.4926C127.921 12.4247 127.955 12.3455 127.955 12.255V8.92862C127.955 8.51376 127.889 8.13474 127.757 7.79154C127.625 7.44835 127.41 7.17681 127.112 6.97692C126.814 6.77704 126.416 6.6771 125.918 6.6771C125.647 6.6771 125.377 6.72801 125.109 6.82984C124.841 6.93167 124.598 7.07121 124.379 7.24846C124.176 7.41349 124.006 7.59814 123.871 7.8024L123.87 7.80414V7.18623C123.87 7.09934 123.841 7.02288 123.782 6.95684L123.774 6.94864C123.71 6.88075 123.629 6.84681 123.531 6.84681C123.433 6.84681 123.352 6.88075 123.288 6.94864C123.224 7.01652 123.191 7.09572 123.191 7.18623V12.255C123.191 12.3455 123.222 12.4247 123.282 12.4926C123.342 12.5605 123.425 12.5944 123.531 12.5944C123.621 12.5944 123.701 12.5605 123.768 12.4926C123.836 12.4247 123.87 12.3455 123.87 12.255V8.96256C123.87 8.66085 123.961 8.38554 124.142 8.13662C124.323 7.88771 124.559 7.68783 124.849 7.53697C125.139 7.38612 125.447 7.31069 125.771 7.31069C126.133 7.31069 126.425 7.38612 126.648 7.53697C126.87 7.68783 127.031 7.88771 127.129 8.13662C127.227 8.38554 127.276 8.66085 127.276 8.96256V12.255C127.276 12.3455 127.306 12.4247 127.366 12.4926C127.427 12.5605 127.51 12.5944 127.615 12.5944ZM132.175 12.7075C132.582 12.7075 132.94 12.6529 133.25 12.5435C133.559 12.4341 133.802 12.3059 133.98 12.1588C134.157 12.0117 134.245 11.8778 134.245 11.7572C134.245 11.6666 134.219 11.5931 134.166 11.5365C134.113 11.48 134.042 11.4517 133.951 11.4517C133.846 11.4517 133.761 11.4913 133.697 11.5705C133.633 11.6497 133.525 11.7308 133.374 11.8137C133.261 11.8816 133.12 11.942 132.95 11.9948C132.78 12.0476 132.544 12.074 132.243 12.074C131.805 12.074 131.419 11.9702 131.083 11.7628C130.747 11.5554 130.487 11.2706 130.302 10.9086C130.118 10.5465 130.025 10.1392 130.025 9.68666C130.025 9.24164 130.123 8.83999 130.319 8.48171C130.515 8.12342 130.783 7.83868 131.123 7.62749C131.462 7.41629 131.843 7.31069 132.265 7.31069C132.492 7.31069 132.697 7.32955 132.882 7.36726C133.067 7.40497 133.208 7.44646 133.306 7.49172C133.412 7.54452 133.491 7.60109 133.544 7.66143C133.597 7.72177 133.651 7.77457 133.708 7.81983C133.765 7.86508 133.842 7.88771 133.94 7.88771C134.023 7.88771 134.093 7.85188 134.149 7.78023C134.206 7.70857 134.234 7.63503 134.234 7.5596C134.234 7.4012 134.142 7.25412 133.957 7.11835C133.772 6.98258 133.529 6.87509 133.227 6.7959C132.925 6.7167 132.594 6.6771 132.231 6.6771C131.651 6.6771 131.145 6.81475 130.715 7.09006C130.285 7.36538 129.95 7.72931 129.708 8.18188C129.467 8.63445 129.346 9.13604 129.346 9.68666C129.346 10.2599 129.465 10.7747 129.703 11.231C129.94 11.6874 130.272 12.0476 130.698 12.3116C131.125 12.5755 131.617 12.7075 132.175 12.7075ZM135.858 5.95299C136.009 5.95299 136.124 5.91716 136.203 5.84551C136.282 5.77385 136.322 5.67014 136.322 5.53437V5.42123C136.322 5.28546 136.282 5.18174 136.203 5.11009C136.124 5.03843 136.012 5.0026 135.869 5.0026C135.718 5.0026 135.599 5.03843 135.513 5.11009C135.426 5.18174 135.382 5.28546 135.382 5.42123V5.53437C135.382 5.67014 135.422 5.77385 135.501 5.84551C135.58 5.91716 135.699 5.95299 135.858 5.95299ZM135.858 12.5944C135.948 12.5944 136.027 12.5605 136.095 12.4926C136.163 12.4247 136.197 12.3455 136.197 12.255V7.05046C136.197 6.95995 136.165 6.88075 136.101 6.81287C136.037 6.74498 135.956 6.71104 135.858 6.71104C135.76 6.71104 135.679 6.74498 135.614 6.81287C135.55 6.88075 135.518 6.95995 135.518 7.05046V12.255C135.518 12.3455 135.55 12.4247 135.614 12.4926C135.679 12.5605 135.76 12.5944 135.858 12.5944ZM140.231 12.7075C140.555 12.7075 140.855 12.6491 141.13 12.5322C141.405 12.4153 141.645 12.2625 141.848 12.074C142.038 11.8984 142.19 11.7097 142.305 11.508L142.312 11.494V12.255C142.312 12.3417 142.34 12.4181 142.396 12.484L142.403 12.4926C142.463 12.5605 142.546 12.5944 142.652 12.5944C142.742 12.5944 142.822 12.5605 142.889 12.4926C142.957 12.4247 142.991 12.3455 142.991 12.255V7.16361C142.991 7.06555 142.959 6.98258 142.895 6.91469C142.831 6.84681 142.75 6.81287 142.652 6.81287C142.546 6.81287 142.463 6.84681 142.403 6.91469C142.343 6.98258 142.312 7.06555 142.312 7.16361V7.87366L142.309 7.86751C142.2 7.66939 142.06 7.48994 141.891 7.32916L141.871 7.31069C141.66 7.11458 141.413 6.95995 141.13 6.84681C140.847 6.73367 140.544 6.6771 140.219 6.6771C139.721 6.6771 139.273 6.80532 138.873 7.06178C138.473 7.31823 138.156 7.67086 137.922 8.11965C137.689 8.56845 137.572 9.08701 137.572 9.67535C137.572 10.2486 137.687 10.7653 137.917 11.2254C138.147 11.6855 138.464 12.0476 138.867 12.3116C139.271 12.5755 139.725 12.7075 140.231 12.7075ZM140.298 12.074C139.899 12.074 139.542 11.9702 139.229 11.7628C138.916 11.5554 138.673 11.2688 138.5 10.9029C138.326 10.5371 138.239 10.1279 138.239 9.67535C138.239 9.21524 138.328 8.80793 138.505 8.45342C138.682 8.09891 138.928 7.81983 139.241 7.61617C139.554 7.41252 139.906 7.31069 140.298 7.31069C140.698 7.31069 141.053 7.41629 141.362 7.62749C141.671 7.83868 141.915 8.12154 142.092 8.47605C142.269 8.83056 142.358 9.23033 142.358 9.67535C142.358 10.1279 142.269 10.5371 142.092 10.9029C141.915 11.2688 141.671 11.5554 141.362 11.7628C141.053 11.9702 140.698 12.074 140.298 12.074ZM145.175 12.5944C145.265 12.5944 145.345 12.5605 145.412 12.4926C145.48 12.4247 145.514 12.3455 145.514 12.255V4.56135C145.514 4.47084 145.482 4.39164 145.418 4.32375C145.354 4.25587 145.273 4.22192 145.175 4.22192C145.084 4.22192 145.005 4.25587 144.937 4.32375C144.869 4.39164 144.835 4.47084 144.835 4.56135V12.255C144.835 12.3455 144.868 12.4247 144.932 12.4926C144.996 12.5605 145.077 12.5944 145.175 12.5944ZM104.747 24.379C105.192 24.379 105.62 24.313 106.031 24.181C106.442 24.049 106.813 23.8699 107.145 23.6436C107.198 23.6059 107.239 23.5606 107.27 23.5078C107.3 23.455 107.315 23.3984 107.315 23.3381V20.6114C107.315 20.5133 107.283 20.4322 107.219 20.3681C107.155 20.304 107.073 20.272 106.975 20.272H104.814C104.716 20.272 104.633 20.3021 104.566 20.3625C104.498 20.4228 104.464 20.5058 104.464 20.6114C104.464 20.7019 104.498 20.7811 104.566 20.849C104.633 20.9169 104.716 20.9508 104.814 20.9508H106.602V23.1936L106.59 23.2015C106.363 23.3419 106.101 23.4561 105.802 23.5441L105.77 23.5531C105.427 23.6511 105.086 23.7001 104.747 23.7001C104.098 23.7001 103.521 23.5531 103.015 23.2589C102.51 22.9647 102.114 22.5612 101.827 22.0483C101.541 21.5354 101.398 20.9546 101.398 20.3059C101.398 19.6572 101.541 19.0764 101.827 18.5635C102.114 18.0506 102.51 17.6471 103.015 17.3529C103.521 17.0587 104.098 16.9117 104.747 16.9117C105.086 16.9117 105.407 16.9531 105.708 17.0361C106.01 17.1191 106.289 17.2322 106.545 17.3755C106.576 17.3906 106.608 17.4038 106.642 17.4151C106.676 17.4264 106.711 17.4321 106.749 17.4321C106.825 17.4321 106.896 17.4 106.964 17.3359C107.032 17.2718 107.066 17.187 107.066 17.0814C107.066 17.0286 107.053 16.9777 107.026 16.9286C107 16.8796 106.96 16.8362 106.908 16.7985C106.613 16.6099 106.28 16.4685 105.906 16.3742C105.533 16.2799 105.146 16.2328 104.747 16.2328C104.166 16.2328 103.626 16.3346 103.129 16.5383C102.631 16.7419 102.199 17.0267 101.833 17.3925C101.467 17.7583 101.183 18.1902 100.979 18.688C100.775 19.1858 100.673 19.7251 100.673 20.3059C100.673 20.8867 100.775 21.426 100.979 21.9238C101.183 22.4216 101.467 22.8535 101.833 23.2193C102.199 23.5851 102.631 23.8699 103.129 24.0735C103.626 24.2772 104.166 24.379 104.747 24.379ZM111.201 24.3451C111.918 24.3451 112.487 24.1489 112.91 23.7567C113.332 23.3645 113.543 22.795 113.543 22.0483V18.8577C113.543 18.7672 113.511 18.688 113.447 18.6201C113.383 18.5522 113.302 18.5183 113.204 18.5183C113.098 18.5183 113.015 18.5522 112.955 18.6201C112.895 18.688 112.864 18.7672 112.864 18.8577V22.0483C112.864 22.5914 112.717 23.0043 112.423 23.2872C112.129 23.57 111.722 23.7115 111.201 23.7115C110.688 23.7115 110.287 23.57 109.996 23.2872C109.706 23.0043 109.561 22.5914 109.561 22.0483V18.8577C109.561 18.7672 109.529 18.688 109.465 18.6201C109.4 18.5522 109.319 18.5183 109.221 18.5183C109.123 18.5183 109.042 18.5522 108.978 18.6201C108.914 18.688 108.882 18.7672 108.882 18.8577V22.0483C108.882 22.795 109.091 23.3645 109.51 23.7567C109.928 24.1489 110.492 24.3451 111.201 24.3451ZM115.636 17.6244C115.787 17.6244 115.902 17.5886 115.981 17.517C116.061 17.4453 116.1 17.3416 116.1 17.2058V17.0927C116.1 16.9569 116.061 16.8532 115.981 16.7815C115.902 16.7099 115.791 16.6741 115.648 16.6741C115.497 16.6741 115.378 16.7099 115.291 16.7815C115.205 16.8532 115.161 16.9569 115.161 17.0927V17.2058C115.161 17.3416 115.201 17.4453 115.28 17.517C115.359 17.5886 115.478 17.6244 115.636 17.6244ZM115.636 24.2659C115.727 24.2659 115.806 24.2319 115.874 24.164C115.942 24.0961 115.976 24.0169 115.976 23.9264V18.7219C115.976 18.6314 115.944 18.5522 115.88 18.4843C115.816 18.4164 115.734 18.3825 115.636 18.3825C115.538 18.3825 115.457 18.4164 115.393 18.4843C115.329 18.5522 115.297 18.6314 115.297 18.7219V23.9264C115.297 24.0169 115.329 24.0961 115.393 24.164C115.457 24.2319 115.538 24.2659 115.636 24.2659ZM120.009 24.379C120.334 24.379 120.634 24.3187 120.909 24.198C121.184 24.0773 121.425 23.9189 121.633 23.7228C121.82 23.5456 121.969 23.3547 122.08 23.1498L122.091 23.1281L122.091 23.9264C122.091 24.0132 122.119 24.0895 122.174 24.1555L122.182 24.164C122.242 24.2319 122.325 24.2659 122.431 24.2659C122.521 24.2659 122.6 24.2319 122.668 24.164C122.736 24.0961 122.77 24.0169 122.77 23.9264V16.2328C122.77 16.1347 122.738 16.0537 122.674 15.9895C122.61 15.9254 122.529 15.8934 122.431 15.8934C122.325 15.8934 122.242 15.9273 122.182 15.9952C122.121 16.0631 122.091 16.1423 122.091 16.2328L122.091 19.5581L122.08 19.539C121.968 19.3408 121.825 19.1614 121.653 19.0006L121.633 18.9821C121.418 18.786 121.171 18.6314 120.892 18.5183C120.613 18.4051 120.315 18.3485 119.998 18.3485C119.5 18.3485 119.051 18.4787 118.652 18.7389C118.252 18.9991 117.935 19.3574 117.701 19.8137C117.467 20.2701 117.351 20.7849 117.351 21.3581C117.351 21.9389 117.467 22.4556 117.701 22.9082C117.935 23.3607 118.254 23.719 118.657 23.983C119.061 24.247 119.512 24.379 120.009 24.379ZM120.077 23.7454C119.685 23.7454 119.332 23.6417 119.019 23.4343C118.706 23.2268 118.461 22.9421 118.284 22.58C118.107 22.218 118.018 21.8107 118.018 21.3581C118.018 20.9056 118.107 20.5001 118.284 20.1418C118.461 19.7836 118.706 19.5007 119.019 19.2933C119.332 19.0859 119.685 18.9821 120.077 18.9821C120.477 18.9821 120.832 19.0859 121.141 19.2933C121.45 19.5007 121.693 19.7836 121.871 20.1418C122.048 20.5001 122.136 20.9056 122.136 21.3581C122.136 21.8182 122.048 22.2274 121.871 22.5857C121.693 22.944 121.45 23.2268 121.141 23.4343C120.832 23.6417 120.477 23.7454 120.077 23.7454ZM126.82 24.379C127.145 24.379 127.445 24.3205 127.72 24.2036C127.995 24.0867 128.235 23.934 128.438 23.7454C128.628 23.5698 128.78 23.3812 128.894 23.1795L128.902 23.1655L128.902 23.9264C128.902 24.0132 128.93 24.0895 128.985 24.1555L128.993 24.164C129.053 24.2319 129.136 24.2659 129.242 24.2659C129.332 24.2659 129.411 24.2319 129.479 24.164C129.547 24.0961 129.581 24.0169 129.581 23.9264V18.8351C129.581 18.737 129.549 18.654 129.485 18.5861C129.421 18.5183 129.34 18.4843 129.242 18.4843C129.136 18.4843 129.053 18.5183 128.993 18.5861C128.932 18.654 128.902 18.737 128.902 18.8351L128.902 19.5451L128.899 19.539C128.789 19.3408 128.65 19.1614 128.481 19.0006L128.461 18.9821C128.25 18.786 128.003 18.6314 127.72 18.5183C127.437 18.4051 127.133 18.3485 126.809 18.3485C126.311 18.3485 125.863 18.4768 125.463 18.7332C125.063 18.9897 124.746 19.3423 124.512 19.7911C124.279 20.2399 124.162 20.7585 124.162 21.3468C124.162 21.9201 124.277 22.4367 124.507 22.8968C124.737 23.357 125.054 23.719 125.457 23.983C125.861 24.247 126.315 24.379 126.82 24.379ZM126.888 23.7454C126.489 23.7454 126.132 23.6417 125.819 23.4343C125.506 23.2268 125.263 22.9402 125.089 22.5744C124.916 22.2086 124.829 21.7994 124.829 21.3468C124.829 20.8867 124.918 20.4794 125.095 20.1249C125.272 19.7704 125.517 19.4913 125.83 19.2876C126.144 19.084 126.496 18.9821 126.888 18.9821C127.288 18.9821 127.643 19.0877 127.952 19.2989C128.261 19.5101 128.504 19.793 128.682 20.1475C128.859 20.502 128.948 20.9018 128.948 21.3468C128.948 21.7994 128.859 22.2086 128.682 22.5744C128.504 22.9402 128.261 23.2268 127.952 23.4343C127.643 23.6417 127.288 23.7454 126.888 23.7454ZM135.781 24.2659C135.872 24.2659 135.951 24.2319 136.019 24.164C136.087 24.0961 136.121 24.0169 136.121 23.9264V20.6001C136.121 20.1852 136.055 19.8062 135.923 19.463C135.791 19.1198 135.576 18.8483 135.278 18.6484C134.98 18.4485 134.582 18.3485 134.084 18.3485C133.813 18.3485 133.543 18.3995 133.275 18.5013C133.007 18.6031 132.764 18.7427 132.545 18.9199C132.342 19.0849 132.172 19.2696 132.037 19.4739L132.036 19.4756V18.8577C132.036 18.7708 132.007 18.6943 131.948 18.6283L131.94 18.6201C131.876 18.5522 131.795 18.5183 131.697 18.5183C131.599 18.5183 131.518 18.5522 131.454 18.6201C131.389 18.688 131.357 18.7672 131.357 18.8577V23.9264C131.357 24.0169 131.388 24.0961 131.448 24.164C131.508 24.2319 131.591 24.2659 131.697 24.2659C131.787 24.2659 131.867 24.2319 131.934 24.164C132.002 24.0961 132.036 24.0169 132.036 23.9264V20.634C132.036 20.3323 132.127 20.057 132.308 19.8081C132.489 19.5592 132.725 19.3593 133.015 19.2084C133.305 19.0576 133.613 18.9821 133.937 18.9821C134.299 18.9821 134.591 19.0576 134.814 19.2084C135.036 19.3593 135.197 19.5592 135.295 19.8081C135.393 20.057 135.442 20.3323 135.442 20.634V23.9264C135.442 24.0169 135.472 24.0961 135.532 24.164C135.593 24.2319 135.676 24.2659 135.781 24.2659ZM140.341 24.379C140.748 24.379 141.106 24.3243 141.416 24.2149C141.725 24.1056 141.968 23.9773 142.146 23.8303C142.323 23.6832 142.411 23.5493 142.411 23.4286C142.411 23.3381 142.385 23.2646 142.332 23.208C142.279 23.1514 142.208 23.1231 142.117 23.1231C142.012 23.1231 141.927 23.1627 141.863 23.2419C141.799 23.3211 141.691 23.4022 141.54 23.4852C141.427 23.5531 141.286 23.6134 141.116 23.6662C140.946 23.719 140.71 23.7454 140.409 23.7454C139.971 23.7454 139.585 23.6417 139.249 23.4343C138.913 23.2268 138.653 22.9421 138.468 22.58C138.284 22.218 138.191 21.8107 138.191 21.3581C138.191 20.9131 138.289 20.5114 138.485 20.1532C138.681 19.7949 138.949 19.5101 139.289 19.2989C139.628 19.0877 140.009 18.9821 140.431 18.9821C140.658 18.9821 140.863 19.001 141.048 19.0387C141.233 19.0764 141.374 19.1179 141.472 19.1632C141.578 19.216 141.657 19.2725 141.71 19.3329C141.763 19.3932 141.817 19.446 141.874 19.4913C141.931 19.5365 142.008 19.5592 142.106 19.5592C142.189 19.5592 142.259 19.5233 142.315 19.4517C142.372 19.38 142.4 19.3065 142.4 19.2311C142.4 19.0727 142.308 18.9256 142.123 18.7898C141.938 18.654 141.695 18.5465 141.393 18.4673C141.091 18.3881 140.76 18.3485 140.397 18.3485C139.817 18.3485 139.311 18.4862 138.881 18.7615C138.451 19.0368 138.116 19.4008 137.874 19.8533C137.633 20.3059 137.512 20.8075 137.512 21.3581C137.512 21.9314 137.631 22.4462 137.869 22.9025C138.106 23.3588 138.438 23.719 138.864 23.983C139.291 24.247 139.783 24.379 140.341 24.379ZM146.275 24.379C146.705 24.379 147.101 24.2791 147.463 24.0792C147.825 23.8793 148.119 23.6436 148.346 23.372C148.421 23.3042 148.459 23.225 148.459 23.1344C148.459 23.059 148.431 22.9911 148.374 22.9308C148.317 22.8704 148.248 22.8403 148.165 22.8403C148.089 22.8403 148.01 22.8742 147.927 22.9421C147.821 23.0779 147.688 23.208 147.525 23.3324C147.363 23.4569 147.177 23.5568 146.965 23.6323C146.754 23.7077 146.52 23.7454 146.264 23.7454C145.781 23.7454 145.37 23.6398 145.031 23.4286C144.691 23.2174 144.431 22.9308 144.25 22.5687C144.069 22.2067 143.978 21.8031 143.978 21.3581L143.978 21.3694H148.255C148.342 21.3694 148.419 21.3399 148.485 21.2808L148.493 21.2733C148.561 21.2091 148.595 21.1318 148.595 21.0413C148.587 20.6038 148.508 20.2192 148.357 19.8873C148.206 19.5554 148.01 19.2744 147.769 19.0444C147.527 18.8143 147.25 18.6408 146.937 18.5239C146.624 18.407 146.302 18.3485 145.97 18.3485C145.517 18.3485 145.089 18.4711 144.686 18.7163C144.282 18.9614 143.954 19.3103 143.701 19.7628C143.449 20.2154 143.322 20.7622 143.322 21.4034C143.322 21.9993 143.447 22.5197 143.696 22.9647C143.944 23.4098 144.291 23.7567 144.736 24.0056C145.181 24.2545 145.694 24.379 146.275 24.379ZM147.893 20.7585H144.029L144.03 20.7515C144.059 20.5973 144.099 20.4539 144.151 20.3211L144.159 20.3002C144.28 20.0023 144.437 19.7572 144.629 19.5648C144.821 19.3725 145.036 19.2311 145.274 19.1405C145.511 19.05 145.743 19.0048 145.97 19.0048C146.271 19.0048 146.56 19.0689 146.835 19.1971C147.111 19.3253 147.346 19.5139 147.542 19.7628C147.738 20.0117 147.855 20.3134 147.893 20.668V20.7585Z" fill="white"/>
<path d="M49.9907 24.7572C51.1976 24.7572 52.263 24.4979 53.187 23.9794C54.111 23.4608 54.837 22.7442 55.365 21.8297C55.893 20.9151 56.157 19.8733 56.157 18.7041V5.52312C56.157 5.29684 56.0768 5.09884 55.9165 4.92913C55.7563 4.75942 55.5441 4.67456 55.2801 4.67456C55.035 4.67456 54.8228 4.75942 54.6437 4.92913C54.4646 5.09884 54.375 5.29684 54.375 5.52312V18.7041C54.375 19.5527 54.1911 20.307 53.8234 20.967C53.4557 21.627 52.9419 22.1408 52.2819 22.5085C51.6219 22.8762 50.8582 23.0601 49.9907 23.0601C49.1422 23.0601 48.3785 22.8149 47.6996 22.3247C47.0208 21.8344 46.5022 21.1932 46.1439 20.4013C46.0496 20.2693 45.9412 20.1561 45.8186 20.0618C45.6961 19.9675 45.5405 19.9204 45.3519 19.9204C45.1634 19.9204 44.9748 19.9911 44.7862 20.1325C44.5977 20.274 44.5034 20.4673 44.5034 20.7124C44.5034 20.8444 44.5505 20.9953 44.6448 21.165C45.1351 22.2398 45.8516 23.1072 46.7945 23.7672C47.7373 24.4272 48.8028 24.7572 49.9907 24.7572ZM68.0331 24.4744C69.9188 24.4744 71.4698 24.0265 72.6861 23.1308C73.9023 22.2351 74.8075 21.0377 75.4015 19.5386C75.9955 18.0394 76.2925 16.3847 76.2925 14.5745C76.2925 13.2733 76.1275 12.0288 75.7975 10.8408C75.4675 9.6528 74.963 8.59209 74.2842 7.65867C73.6053 6.72525 72.7426 5.99455 71.6961 5.46655C70.6495 4.93856 69.4285 4.67456 68.0331 4.67456H60.8203C60.5941 4.67456 60.3961 4.75942 60.2263 4.92913C60.0566 5.09884 59.9718 5.29684 59.9718 5.52312V23.6258C59.9718 23.8521 60.0566 24.0501 60.2263 24.2198C60.3961 24.3895 60.5941 24.4744 60.8203 24.4744H68.0331ZM61.7538 6.3434H67.7503C68.9383 6.3434 69.9612 6.56497 70.8192 7.00811C71.6772 7.45125 72.3749 8.05467 72.9124 8.81838C73.4498 9.58208 73.8458 10.4589 74.1003 11.4489C74.3549 12.4389 74.4822 13.4808 74.4822 14.5745C74.4822 16.083 74.2512 17.4643 73.7892 18.7183C73.3272 19.9723 72.6059 20.967 71.6254 21.7024C70.6448 22.4378 69.3531 22.8055 67.7503 22.8055H61.7538V6.3434ZM92.9559 24.4744C93.2199 24.4744 93.4321 24.3895 93.5923 24.2198C93.7526 24.0501 93.8422 23.8426 93.8611 23.5975V5.55141C93.8611 5.30627 93.7809 5.09884 93.6206 4.92913C93.4603 4.75942 93.2482 4.67456 92.9842 4.67456C92.7391 4.67456 92.5269 4.75942 92.3478 4.92913C92.1686 5.09884 92.0791 5.30627 92.0791 5.55141L92.0791 13.5279H80.5952L80.5952 5.55141C80.5952 5.31138 80.5093 5.1075 80.3376 4.93979L80.3265 4.92913C80.1473 4.75942 79.9446 4.67456 79.7183 4.67456C79.4543 4.67456 79.2375 4.75942 79.0678 4.92913C78.8981 5.09884 78.8132 5.30627 78.8132 5.55141V23.5975C78.8132 23.8426 78.8934 24.0501 79.0536 24.2198C79.2139 24.3895 79.4261 24.4744 79.6901 24.4744C79.9163 24.4744 80.1191 24.3895 80.2982 24.2198C80.4773 24.0501 80.5763 23.8426 80.5952 23.5975L80.5952 15.1685H92.0791L92.0791 23.5975C92.0791 23.8374 92.1604 24.0412 92.3229 24.2089L92.3336 24.2198C92.5034 24.3895 92.7108 24.4744 92.9559 24.4744Z" fill="white"/>
<mask id="mask0_1_156" style="mask-type:alpha" maskUnits="userSpaceOnUse" x="9" y="0" width="8" height="21">
<path d="M15.8845 18.46C16.3696 18.46 16.7628 18.8532 16.7628 19.3383V19.4872C16.7628 19.9723 16.3696 20.3655 15.8845 20.3655H15.7356C15.2505 20.3655 14.8573 19.9723 14.8573 19.4872V19.3383C14.8573 18.8532 15.2505 18.46 15.7356 18.46H15.8845ZM14.1278 17.1201C14.6129 17.1201 15.0062 17.5134 15.0062 17.9985C15.0062 18.4836 14.6129 18.8768 14.1278 18.8768C13.6427 18.8768 13.2495 18.4836 13.2495 17.9985C13.2495 17.5134 13.6427 17.1201 14.1278 17.1201ZM12.3712 15.6016C12.8562 15.6016 13.2495 15.9949 13.2495 16.48C13.2495 16.9651 12.8562 17.3583 12.3712 17.3583C11.8861 17.3583 11.4928 16.9651 11.4928 16.48C11.4928 15.9949 11.8861 15.6016 12.3712 15.6016ZM15.8845 15.3635C16.3696 15.3635 16.7628 15.7567 16.7628 16.2418C16.7628 16.7269 16.3696 17.1201 15.8845 17.1201C15.3994 17.1201 15.0062 16.7269 15.0062 16.2418C15.0062 15.7567 15.3994 15.3635 15.8845 15.3635ZM10.6145 14.2618C11.0174 14.2618 11.3439 14.5884 11.3439 14.9913C11.3439 15.3941 11.0174 15.7207 10.6145 15.7207C10.2116 15.7207 9.88502 15.3941 9.88502 14.9913C9.88502 14.5884 10.2116 14.2618 10.6145 14.2618ZM14.1278 13.845C14.6129 13.845 15.0062 14.2382 15.0062 14.7233C15.0062 15.2084 14.6129 15.6016 14.1278 15.6016C13.6427 15.6016 13.2495 15.2084 13.2495 14.7233C13.2495 14.2382 13.6427 13.845 14.1278 13.845ZM12.3712 12.5051C12.774 12.5051 13.1006 12.8317 13.1006 13.2346C13.1006 13.6375 12.774 13.9641 12.3712 13.9641C11.9683 13.9641 11.6417 13.6375 11.6417 13.2346C11.6417 12.8317 11.9683 12.5051 12.3712 12.5051ZM15.8845 12.0883C16.3696 12.0883 16.7628 12.4815 16.7628 12.9666C16.7628 13.4517 16.3696 13.845 15.8845 13.845C15.3994 13.845 15.0062 13.4517 15.0062 12.9666C15.0062 12.4815 15.3994 12.0883 15.8845 12.0883ZM10.6145 11.2248C10.9351 11.2248 11.1951 11.4848 11.1951 11.8054C11.1951 12.1261 10.9351 12.386 10.6145 12.386C10.2938 12.386 10.0339 12.1261 10.0339 11.8054C10.0339 11.4848 10.2938 11.2248 10.6145 11.2248ZM14.1278 10.7485C14.5307 10.7485 14.8573 11.0751 14.8573 11.4779C14.8573 11.8808 14.5307 12.2074 14.1278 12.2074C13.725 12.2074 13.3984 11.8808 13.3984 11.4779C13.3984 11.0751 13.725 10.7485 14.1278 10.7485ZM12.3712 9.46817C12.6918 9.46817 12.9518 9.72811 12.9518 10.0488C12.9518 10.3694 12.6918 10.6294 12.3712 10.6294C12.0505 10.6294 11.7906 10.3694 11.7906 10.0488C11.7906 9.72811 12.0505 9.46817 12.3712 9.46817ZM15.8845 8.99179C16.2874 8.99179 16.614 9.31838 16.614 9.72125C16.614 10.1241 16.2874 10.4507 15.8845 10.4507C15.4816 10.4507 15.155 10.1241 15.155 9.72125C15.155 9.31838 15.4816 8.99179 15.8845 8.99179ZM10.6145 8.24743C10.8858 8.24743 11.1058 8.46738 11.1058 8.73871C11.1058 9.01003 10.8858 9.22998 10.6145 9.22998C10.3432 9.22998 10.1232 9.01003 10.1232 8.73871C10.1232 8.46738 10.3432 8.24743 10.6145 8.24743ZM14.1278 7.7115C14.4485 7.7115 14.7084 7.97144 14.7084 8.29209C14.7084 8.61275 14.4485 8.87269 14.1278 8.87269C13.8072 8.87269 13.5472 8.61275 13.5472 8.29209C13.5472 7.97144 13.8072 7.7115 14.1278 7.7115ZM12.3712 6.49076C12.6425 6.49076 12.8624 6.71071 12.8624 6.98203C12.8624 7.25336 12.6425 7.47331 12.3712 7.47331C12.0998 7.47331 11.8799 7.25336 11.8799 6.98203C11.8799 6.71071 12.0998 6.49076 12.3712 6.49076ZM15.8845 5.95483C16.2052 5.95483 16.4651 6.21477 16.4651 6.53542C16.4651 6.85607 16.2052 7.11602 15.8845 7.11602C15.5638 7.11602 15.3039 6.85607 15.3039 6.53542C15.3039 6.21477 15.5638 5.95483 15.8845 5.95483ZM10.6145 5.27002C10.8365 5.27002 11.0164 5.44998 11.0164 5.67197C11.0164 5.89396 10.8365 6.07392 10.6145 6.07392C10.3925 6.07392 10.2125 5.89396 10.2125 5.67197C10.2125 5.44998 10.3925 5.27002 10.6145 5.27002ZM14.1278 4.73409C14.3992 4.73409 14.6191 4.95404 14.6191 5.22536C14.6191 5.49668 14.3992 5.71663 14.1278 5.71663C13.8565 5.71663 13.6366 5.49668 13.6366 5.22536C13.6366 4.95404 13.8565 4.73409 14.1278 4.73409ZM12.3712 3.51335C12.5931 3.51335 12.7731 3.69331 12.7731 3.9153C12.7731 4.13729 12.5931 4.31725 12.3712 4.31725C12.1492 4.31725 11.9692 4.13729 11.9692 3.9153C11.9692 3.69331 12.1492 3.51335 12.3712 3.51335ZM15.8845 2.97741C16.1558 2.97741 16.3758 3.19736 16.3758 3.46869C16.3758 3.74001 16.1558 3.95996 15.8845 3.95996C15.6132 3.95996 15.3932 3.74001 15.3932 3.46869C15.3932 3.19736 15.6132 2.97741 15.8845 2.97741ZM14.1278 1.75667C14.3498 1.75667 14.5298 1.93663 14.5298 2.15862C14.5298 2.38062 14.3498 2.56058 14.1278 2.56058C13.9058 2.56058 13.7259 2.38062 13.7259 2.15862C13.7259 1.93663 13.9058 1.75667 14.1278 1.75667ZM15.8845 0C16.1065 0 16.2865 0.179959 16.2865 0.401951C16.2865 0.623942 16.1065 0.803901 15.8845 0.803901C15.6625 0.803901 15.4826 0.623942 15.4826 0.401951C15.4826 0.179959 15.6625 0 15.8845 0Z" fill="white"/>
</mask>
<g mask="url(#mask0_1_156)">
<path d="M15.8845 18.46C16.3696 18.46 16.7628 18.8532 16.7628 19.3383V19.4872C16.7628 19.9723 16.3696 20.3655 15.8845 20.3655H15.7356C15.2505 20.3655 14.8573 19.9723 14.8573 19.4872V19.3383C14.8573 18.8532 15.2505 18.46 15.7356 18.46H15.8845ZM14.1278 17.1201C14.6129 17.1201 15.0062 17.5134 15.0062 17.9985C15.0062 18.4836 14.6129 18.8768 14.1278 18.8768C13.6427 18.8768 13.2495 18.4836 13.2495 17.9985C13.2495 17.5134 13.6427 17.1201 14.1278 17.1201ZM12.3712 15.6016C12.8562 15.6016 13.2495 15.9949 13.2495 16.48C13.2495 16.9651 12.8562 17.3583 12.3712 17.3583C11.8861 17.3583 11.4928 16.9651 11.4928 16.48C11.4928 15.9949 11.8861 15.6016 12.3712 15.6016ZM15.8845 15.3635C16.3696 15.3635 16.7628 15.7567 16.7628 16.2418C16.7628 16.7269 16.3696 17.1201 15.8845 17.1201C15.3994 17.1201 15.0062 16.7269 15.0062 16.2418C15.0062 15.7567 15.3994 15.3635 15.8845 15.3635ZM10.6145 14.2618C11.0174 14.2618 11.3439 14.5884 11.3439 14.9913C11.3439 15.3941 11.0174 15.7207 10.6145 15.7207C10.2116 15.7207 9.88502 15.3941 9.88502 14.9913C9.88502 14.5884 10.2116 14.2618 10.6145 14.2618ZM14.1278 13.845C14.6129 13.845 15.0062 14.2382 15.0062 14.7233C15.0062 15.2084 14.6129 15.6016 14.1278 15.6016C13.6427 15.6016 13.2495 15.2084 13.2495 14.7233C13.2495 14.2382 13.6427 13.845 14.1278 13.845ZM12.3712 12.5051C12.774 12.5051 13.1006 12.8317 13.1006 13.2346C13.1006 13.6375 12.774 13.9641 12.3712 13.9641C11.9683 13.9641 11.6417 13.6375 11.6417 13.2346C11.6417 12.8317 11.9683 12.5051 12.3712 12.5051ZM15.8845 12.0883C16.3696 12.0883 16.7628 12.4815 16.7628 12.9666C16.7628 13.4517 16.3696 13.845 15.8845 13.845C15.3994 13.845 15.0062 13.4517 15.0062 12.9666C15.0062 12.4815 15.3994 12.0883 15.8845 12.0883ZM10.6145 11.2248C10.9351 11.2248 11.1951 11.4848 11.1951 11.8054C11.1951 12.1261 10.9351 12.386 10.6145 12.386C10.2938 12.386 10.0339 12.1261 10.0339 11.8054C10.0339 11.4848 10.2938 11.2248 10.6145 11.2248ZM14.1278 10.7485C14.5307 10.7485 14.8573 11.0751 14.8573 11.4779C14.8573 11.8808 14.5307 12.2074 14.1278 12.2074C13.725 12.2074 13.3984 11.8808 13.3984 11.4779C13.3984 11.0751 13.725 10.7485 14.1278 10.7485ZM12.3712 9.46817C12.6918 9.46817 12.9518 9.72811 12.9518 10.0488C12.9518 10.3694 12.6918 10.6294 12.3712 10.6294C12.0505 10.6294 11.7906 10.3694 11.7906 10.0488C11.7906 9.72811 12.0505 9.46817 12.3712 9.46817ZM15.8845 8.99179C16.2874 8.99179 16.614 9.31838 16.614 9.72125C16.614 10.1241 16.2874 10.4507 15.8845 10.4507C15.4816 10.4507 15.155 10.1241 15.155 9.72125C15.155 9.31838 15.4816 8.99179 15.8845 8.99179ZM10.6145 8.24743C10.8858 8.24743 11.1058 8.46738 11.1058 8.73871C11.1058 9.01003 10.8858 9.22998 10.6145 9.22998C10.3432 9.22998 10.1232 9.01003 10.1232 8.73871C10.1232 8.46738 10.3432 8.24743 10.6145 8.24743ZM14.1278 7.7115C14.4485 7.7115 14.7084 7.97144 14.7084 8.29209C14.7084 8.61275 14.4485 8.87269 14.1278 8.87269C13.8072 8.87269 13.5472 8.61275 13.5472 8.29209C13.5472 7.97144 13.8072 7.7115 14.1278 7.7115ZM12.3712 6.49076C12.6425 6.49076 12.8624 6.71071 12.8624 6.98203C12.8624 7.25336 12.6425 7.47331 12.3712 7.47331C12.0998 7.47331 11.8799 7.25336 11.8799 6.98203C11.8799 6.71071 12.0998 6.49076 12.3712 6.49076ZM15.8845 5.95483C16.2052 5.95483 16.4651 6.21477 16.4651 6.53542C16.4651 6.85607 16.2052 7.11602 15.8845 7.11602C15.5638 7.11602 15.3039 6.85607 15.3039 6.53542C15.3039 6.21477 15.5638 5.95483 15.8845 5.95483ZM10.6145 5.27002C10.8365 5.27002 11.0164 5.44998 11.0164 5.67197C11.0164 5.89396 10.8365 6.07392 10.6145 6.07392C10.3925 6.07392 10.2125 5.89396 10.2125 5.67197C10.2125 5.44998 10.3925 5.27002 10.6145 5.27002ZM14.1278 4.73409C14.3992 4.73409 14.6191 4.95404 14.6191 5.22536C14.6191 5.49668 14.3992 5.71663 14.1278 5.71663C13.8565 5.71663 13.6366 5.49668 13.6366 5.22536C13.6366 4.95404 13.8565 4.73409 14.1278 4.73409ZM12.3712 3.51335C12.5931 3.51335 12.7731 3.69331 12.7731 3.9153C12.7731 4.13729 12.5931 4.31725 12.3712 4.31725C12.1492 4.31725 11.9692 4.13729 11.9692 3.9153C11.9692 3.69331 12.1492 3.51335 12.3712 3.51335ZM15.8845 2.97741C16.1558 2.97741 16.3758 3.19736 16.3758 3.46869C16.3758 3.74001 16.1558 3.95996 15.8845 3.95996C15.6132 3.95996 15.3932 3.74001 15.3932 3.46869C15.3932 3.19736 15.6132 2.97741 15.8845 2.97741ZM14.1278 1.75667C14.3498 1.75667 14.5298 1.93663 14.5298 2.15862C14.5298 2.38062 14.3498 2.56058 14.1278 2.56058C13.9058 2.56058 13.7259 2.38062 13.7259 2.15862C13.7259 1.93663 13.9058 1.75667 14.1278 1.75667ZM15.8845 0C16.1065 0 16.2865 0.179959 16.2865 0.401951C16.2865 0.623942 16.1065 0.803901 15.8845 0.803901C15.6625 0.803901 15.4826 0.623942 15.4826 0.401951C15.4826 0.179959 15.6625 0 15.8845 0Z" fill="url(#paint0_linear_1_156)"/>
<g filter="url(#filter0_f_1_156)">
<path fill-rule="evenodd" clip-rule="evenodd" d="M9.88501 7.50305L16.614 21.6458L17.537 24.6827H7.23512L9.88501 7.50305Z" fill="url(#paint1_linear_1_156)"/>
</g>
</g>
<path fill-rule="evenodd" clip-rule="evenodd" d="M10.4507 26.9158C11.0263 26.9158 11.4928 27.3823 11.4928 27.9579C11.4928 28.5334 11.0263 29 10.4507 29C9.87519 29 9.40862 28.5334 9.40862 27.9579C9.40862 27.3823 9.87519 26.9158 10.4507 26.9158ZM8.75359 25.5164C9.2798 25.5164 9.70637 25.943 9.70637 26.4692C9.70637 26.9954 9.2798 27.4219 8.75359 27.4219C8.22739 27.4219 7.80082 26.9954 7.80082 26.4692C7.80082 25.943 8.22739 25.5164 8.75359 25.5164ZM12.2074 25.1591C12.7829 25.1591 13.2495 25.6257 13.2495 26.2012C13.2495 26.7767 12.7829 27.2433 12.2074 27.2433C11.6319 27.2433 11.1653 26.7767 11.1653 26.2012C11.1653 25.6257 11.6319 25.1591 12.2074 25.1591ZM7.1309 24.1468C7.616 24.1468 8.00924 24.54 8.00924 25.0251C8.00924 25.5102 7.616 25.9034 7.1309 25.9034C6.64581 25.9034 6.25257 25.5102 6.25257 25.0251C6.25257 24.54 6.64581 24.1468 7.1309 24.1468ZM10.54 23.7299C11.0662 23.7299 11.4928 24.1565 11.4928 24.6827C11.4928 25.2089 11.0662 25.6355 10.54 25.6355C10.0138 25.6355 9.58727 25.2089 9.58727 24.6827C9.58727 24.1565 10.0138 23.7299 10.54 23.7299ZM13.9641 23.4024C14.5396 23.4024 15.0062 23.869 15.0062 24.4445C15.0062 25.02 14.5396 25.4866 13.9641 25.4866C13.3885 25.4866 12.922 25.02 12.922 24.4445C12.922 23.869 13.3885 23.4024 13.9641 23.4024ZM5.43378 22.5985C5.91887 22.5985 6.31212 22.9918 6.31212 23.4769C6.31212 23.9619 5.91887 24.3552 5.43378 24.3552C4.94869 24.3552 4.55544 23.9619 4.55544 23.4769C4.55544 22.9918 4.94869 22.5985 5.43378 22.5985ZM8.91735 22.3603C9.40244 22.3603 9.79569 22.7536 9.79569 23.2387C9.79569 23.7238 9.40244 24.117 8.91735 24.117C8.43226 24.117 8.03901 23.7238 8.03901 23.2387C8.03901 22.7536 8.43226 22.3603 8.91735 22.3603ZM12.2967 21.9733C12.8229 21.9733 13.2495 22.3998 13.2495 22.926C13.2495 23.4522 12.8229 23.8788 12.2967 23.8788C11.7705 23.8788 11.3439 23.4522 11.3439 22.926C11.3439 22.3998 11.7705 21.9733 12.2967 21.9733ZM15.7207 21.6457C16.2963 21.6457 16.7628 22.1123 16.7628 22.6878C16.7628 23.2634 16.2963 23.7299 15.7207 23.7299C15.1452 23.7299 14.6786 23.2634 14.6786 22.6878C14.6786 22.1123 15.1452 21.6457 15.7207 21.6457ZM7.22023 20.8121C7.70532 20.8121 8.09856 21.2053 8.09856 21.6904C8.09856 22.1755 7.70532 22.5687 7.22023 22.5687C6.73513 22.5687 6.34189 22.1755 6.34189 21.6904C6.34189 21.2053 6.73513 20.8121 7.22023 20.8121ZM3.70688 21.1098C4.10975 21.1098 4.43635 21.4364 4.43635 21.8393C4.43635 22.2421 4.10975 22.5687 3.70688 22.5687C3.30401 22.5687 2.97741 22.2421 2.97741 21.8393C2.97741 21.4364 3.30401 21.1098 3.70688 21.1098ZM10.6145 20.6334C11.0996 20.6334 11.4928 21.0267 11.4928 21.5118C11.4928 21.9969 11.0996 22.3901 10.6145 22.3901C10.1294 22.3901 9.73614 21.9969 9.73614 21.5118C9.73614 21.0267 10.1294 20.6334 10.6145 20.6334ZM14.0534 20.2166C14.5796 20.2166 15.0062 20.6432 15.0062 21.1694C15.0062 21.6956 14.5796 22.1221 14.0534 22.1221C13.5272 22.1221 13.1006 21.6956 13.1006 21.1694C13.1006 20.6432 13.5272 20.2166 14.0534 20.2166ZM8.91735 19.0852C9.40244 19.0852 9.79569 19.4784 9.79569 19.9635C9.79569 20.4486 9.40244 20.8418 8.91735 20.8418C8.43226 20.8418 8.03901 20.4486 8.03901 19.9635C8.03901 19.4784 8.43226 19.0852 8.91735 19.0852ZM2.0693 19.6509C2.38996 19.6509 2.6499 19.9108 2.6499 20.2315C2.6499 20.5521 2.38996 20.8121 2.0693 20.8121C1.74865 20.8121 1.48871 20.5521 1.48871 20.2315C1.48871 19.9108 1.74865 19.6509 2.0693 19.6509ZM5.49333 19.3234C5.8962 19.3234 6.22279 19.65 6.22279 20.0528C6.22279 20.4557 5.8962 20.7823 5.49333 20.7823C5.09045 20.7823 4.76386 20.4557 4.76386 20.0528C4.76386 19.65 5.09045 19.3234 5.49333 19.3234ZM12.3712 18.8767C12.8562 18.8767 13.2495 19.27 13.2495 19.7551C13.2495 20.2402 12.8562 20.6334 12.3712 20.6334C11.8861 20.6334 11.4928 20.2402 11.4928 19.7551C11.4928 19.27 11.8861 18.8767 12.3712 18.8767ZM0.491273 18.1622C0.762596 18.1622 0.982546 18.3821 0.982546 18.6534C0.982546 18.9248 0.762596 19.1447 0.491273 19.1447C0.21995 19.1447 0 18.9248 0 18.6534C0 18.3821 0.21995 18.1622 0.491273 18.1622ZM10.6145 17.3583C11.0996 17.3583 11.4928 17.7515 11.4928 18.2366C11.4928 18.7217 11.0996 19.1149 10.6145 19.1149C10.1294 19.1149 9.73614 18.7217 9.73614 18.2366C9.73614 17.7515 10.1294 17.3583 10.6145 17.3583ZM7.19045 17.5965C7.59333 17.5965 7.91992 17.9231 7.91992 18.3259C7.91992 18.7288 7.59333 19.0554 7.19045 19.0554C6.78758 19.0554 6.46099 18.7288 6.46099 18.3259C6.46099 17.9231 6.78758 17.5965 7.19045 17.5965ZM3.85575 17.8644C4.1764 17.8644 4.43635 18.1244 4.43635 18.445C4.43635 18.7657 4.1764 19.0256 3.85575 19.0256C3.5351 19.0256 3.27515 18.7657 3.27515 18.445C3.27515 18.1244 3.5351 17.8644 3.85575 17.8644ZM8.88758 15.9887C9.29045 15.9887 9.61704 16.3152 9.61704 16.7181C9.61704 17.121 9.29045 17.4476 8.88758 17.4476C8.4847 17.4476 8.15811 17.121 8.15811 16.7181C8.15811 16.3152 8.4847 15.9887 8.88758 15.9887ZM2.27772 16.3757C2.54904 16.3757 2.76899 16.5957 2.76899 16.867C2.76899 17.1383 2.54904 17.3583 2.27772 17.3583C2.0064 17.3583 1.78645 17.1383 1.78645 16.867C1.78645 16.5957 2.0064 16.3757 2.27772 16.3757ZM5.55288 16.1375C5.87353 16.1375 6.13347 16.3975 6.13347 16.7181C6.13347 17.0388 5.87353 17.2987 5.55288 17.2987C5.23222 17.2987 4.97228 17.0388 4.97228 16.7181C4.97228 16.3975 5.23222 16.1375 5.55288 16.1375ZM7.25 14.5297C7.57065 14.5297 7.8306 14.7897 7.8306 15.1103C7.8306 15.431 7.57065 15.6909 7.25 15.6909C6.92935 15.6909 6.6694 15.431 6.6694 15.1103C6.6694 14.7897 6.92935 14.5297 7.25 14.5297ZM3.97485 14.6488C4.24617 14.6488 4.46612 14.8688 4.46612 15.1401C4.46612 15.4114 4.24617 15.6314 3.97485 15.6314C3.70352 15.6314 3.48357 15.4114 3.48357 15.1401C3.48357 14.8688 3.70352 14.6488 3.97485 14.6488ZM5.67197 13.041C5.94329 13.041 6.16324 13.261 6.16324 13.5323C6.16324 13.8036 5.94329 14.0236 5.67197 14.0236C5.40065 14.0236 5.1807 13.8036 5.1807 13.5323C5.1807 13.261 5.40065 13.041 5.67197 13.041Z" fill="url(#paint2_linear_1_156)"/>
<path fill-rule="evenodd" clip-rule="evenodd" d="M24.2659 2.08419C23.6904 2.08419 23.2238 1.61763 23.2238 1.0421C23.2238 0.466562 23.6904 0 24.2659 0C24.8414 0 25.308 0.466562 25.308 1.0421C25.308 1.61763 24.8414 2.08419 24.2659 2.08419ZM22.5092 3.84086C21.9337 3.84086 21.4671 3.3743 21.4671 2.79877C21.4671 2.22323 21.9337 1.75667 22.5092 1.75667C23.0848 1.75667 23.5513 2.22323 23.5513 2.79877C23.5513 3.3743 23.0848 3.84086 22.5092 3.84086ZM24.1766 5.27002C23.6504 5.27002 23.2238 4.84345 23.2238 4.31725C23.2238 3.79105 23.6504 3.36448 24.1766 3.36448C24.7028 3.36448 25.1294 3.79105 25.1294 4.31725C25.1294 4.84345 24.7028 5.27002 24.1766 5.27002ZM20.7526 5.59754C20.177 5.59754 19.7105 5.13097 19.7105 4.55544C19.7105 3.97991 20.177 3.51335 20.7526 3.51335C21.3281 3.51335 21.7947 3.97991 21.7947 4.55544C21.7947 5.13097 21.3281 5.59754 20.7526 5.59754ZM22.4199 7.02669C21.8937 7.02669 21.4671 6.60012 21.4671 6.07392C21.4671 5.54772 21.8937 5.12115 22.4199 5.12115C22.9461 5.12115 23.3727 5.54772 23.3727 6.07392C23.3727 6.60012 22.9461 7.02669 22.4199 7.02669ZM18.9959 7.35421C18.4204 7.35421 17.9538 6.88765 17.9538 6.31211C17.9538 5.73658 18.4204 5.27002 18.9959 5.27002C19.5714 5.27002 20.038 5.73658 20.038 6.31211C20.038 6.88765 19.5714 7.35421 18.9959 7.35421ZM24.1022 8.36653C23.6171 8.36653 23.2238 7.97329 23.2238 7.48819C23.2238 7.0031 23.6171 6.60986 24.1022 6.60986C24.5872 6.60986 24.9805 7.0031 24.9805 7.48819C24.9805 7.97329 24.5872 8.36653 24.1022 8.36653ZM20.6632 8.78337C20.137 8.78337 19.7105 8.3568 19.7105 7.8306C19.7105 7.30439 20.137 6.87782 20.6632 6.87782C21.1894 6.87782 21.616 7.30439 21.616 7.8306C21.616 8.3568 21.1894 8.78337 20.6632 8.78337ZM22.3455 10.1232C21.8604 10.1232 21.4671 9.72996 21.4671 9.24487C21.4671 8.75978 21.8604 8.36653 22.3455 8.36653C22.8306 8.36653 23.2238 8.75978 23.2238 9.24487C23.2238 9.72996 22.8306 10.1232 22.3455 10.1232ZM18.8321 10.54C18.347 10.54 17.9538 10.1468 17.9538 9.66171V9.51283C17.9538 9.02774 18.347 8.6345 18.8321 8.6345H18.981C19.4661 8.6345 19.8593 9.02774 19.8593 9.51283V9.66171C19.8593 10.1468 19.4661 10.54 18.981 10.54H18.8321ZM24.1022 11.6417C23.6171 11.6417 23.2238 11.2484 23.2238 10.7633C23.2238 10.2783 23.6171 9.88501 24.1022 9.88501C24.5872 9.88501 24.9805 10.2783 24.9805 10.7633C24.9805 11.2484 24.5872 11.6417 24.1022 11.6417ZM20.5888 11.8799C20.1037 11.8799 19.7105 11.4866 19.7105 11.0015C19.7105 10.5164 20.1037 10.1232 20.5888 10.1232C21.0739 10.1232 21.4671 10.5164 21.4671 11.0015C21.4671 11.4866 21.0739 11.8799 20.5888 11.8799ZM22.3455 13.3984C21.8604 13.3984 21.4671 13.0051 21.4671 12.52C21.4671 12.0349 21.8604 11.6417 22.3455 11.6417C22.8306 11.6417 23.2238 12.0349 23.2238 12.52C23.2238 13.0051 22.8306 13.3984 22.3455 13.3984ZM18.8321 13.6365C18.347 13.6365 17.9538 13.2433 17.9538 12.7582C17.9538 12.2731 18.347 11.8799 18.8321 11.8799C19.3172 11.8799 19.7105 12.2731 19.7105 12.7582C19.7105 13.2433 19.3172 13.6365 18.8321 13.6365ZM24.1022 14.7382C23.6993 14.7382 23.3727 14.4116 23.3727 14.0087C23.3727 13.6059 23.6993 13.2793 24.1022 13.2793C24.505 13.2793 24.8316 13.6059 24.8316 14.0087C24.8316 14.4116 24.505 14.7382 24.1022 14.7382ZM20.5888 15.155C20.1037 15.155 19.7105 14.7618 19.7105 14.2767C19.7105 13.7916 20.1037 13.3984 20.5888 13.3984C21.0739 13.3984 21.4671 13.7916 21.4671 14.2767C21.4671 14.7618 21.0739 15.155 20.5888 15.155ZM22.3455 16.4949C21.9426 16.4949 21.616 16.1683 21.616 15.7654C21.616 15.3625 21.9426 15.0359 22.3455 15.0359C22.7484 15.0359 23.0749 15.3625 23.0749 15.7654C23.0749 16.1683 22.7484 16.4949 22.3455 16.4949ZM18.8321 16.9117C18.347 16.9117 17.9538 16.5185 17.9538 16.0334C17.9538 15.5483 18.347 15.155 18.8321 15.155C19.3172 15.155 19.7105 15.5483 19.7105 16.0334C19.7105 16.5185 19.3172 16.9117 18.8321 16.9117ZM24.1022 17.7752C23.7815 17.7752 23.5216 17.5152 23.5216 17.1946C23.5216 16.8739 23.7815 16.614 24.1022 16.614C24.4228 16.614 24.6827 16.8739 24.6827 17.1946C24.6827 17.5152 24.4228 17.7752 24.1022 17.7752ZM20.5888 18.2515C20.1859 18.2515 19.8593 17.9249 19.8593 17.5221C19.8593 17.1192 20.1859 16.7926 20.5888 16.7926C20.9917 16.7926 21.3183 17.1192 21.3183 17.5221C21.3183 17.9249 20.9917 18.2515 20.5888 18.2515ZM22.3455 19.5318C22.0248 19.5318 21.7649 19.2719 21.7649 18.9512C21.7649 18.6306 22.0248 18.3706 22.3455 18.3706C22.6661 18.3706 22.9261 18.6306 22.9261 18.9512C22.9261 19.2719 22.6661 19.5318 22.3455 19.5318ZM18.8321 20.0082C18.4293 20.0082 18.1027 19.6816 18.1027 19.2787C18.1027 18.8759 18.4293 18.5493 18.8321 18.5493C19.235 18.5493 19.5616 18.8759 19.5616 19.2787C19.5616 19.6816 19.235 20.0082 18.8321 20.0082ZM24.1022 20.7526C23.8308 20.7526 23.6109 20.5326 23.6109 20.2613C23.6109 19.99 23.8308 19.77 24.1022 19.77C24.3735 19.77 24.5934 19.99 24.5934 20.2613C24.5934 20.5326 24.3735 20.7526 24.1022 20.7526ZM20.5888 21.2885C20.2681 21.2885 20.0082 21.0286 20.0082 20.7079C20.0082 20.3873 20.2681 20.1273 20.5888 20.1273C20.9095 20.1273 21.1694 20.3873 21.1694 20.7079C21.1694 21.0286 20.9095 21.2885 20.5888 21.2885ZM22.3455 22.5092C22.0742 22.5092 21.8542 22.2893 21.8542 22.018C21.8542 21.7466 22.0742 21.5267 22.3455 21.5267C22.6168 21.5267 22.8368 21.7466 22.8368 22.018C22.8368 22.2893 22.6168 22.5092 22.3455 22.5092ZM18.8321 23.0452C18.5115 23.0452 18.2515 22.7852 18.2515 22.4646C18.2515 22.1439 18.5115 21.884 18.8321 21.884C19.1528 21.884 19.4127 22.1439 19.4127 22.4646C19.4127 22.7852 19.1528 23.0452 18.8321 23.0452ZM24.1022 23.73C23.8802 23.73 23.7002 23.55 23.7002 23.328C23.7002 23.106 23.8802 22.9261 24.1022 22.9261C24.3241 22.9261 24.5041 23.106 24.5041 23.328C24.5041 23.55 24.3241 23.73 24.1022 23.73ZM20.5888 24.2659C20.3175 24.2659 20.0975 24.046 20.0975 23.7746C20.0975 23.5033 20.3175 23.2834 20.5888 23.2834C20.8601 23.2834 21.0801 23.5033 21.0801 23.7746C21.0801 24.046 20.8601 24.2659 20.5888 24.2659ZM22.3455 25.4867C22.1235 25.4867 21.9435 25.3067 21.9435 25.0847C21.9435 24.8627 22.1235 24.6828 22.3455 24.6828C22.5675 24.6828 22.7474 24.8627 22.7474 25.0847C22.7474 25.3067 22.5675 25.4867 22.3455 25.4867ZM18.8321 26.0226C18.5608 26.0226 18.3409 25.8026 18.3409 25.5313C18.3409 25.26 18.5608 25.04 18.8321 25.04C19.1035 25.04 19.3234 25.26 19.3234 25.5313C19.3234 25.8026 19.1035 26.0226 18.8321 26.0226ZM20.5888 27.2433C20.3668 27.2433 20.1869 27.0634 20.1869 26.8414C20.1869 26.6194 20.3668 26.4394 20.5888 26.4394C20.8108 26.4394 20.9908 26.6194 20.9908 26.8414C20.9908 27.0634 20.8108 27.2433 20.5888 27.2433ZM18.8321 29C18.6101 29 18.4302 28.82 18.4302 28.598C18.4302 28.3761 18.6101 28.1961 18.8321 28.1961C19.0541 28.1961 19.2341 28.3761 19.2341 28.598C19.2341 28.82 19.0541 29 18.8321 29Z" fill="url(#paint3_linear_1_156)"/>
<mask id="mask1_1_156" style="mask-type:alpha" maskUnits="userSpaceOnUse" x="24" y="1" width="11" height="15">
<path d="M25.963 3.48363C25.4368 3.48363 25.0103 3.05706 25.0103 2.53086C25.0103 2.00466 25.4368 1.57809 25.963 1.57809C26.4892 1.57809 26.9158 2.00466 26.9158 2.53086C26.9158 3.05706 26.4892 3.48363 25.963 3.48363ZM27.5857 4.85324C27.1006 4.85324 26.7074 4.45999 26.7074 3.9749C26.7074 3.48981 27.1006 3.09657 27.5857 3.09657C28.0708 3.09657 28.4641 3.48981 28.4641 3.9749C28.4641 4.45999 28.0708 4.85324 27.5857 4.85324ZM29.2829 6.40149C28.7978 6.40149 28.4045 6.00825 28.4045 5.52316C28.4045 5.03806 28.7978 4.64482 29.2829 4.64482C29.7679 4.64482 30.1612 5.03806 30.1612 5.52316C30.1612 6.00825 29.7679 6.40149 29.2829 6.40149ZM25.7993 6.63969C25.3142 6.63969 24.9209 6.24644 24.9209 5.76135C24.9209 5.27626 25.3142 4.88301 25.7993 4.88301C26.2844 4.88301 26.6776 5.27626 26.6776 5.76135C26.6776 6.24644 26.2844 6.63969 25.7993 6.63969ZM27.4964 8.18794C27.0113 8.18794 26.6181 7.7947 26.6181 7.3096C26.6181 6.82451 27.0113 6.43127 27.4964 6.43127C27.9815 6.43127 28.3747 6.82451 28.3747 7.3096C28.3747 7.7947 27.9815 8.18794 27.4964 8.18794ZM31.0098 7.8902C30.6069 7.8902 30.2803 7.56361 30.2803 7.16073C30.2803 6.75786 30.6069 6.43127 31.0098 6.43127C31.4126 6.43127 31.7392 6.75786 31.7392 7.16073C31.7392 7.56361 31.4126 7.8902 31.0098 7.8902ZM25.7993 9.91484C25.3142 9.91484 24.9209 9.52159 24.9209 9.0365C24.9209 8.55141 25.3142 8.15817 25.7993 8.15817C26.2844 8.15817 26.6776 8.55141 26.6776 9.0365C26.6776 9.52159 26.2844 9.91484 25.7993 9.91484ZM32.6473 9.34913C32.3267 9.34913 32.0667 9.08919 32.0667 8.76854C32.0667 8.44788 32.3267 8.18794 32.6473 8.18794C32.968 8.18794 33.2279 8.44788 33.2279 8.76854C33.2279 9.08919 32.968 9.34913 32.6473 9.34913ZM29.2233 9.67665C28.8204 9.67665 28.4938 9.35005 28.4938 8.94718C28.4938 8.54431 28.8204 8.21771 29.2233 8.21771C29.6262 8.21771 29.9528 8.54431 29.9528 8.94718C29.9528 9.35005 29.6262 9.67665 29.2233 9.67665ZM34.2254 10.8378C33.954 10.8378 33.7341 10.6179 33.7341 10.3466C33.7341 10.0752 33.954 9.85529 34.2254 9.85529C34.4967 9.85529 34.7166 10.0752 34.7166 10.3466C34.7166 10.6179 34.4967 10.8378 34.2254 10.8378ZM27.5262 11.4035C27.1233 11.4035 26.7967 11.077 26.7967 10.6741C26.7967 10.2712 27.1233 9.94461 27.5262 9.94461C27.929 9.94461 28.2556 10.2712 28.2556 10.6741C28.2556 11.077 27.929 11.4035 27.5262 11.4035ZM30.8609 11.1356C30.5402 11.1356 30.2803 10.8756 30.2803 10.555C30.2803 10.2343 30.5402 9.97439 30.8609 9.97439C31.1815 9.97439 31.4415 10.2343 31.4415 10.555C31.4415 10.8756 31.1815 11.1356 30.8609 11.1356ZM25.829 13.0113C25.4262 13.0113 25.0996 12.6848 25.0996 12.2819C25.0996 11.879 25.4262 11.5524 25.829 11.5524C26.2319 11.5524 26.5585 11.879 26.5585 12.2819C26.5585 12.6848 26.2319 13.0113 25.829 13.0113ZM32.4389 12.6243C32.1676 12.6243 31.9476 12.4043 31.9476 12.133C31.9476 11.8617 32.1676 11.6417 32.4389 11.6417C32.7102 11.6417 32.9302 11.8617 32.9302 12.133C32.9302 12.4043 32.7102 12.6243 32.4389 12.6243ZM29.1638 12.8625C28.8431 12.8625 28.5832 12.6025 28.5832 12.2819C28.5832 11.9612 28.8431 11.7013 29.1638 11.7013C29.4844 11.7013 29.7444 11.9612 29.7444 12.2819C29.7444 12.6025 29.4844 12.8625 29.1638 12.8625ZM27.4666 14.4703C27.146 14.4703 26.886 14.2103 26.886 13.8897C26.886 13.569 27.146 13.3091 27.4666 13.3091C27.7873 13.3091 28.0472 13.569 28.0472 13.8897C28.0472 14.2103 27.7873 14.4703 27.4666 14.4703ZM30.7418 14.3512C30.4705 14.3512 30.2505 14.1312 30.2505 13.8599C30.2505 13.5886 30.4705 13.3686 30.7418 13.3686C31.0131 13.3686 31.2331 13.5886 31.2331 13.8599C31.2331 14.1312 31.0131 14.3512 30.7418 14.3512ZM29.0447 15.959C28.7733 15.959 28.5534 15.739 28.5534 15.4677C28.5534 15.1964 28.7733 14.9764 29.0447 14.9764C29.316 14.9764 29.5359 15.1964 29.5359 15.4677C29.5359 15.739 29.316 15.959 29.0447 15.959Z" fill="white"/>
</mask>
<g mask="url(#mask1_1_156)">
<path d="M25.963 3.48363C25.4368 3.48363 25.0103 3.05706 25.0103 2.53086C25.0103 2.00466 25.4368 1.57809 25.963 1.57809C26.4892 1.57809 26.9158 2.00466 26.9158 2.53086C26.9158 3.05706 26.4892 3.48363 25.963 3.48363ZM27.5857 4.85324C27.1006 4.85324 26.7074 4.45999 26.7074 3.9749C26.7074 3.48981 27.1006 3.09657 27.5857 3.09657C28.0708 3.09657 28.4641 3.48981 28.4641 3.9749C28.4641 4.45999 28.0708 4.85324 27.5857 4.85324ZM29.2829 6.40149C28.7978 6.40149 28.4045 6.00825 28.4045 5.52316C28.4045 5.03806 28.7978 4.64482 29.2829 4.64482C29.7679 4.64482 30.1612 5.03806 30.1612 5.52316C30.1612 6.00825 29.7679 6.40149 29.2829 6.40149ZM25.7993 6.63969C25.3142 6.63969 24.9209 6.24644 24.9209 5.76135C24.9209 5.27626 25.3142 4.88301 25.7993 4.88301C26.2844 4.88301 26.6776 5.27626 26.6776 5.76135C26.6776 6.24644 26.2844 6.63969 25.7993 6.63969ZM27.4964 8.18794C27.0113 8.18794 26.6181 7.7947 26.6181 7.3096C26.6181 6.82451 27.0113 6.43127 27.4964 6.43127C27.9815 6.43127 28.3747 6.82451 28.3747 7.3096C28.3747 7.7947 27.9815 8.18794 27.4964 8.18794ZM31.0098 7.8902C30.6069 7.8902 30.2803 7.56361 30.2803 7.16073C30.2803 6.75786 30.6069 6.43127 31.0098 6.43127C31.4126 6.43127 31.7392 6.75786 31.7392 7.16073C31.7392 7.56361 31.4126 7.8902 31.0098 7.8902ZM25.7993 9.91484C25.3142 9.91484 24.9209 9.52159 24.9209 9.0365C24.9209 8.55141 25.3142 8.15817 25.7993 8.15817C26.2844 8.15817 26.6776 8.55141 26.6776 9.0365C26.6776 9.52159 26.2844 9.91484 25.7993 9.91484ZM32.6473 9.34913C32.3267 9.34913 32.0667 9.08919 32.0667 8.76854C32.0667 8.44788 32.3267 8.18794 32.6473 8.18794C32.968 8.18794 33.2279 8.44788 33.2279 8.76854C33.2279 9.08919 32.968 9.34913 32.6473 9.34913ZM29.2233 9.67665C28.8204 9.67665 28.4938 9.35005 28.4938 8.94718C28.4938 8.54431 28.8204 8.21771 29.2233 8.21771C29.6262 8.21771 29.9528 8.54431 29.9528 8.94718C29.9528 9.35005 29.6262 9.67665 29.2233 9.67665ZM34.2254 10.8378C33.954 10.8378 33.7341 10.6179 33.7341 10.3466C33.7341 10.0752 33.954 9.85529 34.2254 9.85529C34.4967 9.85529 34.7166 10.0752 34.7166 10.3466C34.7166 10.6179 34.4967 10.8378 34.2254 10.8378ZM27.5262 11.4035C27.1233 11.4035 26.7967 11.077 26.7967 10.6741C26.7967 10.2712 27.1233 9.94461 27.5262 9.94461C27.929 9.94461 28.2556 10.2712 28.2556 10.6741C28.2556 11.077 27.929 11.4035 27.5262 11.4035ZM30.8609 11.1356C30.5402 11.1356 30.2803 10.8756 30.2803 10.555C30.2803 10.2343 30.5402 9.97439 30.8609 9.97439C31.1815 9.97439 31.4415 10.2343 31.4415 10.555C31.4415 10.8756 31.1815 11.1356 30.8609 11.1356ZM25.829 13.0113C25.4262 13.0113 25.0996 12.6848 25.0996 12.2819C25.0996 11.879 25.4262 11.5524 25.829 11.5524C26.2319 11.5524 26.5585 11.879 26.5585 12.2819C26.5585 12.6848 26.2319 13.0113 25.829 13.0113ZM32.4389 12.6243C32.1676 12.6243 31.9476 12.4043 31.9476 12.133C31.9476 11.8617 32.1676 11.6417 32.4389 11.6417C32.7102 11.6417 32.9302 11.8617 32.9302 12.133C32.9302 12.4043 32.7102 12.6243 32.4389 12.6243ZM29.1638 12.8625C28.8431 12.8625 28.5832 12.6025 28.5832 12.2819C28.5832 11.9612 28.8431 11.7013 29.1638 11.7013C29.4844 11.7013 29.7444 11.9612 29.7444 12.2819C29.7444 12.6025 29.4844 12.8625 29.1638 12.8625ZM27.4666 14.4703C27.146 14.4703 26.886 14.2103 26.886 13.8897C26.886 13.569 27.146 13.3091 27.4666 13.3091C27.7873 13.3091 28.0472 13.569 28.0472 13.8897C28.0472 14.2103 27.7873 14.4703 27.4666 14.4703ZM30.7418 14.3512C30.4705 14.3512 30.2505 14.1312 30.2505 13.8599C30.2505 13.5886 30.4705 13.3686 30.7418 13.3686C31.0131 13.3686 31.2331 13.5886 31.2331 13.8599C31.2331 14.1312 31.0131 14.3512 30.7418 14.3512ZM29.0447 15.959C28.7733 15.959 28.5534 15.739 28.5534 15.4677C28.5534 15.1964 28.7733 14.9764 29.0447 14.9764C29.316 14.9764 29.5359 15.1964 29.5359 15.4677C29.5359 15.739 29.316 15.959 29.0447 15.959Z" fill="url(#paint4_linear_1_156)"/>
<g filter="url(#filter1_f_1_156)">
<path fill-rule="evenodd" clip-rule="evenodd" d="M24.5934 0.803955L25.8141 1.04215L29.2382 17.1202L22.5092 10.1828L24.5934 0.803955Z" fill="url(#paint5_linear_1_156)"/>
</g>
</g>
</g>
<defs>
<filter id="filter0_f_1_156" x="-0.764885" y="-0.496948" width="26.3018" height="33.1797" filterUnits="userSpaceOnUse" color-interpolation-filters="sRGB">
<feFlood flood-opacity="0" result="BackgroundImageFix"/>
<feBlend mode="normal" in="SourceGraphic" in2="BackgroundImageFix" result="shape"/>
<feGaussianBlur stdDeviation="4" result="effect1_foregroundBlur_1_156"/>
</filter>
<filter id="filter1_f_1_156" x="14.5092" y="-7.19604" width="22.7289" height="32.3162" filterUnits="userSpaceOnUse" color-interpolation-filters="sRGB">
<feFlood flood-opacity="0" result="BackgroundImageFix"/>
<feBlend mode="normal" in="SourceGraphic" in2="BackgroundImageFix" result="shape"/>
<feGaussianBlur stdDeviation="4" result="effect1_foregroundBlur_1_156"/>
</filter>
<linearGradient id="paint0_linear_1_156" x1="13.3239" y1="4.69968" x2="13.3239" y2="19.7927" gradientUnits="userSpaceOnUse">
<stop stop-color="#B427C2"/>
<stop offset="1" stop-color="#AB25B8"/>
</linearGradient>
<linearGradient id="paint1_linear_1_156" x1="12.386" y1="7.50305" x2="12.386" y2="24.6827" gradientUnits="userSpaceOnUse">
<stop stop-color="#47004E" stop-opacity="0.146361"/>
<stop offset="1" stop-color="#47004E"/>
</linearGradient>
<linearGradient id="paint2_linear_1_156" x1="10.4937" y1="18.1245" x2="11.221" y2="28.2583" gradientUnits="userSpaceOnUse">
<stop stop-color="#D72EE8"/>
<stop offset="1" stop-color="#811E8B"/>
</linearGradient>
<linearGradient id="paint3_linear_1_156" x1="21.6309" y1="1.609" x2="21.6309" y2="29" gradientUnits="userSpaceOnUse">
<stop stop-color="#C8FF2C"/>
<stop offset="1" stop-color="#00B34B"/>
</linearGradient>
<linearGradient id="paint4_linear_1_156" x1="29.2461" y1="11.6477" x2="28.778" y2="1.58975" gradientUnits="userSpaceOnUse">
<stop stop-color="#D72EE8"/>
<stop offset="1" stop-color="#811E8B"/>
</linearGradient>
<linearGradient id="paint5_linear_1_156" x1="26.5022" y1="15.0775" x2="22.6296" y2="10.0934" gradientUnits="userSpaceOnUse">
<stop stop-color="#47004E" stop-opacity="0.146361"/>
<stop offset="1" stop-color="#47004E"/>
</linearGradient>
<clipPath id="clip0_1_156">
<rect width="148.603" height="29" fill="white"/>
</clipPath>
</defs>
</svg>
