<svg width="175" height="34" viewBox="0 0 175 34" fill="none" xmlns="http://www.w3.org/2000/svg">
<g clip-path="url(#clip0_1_31)">
<path d="M119.052 14.766C119.167 14.766 119.262 14.7262 119.338 14.6466C119.413 14.567 119.45 14.4741 119.45 14.368V10.362H123.271C123.381 10.362 123.473 10.3294 123.547 10.2642L123.556 10.2559C123.631 10.1852 123.668 10.0923 123.668 9.97734C123.668 9.87122 123.631 9.78058 123.556 9.70541C123.481 9.63024 123.386 9.59266 123.271 9.59266H119.45V6.26317H123.867C123.978 6.26317 124.07 6.22843 124.144 6.15893L124.153 6.15042C124.228 6.07526 124.265 5.98461 124.265 5.87849C124.265 5.76353 124.228 5.66847 124.153 5.5933C124.078 5.51813 123.982 5.48055 123.867 5.48055H119.039C118.933 5.48055 118.84 5.52034 118.76 5.59993C118.681 5.67952 118.641 5.77237 118.641 5.87849V14.368C118.641 14.4741 118.679 14.567 118.754 14.6466C118.829 14.7262 118.929 14.766 119.052 14.766ZM126.318 6.97948C126.495 6.97948 126.63 6.93747 126.723 6.85346C126.816 6.76945 126.862 6.64786 126.862 6.48868V6.35603C126.862 6.19685 126.816 6.07526 126.723 5.99124C126.63 5.90723 126.499 5.86523 126.331 5.86523C126.155 5.86523 126.015 5.90723 125.914 5.99124C125.812 6.07526 125.761 6.19685 125.761 6.35603V6.48868C125.761 6.64786 125.807 6.76945 125.9 6.85346C125.993 6.93747 126.132 6.97948 126.318 6.97948ZM126.318 14.766C126.424 14.766 126.517 14.7262 126.597 14.6466C126.676 14.567 126.716 14.4741 126.716 14.368V8.26617C126.716 8.16005 126.679 8.0672 126.603 7.98761C126.528 7.90802 126.433 7.86822 126.318 7.86822C126.203 7.86822 126.108 7.90802 126.033 7.98761C125.958 8.0672 125.92 8.16005 125.92 8.26617V14.368C125.92 14.4741 125.958 14.567 126.033 14.6466C126.108 14.7262 126.203 14.766 126.318 14.766ZM133.965 14.766C134.071 14.766 134.164 14.7262 134.244 14.6466C134.324 14.567 134.363 14.4741 134.363 14.368V10.4681C134.363 9.98176 134.286 9.53739 134.131 9.13502C133.976 8.73265 133.724 8.4143 133.375 8.17995C133.026 7.9456 132.559 7.82843 131.976 7.82843C131.657 7.82843 131.341 7.88812 131.027 8.00751C130.713 8.12689 130.428 8.29049 130.172 8.49831C129.933 8.69179 129.734 8.90827 129.576 9.14775L129.575 9.14979V8.42535C129.575 8.32348 129.54 8.23383 129.471 8.1564L129.462 8.14679C129.387 8.0672 129.292 8.0274 129.177 8.0274C129.062 8.0274 128.967 8.0672 128.892 8.14679C128.816 8.22638 128.779 8.31923 128.779 8.42535V14.368C128.779 14.4741 128.814 14.567 128.885 14.6466C128.956 14.7262 129.053 14.766 129.177 14.766C129.283 14.766 129.376 14.7262 129.455 14.6466C129.535 14.567 129.575 14.4741 129.575 14.368V10.5079C129.575 10.1542 129.681 9.83143 129.893 9.5396C130.105 9.24777 130.382 9.01343 130.722 8.83656C131.063 8.6597 131.423 8.57126 131.803 8.57126C132.228 8.57126 132.57 8.6597 132.831 8.83656C133.092 9.01343 133.28 9.24777 133.395 9.5396C133.51 9.83143 133.567 10.1542 133.567 10.5079V14.368C133.567 14.4741 133.603 14.567 133.674 14.6466C133.744 14.7262 133.842 14.766 133.965 14.766ZM139.112 14.8986C139.492 14.8986 139.844 14.8301 140.167 14.693C140.489 14.5559 140.77 14.3769 141.009 14.1558C141.231 13.9499 141.41 13.7288 141.544 13.4923L141.553 13.4758V14.368C141.553 14.4697 141.585 14.5592 141.65 14.6366L141.659 14.6466C141.73 14.7262 141.827 14.766 141.951 14.766C142.057 14.766 142.15 14.7262 142.229 14.6466C142.309 14.567 142.349 14.4741 142.349 14.368V8.39882C142.349 8.28386 142.311 8.18658 142.236 8.10699C142.161 8.0274 142.066 7.98761 141.951 7.98761C141.827 7.98761 141.73 8.0274 141.659 8.10699C141.588 8.18658 141.553 8.28386 141.553 8.39882V9.2313L141.549 9.22409C141.421 8.9918 141.257 8.78141 141.059 8.59292L141.036 8.57126C140.788 8.34134 140.498 8.16005 140.167 8.0274C139.835 7.89476 139.479 7.82843 139.099 7.82843C138.515 7.82843 137.989 7.97877 137.52 8.27944C137.052 8.58011 136.68 8.99353 136.406 9.5197C136.132 10.0459 135.995 10.6539 135.995 11.3436C135.995 12.0157 136.13 12.6215 136.399 13.1609C136.669 13.7004 137.041 14.1248 137.514 14.4343C137.987 14.7439 138.52 14.8986 139.112 14.8986ZM139.192 14.1558C138.723 14.1558 138.305 14.0342 137.938 13.791C137.571 13.5478 137.286 13.2118 137.083 12.7829C136.879 12.354 136.778 11.8742 136.778 11.3436C136.778 10.8042 136.881 10.3267 137.089 9.91102C137.297 9.49538 137.584 9.16818 137.951 8.92942C138.318 8.69065 138.732 8.57126 139.192 8.57126C139.66 8.57126 140.076 8.69507 140.439 8.94268C140.801 9.19029 141.086 9.52191 141.294 9.93755C141.502 10.3532 141.606 10.8219 141.606 11.3436C141.606 11.8742 141.502 12.354 141.294 12.7829C141.086 13.2118 140.801 13.5478 140.439 13.791C140.076 14.0342 139.66 14.1558 139.192 14.1558ZM149.618 14.766C149.724 14.766 149.817 14.7262 149.896 14.6466C149.976 14.567 150.016 14.4741 150.016 14.368V10.4681C150.016 9.98176 149.939 9.53739 149.784 9.13502C149.629 8.73265 149.377 8.4143 149.028 8.17995C148.678 7.9456 148.212 7.82843 147.628 7.82843C147.31 7.82843 146.994 7.88812 146.68 8.00751C146.366 8.12689 146.081 8.29049 145.824 8.49831C145.585 8.69179 145.387 8.90827 145.229 9.14775L145.227 9.14979V8.42535C145.227 8.32348 145.193 8.23383 145.123 8.1564L145.115 8.14679C145.039 8.0672 144.944 8.0274 144.829 8.0274C144.714 8.0274 144.619 8.0672 144.544 8.14679C144.469 8.22638 144.431 8.31923 144.431 8.42535V14.368C144.431 14.4741 144.467 14.567 144.537 14.6466C144.608 14.7262 144.706 14.766 144.829 14.766C144.935 14.766 145.028 14.7262 145.108 14.6466C145.187 14.567 145.227 14.4741 145.227 14.368V10.5079C145.227 10.1542 145.333 9.83143 145.546 9.5396C145.758 9.24777 146.034 9.01343 146.375 8.83656C146.715 8.6597 147.075 8.57126 147.456 8.57126C147.88 8.57126 148.223 8.6597 148.484 8.83656C148.745 9.01343 148.933 9.24777 149.048 9.5396C149.162 9.83143 149.22 10.1542 149.22 10.5079V14.368C149.22 14.4741 149.255 14.567 149.326 14.6466C149.397 14.7262 149.494 14.766 149.618 14.766ZM154.964 14.8986C155.441 14.8986 155.861 14.8345 156.224 14.7063C156.586 14.578 156.872 14.4277 157.079 14.2553C157.287 14.0828 157.391 13.9259 157.391 13.7844C157.391 13.6782 157.36 13.592 157.298 13.5257C157.236 13.4594 157.152 13.4262 157.046 13.4262C156.922 13.4262 156.823 13.4726 156.748 13.5655C156.673 13.6583 156.547 13.7534 156.37 13.8507C156.237 13.9303 156.071 14.001 155.872 14.0629C155.673 14.1248 155.397 14.1558 155.043 14.1558C154.53 14.1558 154.077 14.0342 153.684 13.791C153.29 13.5478 152.985 13.214 152.768 12.7895C152.552 12.365 152.443 11.8875 152.443 11.3569C152.443 10.8351 152.558 10.3642 152.788 9.94418C153.018 9.52412 153.332 9.19029 153.73 8.94268C154.128 8.69507 154.575 8.57126 155.07 8.57126C155.335 8.57126 155.576 8.59337 155.793 8.63759C156.009 8.6818 156.175 8.73044 156.29 8.7835C156.414 8.8454 156.507 8.91173 156.569 8.98248C156.631 9.05322 156.695 9.11512 156.761 9.16818C156.827 9.22124 156.918 9.24777 157.033 9.24777C157.13 9.24777 157.212 9.20577 157.278 9.12176C157.345 9.03775 157.378 8.95152 157.378 8.86309C157.378 8.67738 157.27 8.50494 157.053 8.34576C156.836 8.18658 156.551 8.06057 156.197 7.96771C155.844 7.87486 155.454 7.82843 155.03 7.82843C154.349 7.82843 153.757 7.98982 153.253 8.3126C152.748 8.63538 152.355 9.06206 152.072 9.59266C151.789 10.1233 151.647 10.7113 151.647 11.3569C151.647 12.029 151.787 12.6325 152.065 13.1675C152.344 13.7026 152.733 14.1248 153.233 14.4343C153.732 14.7439 154.309 14.8986 154.964 14.8986ZM159.281 6.97948C159.458 6.97948 159.593 6.93747 159.686 6.85346C159.779 6.76945 159.825 6.64786 159.825 6.48868V6.35603C159.825 6.19685 159.779 6.07526 159.686 5.99124C159.593 5.90723 159.463 5.86523 159.295 5.86523C159.118 5.86523 158.979 5.90723 158.877 5.99124C158.775 6.07526 158.724 6.19685 158.724 6.35603V6.48868C158.724 6.64786 158.771 6.76945 158.864 6.85346C158.956 6.93747 159.096 6.97948 159.281 6.97948ZM159.281 14.766C159.388 14.766 159.48 14.7262 159.56 14.6466C159.64 14.567 159.679 14.4741 159.679 14.368V8.26617C159.679 8.16005 159.642 8.0672 159.567 7.98761C159.491 7.90802 159.396 7.86822 159.281 7.86822C159.166 7.86822 159.071 7.90802 158.996 7.98761C158.921 8.0672 158.883 8.16005 158.883 8.26617V14.368C158.883 14.4741 158.921 14.567 158.996 14.6466C159.071 14.7262 159.166 14.766 159.281 14.766ZM164.408 14.8986C164.789 14.8986 165.14 14.8301 165.463 14.693C165.786 14.5559 166.066 14.3769 166.305 14.1558C166.527 13.9499 166.706 13.7288 166.84 13.4923L166.849 13.4758V14.368C166.849 14.4697 166.881 14.5592 166.946 14.6366L166.955 14.6466C167.026 14.7262 167.123 14.766 167.247 14.766C167.353 14.766 167.446 14.7262 167.526 14.6466C167.605 14.567 167.645 14.4741 167.645 14.368V8.39882C167.645 8.28386 167.607 8.18658 167.532 8.10699C167.457 8.0274 167.362 7.98761 167.247 7.98761C167.123 7.98761 167.026 8.0274 166.955 8.10699C166.884 8.18658 166.849 8.28386 166.849 8.39882V9.2313L166.845 9.22409C166.717 8.9918 166.553 8.78141 166.355 8.59292L166.332 8.57126C166.084 8.34134 165.794 8.16005 165.463 8.0274C165.131 7.89476 164.775 7.82843 164.395 7.82843C163.811 7.82843 163.285 7.97877 162.816 8.27944C162.348 8.58011 161.976 8.99353 161.702 9.5197C161.428 10.0459 161.291 10.6539 161.291 11.3436C161.291 12.0157 161.426 12.6215 161.696 13.1609C161.965 13.7004 162.337 14.1248 162.81 14.4343C163.283 14.7439 163.816 14.8986 164.408 14.8986ZM164.488 14.1558C164.019 14.1558 163.601 14.0342 163.234 13.791C162.867 13.5478 162.582 13.2118 162.379 12.7829C162.175 12.354 162.074 11.8742 162.074 11.3436C162.074 10.8042 162.178 10.3267 162.385 9.91102C162.593 9.49538 162.881 9.16818 163.248 8.92942C163.615 8.69065 164.028 8.57126 164.488 8.57126C164.957 8.57126 165.372 8.69507 165.735 8.94268C166.097 9.19029 166.383 9.52191 166.59 9.93755C166.798 10.3532 166.902 10.8219 166.902 11.3436C166.902 11.8742 166.798 12.354 166.59 12.7829C166.383 13.2118 166.097 13.5478 165.735 13.791C165.372 14.0342 164.957 14.1558 164.488 14.1558ZM170.205 14.766C170.311 14.766 170.404 14.7262 170.484 14.6466C170.563 14.567 170.603 14.4741 170.603 14.368V5.3479C170.603 5.24178 170.565 5.14892 170.49 5.06934C170.415 4.98975 170.32 4.94995 170.205 4.94995C170.099 4.94995 170.006 4.98975 169.926 5.06934C169.847 5.14892 169.807 5.24178 169.807 5.3479V14.368C169.807 14.4741 169.845 14.567 169.92 14.6466C169.995 14.7262 170.09 14.766 170.205 14.766ZM122.806 28.5824C123.328 28.5824 123.83 28.505 124.312 28.3503C124.794 28.1955 125.229 27.9855 125.618 27.7202C125.68 27.676 125.729 27.6229 125.764 27.561C125.8 27.4991 125.817 27.4328 125.817 27.362V24.1652C125.817 24.0502 125.78 23.9552 125.705 23.88C125.629 23.8048 125.534 23.7672 125.419 23.7672H122.886C122.771 23.7672 122.674 23.8026 122.594 23.8734C122.514 23.9441 122.475 24.0414 122.475 24.1652C122.475 24.2713 122.514 24.3642 122.594 24.4437C122.674 24.5233 122.771 24.5631 122.886 24.5631H124.982V27.1926L124.967 27.2019C124.702 27.3665 124.394 27.5003 124.043 27.6035L124.007 27.614C123.604 27.729 123.204 27.7865 122.806 27.7865C122.046 27.7865 121.369 27.614 120.777 27.2692C120.184 26.9243 119.72 26.4512 119.384 25.8498C119.048 25.2485 118.88 24.5675 118.88 23.807C118.88 23.0465 119.048 22.3656 119.384 21.7642C119.72 21.1629 120.184 20.6898 120.777 20.3449C121.369 20 122.046 19.8276 122.806 19.8276C123.204 19.8276 123.58 19.8762 123.934 19.9735C124.288 20.0708 124.615 20.2034 124.915 20.3714C124.951 20.3891 124.988 20.4046 125.028 20.4178C125.068 20.4311 125.11 20.4377 125.154 20.4377C125.243 20.4377 125.327 20.4002 125.406 20.325C125.486 20.2498 125.526 20.1503 125.526 20.0265C125.526 19.9646 125.51 19.9049 125.479 19.8475C125.448 19.79 125.402 19.7391 125.34 19.6949C124.995 19.4738 124.604 19.308 124.166 19.1975C123.728 19.0869 123.275 19.0317 122.806 19.0317C122.125 19.0317 121.493 19.1511 120.909 19.3898C120.326 19.6286 119.819 19.9624 119.391 20.3913C118.962 20.8202 118.628 21.3265 118.389 21.9101C118.15 22.4938 118.031 23.1261 118.031 23.807C118.031 24.488 118.15 25.1203 118.389 25.7039C118.628 26.2876 118.962 26.7938 119.391 27.2227C119.819 27.6516 120.326 27.9855 120.909 28.2242C121.493 28.463 122.125 28.5824 122.806 28.5824ZM130.374 28.5426C131.214 28.5426 131.882 28.3127 132.377 27.8528C132.872 27.393 133.12 26.7253 133.12 25.8498V22.1091C133.12 22.003 133.082 21.9102 133.007 21.8306C132.932 21.751 132.837 21.7112 132.722 21.7112C132.598 21.7112 132.501 21.751 132.43 21.8306C132.359 21.9102 132.324 22.003 132.324 22.1091V25.8498C132.324 26.4865 132.151 26.9707 131.807 27.3023C131.462 27.6339 130.984 27.7998 130.374 27.7998C129.773 27.7998 129.302 27.6339 128.961 27.3023C128.621 26.9707 128.45 26.4865 128.45 25.8498V22.1091C128.45 22.003 128.413 21.9102 128.338 21.8306C128.263 21.751 128.168 21.7112 128.053 21.7112C127.938 21.7112 127.843 21.751 127.767 21.8306C127.692 21.9102 127.655 22.003 127.655 22.1091V25.8498C127.655 26.7253 127.9 27.393 128.391 27.8528C128.882 28.3127 129.543 28.5426 130.374 28.5426ZM135.574 20.6633C135.751 20.6633 135.885 20.6212 135.978 20.5372C136.071 20.4532 136.118 20.3316 136.118 20.1725V20.0398C136.118 19.8806 136.071 19.759 135.978 19.675C135.885 19.591 135.755 19.549 135.587 19.549C135.41 19.549 135.271 19.591 135.169 19.675C135.067 19.759 135.017 19.8806 135.017 20.0398V20.1725C135.017 20.3316 135.063 20.4532 135.156 20.5372C135.249 20.6212 135.388 20.6633 135.574 20.6633ZM135.574 28.4497C135.68 28.4497 135.773 28.4099 135.852 28.3304C135.932 28.2508 135.972 28.1579 135.972 28.0518V21.9499C135.972 21.8438 135.934 21.751 135.859 21.6714C135.784 21.5918 135.689 21.552 135.574 21.552C135.459 21.552 135.364 21.5918 135.289 21.6714C135.213 21.751 135.176 21.8438 135.176 21.9499V28.0518C135.176 28.1579 135.213 28.2508 135.289 28.3304C135.364 28.4099 135.459 28.4497 135.574 28.4497ZM140.701 28.5824C141.081 28.5824 141.432 28.5116 141.755 28.3701C142.078 28.2287 142.361 28.0429 142.604 27.813C142.824 27.6053 142.998 27.3814 143.128 27.1413L143.141 27.1158L143.141 28.0518C143.141 28.1535 143.174 28.243 143.239 28.3203L143.247 28.3304C143.318 28.4099 143.415 28.4497 143.539 28.4497C143.645 28.4497 143.738 28.4099 143.818 28.3304C143.897 28.2508 143.937 28.1579 143.937 28.0518V19.0317C143.937 18.9167 143.9 18.8216 143.824 18.7465C143.749 18.6713 143.654 18.6337 143.539 18.6337C143.415 18.6337 143.318 18.6735 143.247 18.7531C143.177 18.8327 143.141 18.9256 143.141 19.0317L143.141 22.9303L143.129 22.9079C142.997 22.6756 142.83 22.4652 142.628 22.2767L142.604 22.255C142.352 22.0251 142.062 21.8438 141.735 21.7112C141.408 21.5785 141.059 21.5122 140.687 21.5122C140.104 21.5122 139.578 21.6647 139.109 21.9698C138.64 22.2749 138.269 22.695 137.995 23.23C137.72 23.765 137.583 24.3686 137.583 25.0407C137.583 25.7216 137.72 26.3274 137.995 26.858C138.269 27.3885 138.642 27.8086 139.115 28.1181C139.589 28.4276 140.117 28.5824 140.701 28.5824ZM140.78 27.8396C140.32 27.8396 139.907 27.718 139.54 27.4748C139.173 27.2316 138.886 26.8977 138.678 26.4733C138.47 26.0488 138.366 25.5713 138.366 25.0407C138.366 24.5101 138.47 24.0347 138.678 23.6147C138.886 23.1946 139.173 22.863 139.54 22.6198C139.907 22.3766 140.32 22.255 140.78 22.255C141.249 22.255 141.665 22.3766 142.027 22.6198C142.39 22.863 142.675 23.1946 142.883 23.6147C143.09 24.0347 143.194 24.5101 143.194 25.0407C143.194 25.5801 143.09 26.0598 142.883 26.4799C142.675 26.9 142.39 27.2316 142.027 27.4748C141.665 27.718 141.249 27.8396 140.78 27.8396ZM148.686 28.5824C149.066 28.5824 149.418 28.5138 149.741 28.3768C150.063 28.2397 150.344 28.0606 150.583 27.8396C150.805 27.6337 150.983 27.4126 151.118 27.1761L151.127 27.1597L151.127 28.0518C151.127 28.1535 151.159 28.243 151.224 28.3203L151.233 28.3304C151.304 28.4099 151.401 28.4497 151.525 28.4497C151.631 28.4497 151.724 28.4099 151.803 28.3304C151.883 28.2508 151.923 28.1579 151.923 28.0518V22.0826C151.923 21.9676 151.885 21.8704 151.81 21.7908C151.735 21.7112 151.64 21.6714 151.525 21.6714C151.401 21.6714 151.304 21.7112 151.233 21.7908C151.162 21.8704 151.127 21.9676 151.127 22.0826L151.127 22.915L151.123 22.9079C150.994 22.6756 150.831 22.4652 150.633 22.2767L150.609 22.255C150.362 22.0251 150.072 21.8438 149.741 21.7112C149.409 21.5785 149.053 21.5122 148.673 21.5122C148.089 21.5122 147.563 21.6625 147.094 21.9632C146.626 22.2639 146.254 22.6773 145.98 23.2035C145.706 23.7297 145.569 24.3376 145.569 25.0274C145.569 25.6995 145.704 26.3052 145.973 26.8447C146.243 27.3841 146.615 27.8086 147.088 28.1181C147.561 28.4276 148.094 28.5824 148.686 28.5824ZM148.766 27.8396C148.297 27.8396 147.879 27.718 147.512 27.4748C147.145 27.2316 146.86 26.8955 146.657 26.4666C146.453 26.0377 146.351 25.558 146.351 25.0274C146.351 24.488 146.455 24.0104 146.663 23.5948C146.871 23.1792 147.158 22.852 147.525 22.6132C147.892 22.3744 148.306 22.255 148.766 22.255C149.234 22.255 149.65 22.3788 150.013 22.6265C150.375 22.8741 150.66 23.2057 150.868 23.6213C151.076 24.037 151.18 24.5056 151.18 25.0274C151.18 25.558 151.076 26.0377 150.868 26.4666C150.66 26.8955 150.375 27.2316 150.013 27.4748C149.65 27.718 149.234 27.8396 148.766 27.8396ZM159.192 28.4497C159.298 28.4497 159.391 28.4099 159.47 28.3304C159.55 28.2508 159.59 28.1579 159.59 28.0518V24.1519C159.59 23.6655 159.512 23.2212 159.358 22.8188C159.203 22.4164 158.951 22.0981 158.602 21.8637C158.252 21.6294 157.786 21.5122 157.202 21.5122C156.884 21.5122 156.568 21.5719 156.254 21.6913C155.94 21.8107 155.655 21.9743 155.398 22.1821C155.159 22.3756 154.961 22.592 154.803 22.8315L154.801 22.8336V22.1091C154.801 22.0072 154.767 21.9176 154.697 21.8402L154.688 21.8306C154.613 21.751 154.518 21.7112 154.403 21.7112C154.288 21.7112 154.193 21.751 154.118 21.8306C154.043 21.9102 154.005 22.003 154.005 22.1091V28.0518C154.005 28.1579 154.041 28.2508 154.111 28.3304C154.182 28.4099 154.279 28.4497 154.403 28.4497C154.509 28.4497 154.602 28.4099 154.682 28.3304C154.761 28.2508 154.801 28.1579 154.801 28.0518V24.1917C154.801 23.838 154.907 23.5152 155.12 23.2234C155.332 22.9315 155.608 22.6972 155.949 22.5203C156.289 22.3435 156.649 22.255 157.03 22.255C157.454 22.255 157.797 22.3435 158.058 22.5203C158.319 22.6972 158.507 22.9315 158.621 23.2234C158.736 23.5152 158.794 23.838 158.794 24.1917V28.0518C158.794 28.1579 158.829 28.2508 158.9 28.3304C158.971 28.4099 159.068 28.4497 159.192 28.4497ZM164.538 28.5824C165.015 28.5824 165.435 28.5183 165.798 28.39C166.16 28.2618 166.446 28.1115 166.653 27.939C166.861 27.7666 166.965 27.6096 166.965 27.4681C166.965 27.362 166.934 27.2758 166.872 27.2095C166.81 27.1431 166.726 27.11 166.62 27.11C166.496 27.11 166.397 27.1564 166.322 27.2493C166.247 27.3421 166.121 27.4372 165.944 27.5345C165.811 27.614 165.645 27.6848 165.446 27.7467C165.247 27.8086 164.971 27.8396 164.617 27.8396C164.104 27.8396 163.651 27.718 163.258 27.4748C162.864 27.2316 162.559 26.8977 162.342 26.4733C162.126 26.0488 162.017 25.5713 162.017 25.0407C162.017 24.5189 162.132 24.048 162.362 23.628C162.592 23.2079 162.906 22.8741 163.304 22.6265C163.702 22.3788 164.149 22.255 164.644 22.255C164.909 22.255 165.15 22.2771 165.367 22.3214C165.583 22.3656 165.749 22.4142 165.864 22.4673C165.988 22.5292 166.081 22.5955 166.143 22.6662C166.205 22.737 166.269 22.7989 166.335 22.852C166.401 22.905 166.492 22.9315 166.607 22.9315C166.704 22.9315 166.786 22.8895 166.852 22.8055C166.919 22.7215 166.952 22.6353 166.952 22.5469C166.952 22.3612 166.843 22.1887 166.627 22.0295C166.41 21.8704 166.125 21.7443 165.771 21.6515C165.418 21.5586 165.028 21.5122 164.604 21.5122C163.923 21.5122 163.331 21.6736 162.826 21.9964C162.322 22.3192 161.929 22.7458 161.646 23.2764C161.363 23.807 161.221 24.3951 161.221 25.0407C161.221 25.7127 161.361 26.3163 161.639 26.8513C161.918 27.3863 162.307 27.8086 162.807 28.1181C163.306 28.4276 163.883 28.5824 164.538 28.5824ZM171.495 28.5824C171.999 28.5824 172.463 28.4652 172.888 28.2309C173.312 27.9965 173.657 27.7202 173.923 27.4018C174.011 27.3222 174.055 27.2294 174.055 27.1232C174.055 27.0348 174.022 26.9552 173.956 26.8845C173.889 26.8137 173.808 26.7784 173.71 26.7784C173.622 26.7784 173.529 26.8182 173.432 26.8977C173.308 27.0569 173.151 27.2095 172.961 27.3554C172.771 27.5013 172.552 27.6185 172.304 27.7069C172.057 27.7953 171.782 27.8396 171.482 27.8396C170.916 27.8396 170.434 27.7157 170.036 27.4681C169.638 27.2205 169.333 26.8845 169.121 26.46C168.908 26.0355 168.802 25.5624 168.802 25.0407L168.802 25.0539H173.816C173.918 25.0539 174.008 25.0193 174.085 24.95L174.095 24.9412C174.175 24.866 174.214 24.7754 174.214 24.6692C174.205 24.1563 174.113 23.7053 173.936 23.3162C173.759 22.9271 173.529 22.5977 173.246 22.328C172.963 22.0583 172.638 21.8549 172.271 21.7178C171.904 21.5807 171.526 21.5122 171.137 21.5122C170.606 21.5122 170.104 21.6559 169.631 21.9433C169.158 22.2307 168.774 22.6397 168.477 23.1703C168.181 23.7009 168.033 24.342 168.033 25.0937C168.033 25.7923 168.179 26.4025 168.471 26.9243C168.762 27.446 169.169 27.8528 169.691 28.1446C170.213 28.4365 170.814 28.5824 171.495 28.5824ZM173.392 24.3376H168.862L168.863 24.3294C168.896 24.1487 168.944 23.9805 169.005 23.8249L169.015 23.8004C169.156 23.4511 169.339 23.1637 169.565 22.9382C169.791 22.7127 170.043 22.5469 170.321 22.4407C170.6 22.3346 170.872 22.2816 171.137 22.2816C171.491 22.2816 171.829 22.3567 172.152 22.5071C172.474 22.6574 172.751 22.8785 172.981 23.1703C173.211 23.4621 173.348 23.8159 173.392 24.2315V24.3376Z" fill="black"/>
<path d="M58.6098 29.0256C60.0248 29.0256 61.2739 28.7217 62.3572 28.1137C63.4405 27.5057 64.2916 26.6656 64.9107 25.5934C65.5297 24.5211 65.8392 23.2996 65.8392 21.9289V6.47534C65.8392 6.21004 65.7452 5.9779 65.5573 5.77893C65.3694 5.57996 65.1207 5.48047 64.8112 5.48047C64.5238 5.48047 64.2751 5.57996 64.065 5.77893C63.855 5.9779 63.75 6.21004 63.75 6.47534V21.9289C63.75 22.9238 63.5344 23.8081 63.1033 24.5819C62.6722 25.3557 62.0698 25.9581 61.296 26.3892C60.5222 26.8204 59.6268 27.0359 58.6098 27.0359C57.615 27.0359 56.7196 26.7485 55.9237 26.1737C55.1278 25.5989 54.5198 24.8472 54.0998 23.9187C53.9892 23.7639 53.8621 23.6313 53.7184 23.5207C53.5747 23.4102 53.3923 23.3549 53.1712 23.3549C52.9502 23.3549 52.7291 23.4378 52.508 23.6036C52.2869 23.7694 52.1764 23.996 52.1764 24.2834C52.1764 24.4382 52.2316 24.6151 52.3422 24.814C52.917 26.0742 53.7571 27.0912 54.8625 27.865C55.9679 28.6388 57.217 29.0256 58.6098 29.0256ZM79.763 28.694C81.9738 28.694 83.7922 28.169 85.2181 27.1188C86.6441 26.0687 87.7053 24.6648 88.4017 22.9072C89.0981 21.1496 89.4463 19.2096 89.4463 17.0872C89.4463 15.5618 89.2529 14.1026 88.866 12.7098C88.4791 11.317 87.8877 10.0734 87.0918 8.97908C86.2959 7.88473 85.2845 7.02804 84.0575 6.40901C82.8305 5.78998 81.399 5.48047 79.763 5.48047H71.3066C71.0413 5.48047 70.8092 5.57996 70.6102 5.77893C70.4112 5.9779 70.3117 6.21004 70.3117 6.47534V27.6992C70.3117 27.9645 70.4112 28.1966 70.6102 28.3956C70.8092 28.5945 71.0413 28.694 71.3066 28.694H79.763ZM72.401 7.43704H79.4313C80.8242 7.43704 82.0235 7.69681 83.0294 8.21635C84.0354 8.73589 84.8534 9.44335 85.4834 10.3387C86.1135 11.2341 86.5778 12.2621 86.8763 13.4228C87.1747 14.5835 87.3239 15.805 87.3239 17.0872C87.3239 18.8559 87.0531 20.4753 86.5115 21.9455C85.9698 23.4157 85.1242 24.5819 83.9746 25.4441C82.8249 26.3063 81.3105 26.7375 79.4313 26.7375H72.401V7.43704ZM108.983 28.694C109.292 28.694 109.541 28.5945 109.729 28.3956C109.917 28.1966 110.022 27.9534 110.044 27.666V6.5085C110.044 6.22109 109.95 5.9779 109.762 5.77893C109.574 5.57996 109.325 5.48047 109.016 5.48047C108.729 5.48047 108.48 5.57996 108.27 5.77893C108.06 5.9779 107.955 6.22109 107.955 6.5085L107.955 15.8602H94.4909L94.4909 6.5085C94.4909 6.22708 94.3902 5.98805 94.1889 5.79142L94.1759 5.77893C93.9658 5.57996 93.7282 5.48047 93.4629 5.48047C93.1534 5.48047 92.8991 5.57996 92.7001 5.77893C92.5012 5.9779 92.4017 6.22109 92.4017 6.5085V27.666C92.4017 27.9534 92.4957 28.1966 92.6836 28.3956C92.8715 28.5945 93.1202 28.694 93.4297 28.694C93.695 28.694 93.9327 28.5945 94.1427 28.3956C94.3527 28.1966 94.4688 27.9534 94.4909 27.666L94.4909 17.7837H107.955L107.955 27.666C107.955 27.9473 108.05 28.1862 108.241 28.3828L108.253 28.3956C108.452 28.5945 108.695 28.694 108.983 28.694Z" fill="black"/>
<mask id="mask0_1_31" style="mask-type:alpha" maskUnits="userSpaceOnUse" x="11" y="0" width="9" height="24">
<path d="M18.6232 21.6427C19.1919 21.6427 19.653 22.1038 19.653 22.6725V22.847C19.653 23.4157 19.1919 23.8768 18.6232 23.8768H18.4487C17.8799 23.8768 17.4189 23.4157 17.4189 22.847V22.6725C17.4189 22.1038 17.8799 21.6427 18.4487 21.6427H18.6232ZM16.5637 20.0719C17.1324 20.0719 17.5934 20.5329 17.5934 21.1016C17.5934 21.6704 17.1324 22.1314 16.5637 22.1314C15.9949 22.1314 15.5339 21.6704 15.5339 21.1016C15.5339 20.5329 15.9949 20.0719 16.5637 20.0719ZM14.5041 18.2916C15.0728 18.2916 15.5339 18.7526 15.5339 19.3214C15.5339 19.8901 15.0728 20.3511 14.5041 20.3511C13.9354 20.3511 13.4743 19.8901 13.4743 19.3214C13.4743 18.7526 13.9354 18.2916 14.5041 18.2916ZM18.6232 18.0123C19.1919 18.0123 19.653 18.4734 19.653 19.0421C19.653 19.6108 19.1919 20.0719 18.6232 20.0719C18.0545 20.0719 17.5934 19.6108 17.5934 19.0421C17.5934 18.4734 18.0545 18.0123 18.6232 18.0123ZM12.4446 16.7207C12.9169 16.7207 13.2998 17.1036 13.2998 17.576C13.2998 18.0483 12.9169 18.4312 12.4446 18.4312C11.9722 18.4312 11.5893 18.0483 11.5893 17.576C11.5893 17.1036 11.9722 16.7207 12.4446 16.7207ZM16.5637 16.232C17.1324 16.232 17.5934 16.6931 17.5934 17.2618C17.5934 17.8305 17.1324 18.2916 16.5637 18.2916C15.9949 18.2916 15.5339 17.8305 15.5339 17.2618C15.5339 16.6931 15.9949 16.232 16.5637 16.232ZM14.5041 14.6612C14.9764 14.6612 15.3593 15.0441 15.3593 15.5164C15.3593 15.9888 14.9764 16.3717 14.5041 16.3717C14.0318 16.3717 13.6489 15.9888 13.6489 15.5164C13.6489 15.0441 14.0318 14.6612 14.5041 14.6612ZM18.6232 14.1725C19.1919 14.1725 19.653 14.6335 19.653 15.2023C19.653 15.771 19.1919 16.232 18.6232 16.232C18.0545 16.232 17.5934 15.771 17.5934 15.2023C17.5934 14.6335 18.0545 14.1725 18.6232 14.1725ZM12.4446 13.1602C12.8205 13.1602 13.1253 13.4649 13.1253 13.8409C13.1253 14.2168 12.8205 14.5216 12.4446 14.5216C12.0686 14.5216 11.7639 14.2168 11.7639 13.8409C11.7639 13.4649 12.0686 13.1602 12.4446 13.1602ZM16.5637 12.6016C17.036 12.6016 17.4189 12.9845 17.4189 13.4569C17.4189 13.9292 17.036 14.3121 16.5637 14.3121C16.0913 14.3121 15.7084 13.9292 15.7084 13.4569C15.7084 12.9845 16.0913 12.6016 16.5637 12.6016ZM14.5041 11.1006C14.8801 11.1006 15.1848 11.4054 15.1848 11.7813C15.1848 12.1573 14.8801 12.462 14.5041 12.462C14.1282 12.462 13.8234 12.1573 13.8234 11.7813C13.8234 11.4054 14.1282 11.1006 14.5041 11.1006ZM18.6232 10.5421C19.0955 10.5421 19.4784 10.925 19.4784 11.3973C19.4784 11.8697 19.0955 12.2526 18.6232 12.2526C18.1509 12.2526 17.768 11.8697 17.768 11.3973C17.768 10.925 18.1509 10.5421 18.6232 10.5421ZM12.4446 9.6694C12.7627 9.6694 13.0205 9.92728 13.0205 10.2454C13.0205 10.5635 12.7627 10.8214 12.4446 10.8214C12.1265 10.8214 11.8686 10.5635 11.8686 10.2454C11.8686 9.92728 12.1265 9.6694 12.4446 9.6694ZM16.5637 9.04107C16.9396 9.04107 17.2444 9.34583 17.2444 9.72176C17.2444 10.0977 16.9396 10.4025 16.5637 10.4025C16.1877 10.4025 15.883 10.0977 15.883 9.72176C15.883 9.34583 16.1877 9.04107 16.5637 9.04107ZM14.5041 7.60986C14.8222 7.60986 15.0801 7.86773 15.0801 8.18583C15.0801 8.50393 14.8222 8.76181 14.5041 8.76181C14.186 8.76181 13.9281 8.50393 13.9281 8.18583C13.9281 7.86773 14.186 7.60986 14.5041 7.60986ZM18.6232 6.98152C18.9991 6.98152 19.3039 7.28628 19.3039 7.66222C19.3039 8.03816 18.9991 8.34291 18.6232 8.34291C18.2473 8.34291 17.9425 8.03816 17.9425 7.66222C17.9425 7.28628 18.2473 6.98152 18.6232 6.98152ZM12.4446 6.17864C12.7048 6.17864 12.9158 6.38963 12.9158 6.6499C12.9158 6.91016 12.7048 7.12115 12.4446 7.12115C12.1843 7.12115 11.9733 6.91016 11.9733 6.6499C11.9733 6.38963 12.1843 6.17864 12.4446 6.17864ZM16.5637 5.55031C16.8818 5.55031 17.1396 5.80818 17.1396 6.12628C17.1396 6.44439 16.8818 6.70226 16.5637 6.70226C16.2456 6.70226 15.9877 6.44439 15.9877 6.12628C15.9877 5.80818 16.2456 5.55031 16.5637 5.55031ZM14.5041 4.1191C14.7644 4.1191 14.9754 4.33008 14.9754 4.59035C14.9754 4.85061 14.7644 5.0616 14.5041 5.0616C14.2438 5.0616 14.0329 4.85061 14.0329 4.59035C14.0329 4.33008 14.2438 4.1191 14.5041 4.1191ZM18.6232 3.49076C18.9413 3.49076 19.1992 3.74863 19.1992 4.06673C19.1992 4.38484 18.9413 4.64271 18.6232 4.64271C18.3051 4.64271 18.0472 4.38484 18.0472 4.06673C18.0472 3.74863 18.3051 3.49076 18.6232 3.49076ZM16.5637 2.05955C16.8239 2.05955 17.0349 2.27053 17.0349 2.5308C17.0349 2.79107 16.8239 3.00205 16.5637 3.00205C16.3034 3.00205 16.0924 2.79107 16.0924 2.5308C16.0924 2.27053 16.3034 2.05955 16.5637 2.05955ZM18.6232 0C18.8835 0 19.0945 0.210987 19.0945 0.471253C19.0945 0.731518 18.8835 0.942505 18.6232 0.942505C18.3629 0.942505 18.152 0.731518 18.152 0.471253C18.152 0.210987 18.3629 0 18.6232 0Z" fill="white"/>
</mask>
<g mask="url(#mask0_1_31)">
<path d="M18.6232 21.6427C19.1919 21.6427 19.653 22.1038 19.653 22.6725V22.847C19.653 23.4157 19.1919 23.8768 18.6232 23.8768H18.4487C17.8799 23.8768 17.4189 23.4157 17.4189 22.847V22.6725C17.4189 22.1038 17.8799 21.6427 18.4487 21.6427H18.6232ZM16.5637 20.0719C17.1324 20.0719 17.5934 20.5329 17.5934 21.1016C17.5934 21.6704 17.1324 22.1314 16.5637 22.1314C15.9949 22.1314 15.5339 21.6704 15.5339 21.1016C15.5339 20.5329 15.9949 20.0719 16.5637 20.0719ZM14.5041 18.2916C15.0728 18.2916 15.5339 18.7526 15.5339 19.3214C15.5339 19.8901 15.0728 20.3511 14.5041 20.3511C13.9354 20.3511 13.4743 19.8901 13.4743 19.3214C13.4743 18.7526 13.9354 18.2916 14.5041 18.2916ZM18.6232 18.0123C19.1919 18.0123 19.653 18.4734 19.653 19.0421C19.653 19.6108 19.1919 20.0719 18.6232 20.0719C18.0545 20.0719 17.5934 19.6108 17.5934 19.0421C17.5934 18.4734 18.0545 18.0123 18.6232 18.0123ZM12.4446 16.7207C12.9169 16.7207 13.2998 17.1036 13.2998 17.576C13.2998 18.0483 12.9169 18.4312 12.4446 18.4312C11.9722 18.4312 11.5893 18.0483 11.5893 17.576C11.5893 17.1036 11.9722 16.7207 12.4446 16.7207ZM16.5637 16.232C17.1324 16.232 17.5934 16.6931 17.5934 17.2618C17.5934 17.8305 17.1324 18.2916 16.5637 18.2916C15.9949 18.2916 15.5339 17.8305 15.5339 17.2618C15.5339 16.6931 15.9949 16.232 16.5637 16.232ZM14.5041 14.6612C14.9764 14.6612 15.3593 15.0441 15.3593 15.5164C15.3593 15.9888 14.9764 16.3717 14.5041 16.3717C14.0318 16.3717 13.6489 15.9888 13.6489 15.5164C13.6489 15.0441 14.0318 14.6612 14.5041 14.6612ZM18.6232 14.1725C19.1919 14.1725 19.653 14.6335 19.653 15.2023C19.653 15.771 19.1919 16.232 18.6232 16.232C18.0545 16.232 17.5934 15.771 17.5934 15.2023C17.5934 14.6335 18.0545 14.1725 18.6232 14.1725ZM12.4446 13.1602C12.8205 13.1602 13.1253 13.4649 13.1253 13.8409C13.1253 14.2168 12.8205 14.5216 12.4446 14.5216C12.0686 14.5216 11.7639 14.2168 11.7639 13.8409C11.7639 13.4649 12.0686 13.1602 12.4446 13.1602ZM16.5637 12.6016C17.036 12.6016 17.4189 12.9845 17.4189 13.4569C17.4189 13.9292 17.036 14.3121 16.5637 14.3121C16.0913 14.3121 15.7084 13.9292 15.7084 13.4569C15.7084 12.9845 16.0913 12.6016 16.5637 12.6016ZM14.5041 11.1006C14.8801 11.1006 15.1848 11.4054 15.1848 11.7813C15.1848 12.1573 14.8801 12.462 14.5041 12.462C14.1282 12.462 13.8234 12.1573 13.8234 11.7813C13.8234 11.4054 14.1282 11.1006 14.5041 11.1006ZM18.6232 10.5421C19.0955 10.5421 19.4784 10.925 19.4784 11.3973C19.4784 11.8697 19.0955 12.2526 18.6232 12.2526C18.1509 12.2526 17.768 11.8697 17.768 11.3973C17.768 10.925 18.1509 10.5421 18.6232 10.5421ZM12.4446 9.6694C12.7627 9.6694 13.0205 9.92728 13.0205 10.2454C13.0205 10.5635 12.7627 10.8214 12.4446 10.8214C12.1265 10.8214 11.8686 10.5635 11.8686 10.2454C11.8686 9.92728 12.1265 9.6694 12.4446 9.6694ZM16.5637 9.04107C16.9396 9.04107 17.2444 9.34583 17.2444 9.72176C17.2444 10.0977 16.9396 10.4025 16.5637 10.4025C16.1877 10.4025 15.883 10.0977 15.883 9.72176C15.883 9.34583 16.1877 9.04107 16.5637 9.04107ZM14.5041 7.60986C14.8222 7.60986 15.0801 7.86773 15.0801 8.18583C15.0801 8.50393 14.8222 8.76181 14.5041 8.76181C14.186 8.76181 13.9281 8.50393 13.9281 8.18583C13.9281 7.86773 14.186 7.60986 14.5041 7.60986ZM18.6232 6.98152C18.9991 6.98152 19.3039 7.28628 19.3039 7.66222C19.3039 8.03816 18.9991 8.34291 18.6232 8.34291C18.2473 8.34291 17.9425 8.03816 17.9425 7.66222C17.9425 7.28628 18.2473 6.98152 18.6232 6.98152ZM12.4446 6.17864C12.7048 6.17864 12.9158 6.38963 12.9158 6.6499C12.9158 6.91016 12.7048 7.12115 12.4446 7.12115C12.1843 7.12115 11.9733 6.91016 11.9733 6.6499C11.9733 6.38963 12.1843 6.17864 12.4446 6.17864ZM16.5637 5.55031C16.8818 5.55031 17.1396 5.80818 17.1396 6.12628C17.1396 6.44439 16.8818 6.70226 16.5637 6.70226C16.2456 6.70226 15.9877 6.44439 15.9877 6.12628C15.9877 5.80818 16.2456 5.55031 16.5637 5.55031ZM14.5041 4.1191C14.7644 4.1191 14.9754 4.33008 14.9754 4.59035C14.9754 4.85061 14.7644 5.0616 14.5041 5.0616C14.2438 5.0616 14.0329 4.85061 14.0329 4.59035C14.0329 4.33008 14.2438 4.1191 14.5041 4.1191ZM18.6232 3.49076C18.9413 3.49076 19.1992 3.74863 19.1992 4.06673C19.1992 4.38484 18.9413 4.64271 18.6232 4.64271C18.3051 4.64271 18.0472 4.38484 18.0472 4.06673C18.0472 3.74863 18.3051 3.49076 18.6232 3.49076ZM16.5637 2.05955C16.8239 2.05955 17.0349 2.27053 17.0349 2.5308C17.0349 2.79107 16.8239 3.00205 16.5637 3.00205C16.3034 3.00205 16.0924 2.79107 16.0924 2.5308C16.0924 2.27053 16.3034 2.05955 16.5637 2.05955ZM18.6232 0C18.8835 0 19.0945 0.210987 19.0945 0.471253C19.0945 0.731518 18.8835 0.942505 18.6232 0.942505C18.3629 0.942505 18.152 0.731518 18.152 0.471253C18.152 0.210987 18.3629 0 18.6232 0Z" fill="url(#paint0_linear_1_31)"/>
<g filter="url(#filter0_f_1_31)">
<path fill-rule="evenodd" clip-rule="evenodd" d="M11.5893 8.79663L19.4784 25.3777L20.5606 28.9383H8.48254L11.5893 8.79663Z" fill="url(#paint1_linear_1_31)"/>
</g>
</g>
<path fill-rule="evenodd" clip-rule="evenodd" d="M12.2526 31.5565C12.9273 31.5565 13.4743 32.1035 13.4743 32.7783C13.4743 33.453 12.9273 34 12.2526 34C11.5778 34 11.0308 33.453 11.0308 32.7783C11.0308 32.1035 11.5778 31.5565 12.2526 31.5565ZM10.2628 29.9158C10.8798 29.9158 11.3799 30.416 11.3799 31.0329C11.3799 31.6498 10.8798 32.1499 10.2628 32.1499C9.64591 32.1499 9.14579 31.6498 9.14579 31.0329C9.14579 30.416 9.64591 29.9158 10.2628 29.9158ZM14.3121 29.4969C14.9869 29.4969 15.5339 30.0439 15.5339 30.7187C15.5339 31.3935 14.9869 31.9405 14.3121 31.9405C13.6374 31.9405 13.0903 31.3935 13.0903 30.7187C13.0903 30.0439 13.6374 29.4969 14.3121 29.4969ZM8.36037 28.3101C8.9291 28.3101 9.39014 28.7711 9.39014 29.3399C9.39014 29.9086 8.9291 30.3696 8.36037 30.3696C7.79164 30.3696 7.3306 29.9086 7.3306 29.3399C7.3306 28.7711 7.79164 28.3101 8.36037 28.3101ZM12.3573 27.8214C12.9742 27.8214 13.4743 28.3215 13.4743 28.9384C13.4743 29.5554 12.9742 30.0555 12.3573 30.0555C11.7404 30.0555 11.2402 29.5554 11.2402 28.9384C11.2402 28.3215 11.7404 27.8214 12.3573 27.8214ZM16.3717 27.4374C17.0464 27.4374 17.5934 27.9844 17.5934 28.6592C17.5934 29.3339 17.0464 29.8809 16.3717 29.8809C15.6969 29.8809 15.1499 29.3339 15.1499 28.6592C15.1499 27.9844 15.6969 27.4374 16.3717 27.4374ZM6.37064 26.4949C6.93937 26.4949 7.40041 26.9559 7.40041 27.5247C7.40041 28.0934 6.93937 28.5544 6.37064 28.5544C5.80191 28.5544 5.34086 28.0934 5.34086 27.5247C5.34086 26.9559 5.80191 26.4949 6.37064 26.4949ZM10.4548 26.2156C11.0236 26.2156 11.4846 26.6767 11.4846 27.2454C11.4846 27.8141 11.0236 28.2752 10.4548 28.2752C9.8861 28.2752 9.42505 27.8141 9.42505 27.2454C9.42505 26.6767 9.8861 26.2156 10.4548 26.2156ZM14.4168 25.7618C15.0338 25.7618 15.5339 26.2619 15.5339 26.8789C15.5339 27.4958 15.0338 27.9959 14.4168 27.9959C13.7999 27.9959 13.2998 27.4958 13.2998 26.8789C13.2998 26.2619 13.7999 25.7618 14.4168 25.7618ZM18.4312 25.3778C19.106 25.3778 19.653 25.9249 19.653 26.5996C19.653 27.2744 19.106 27.8214 18.4312 27.8214C17.7564 27.8214 17.2094 27.2744 17.2094 26.5996C17.2094 25.9249 17.7564 25.3778 18.4312 25.3778ZM8.46509 24.4004C9.03382 24.4004 9.49487 24.8615 9.49487 25.4302C9.49487 25.9989 9.03382 26.46 8.46509 26.46C7.89636 26.46 7.43532 25.9989 7.43532 25.4302C7.43532 24.8615 7.89636 24.4004 8.46509 24.4004ZM4.346 24.7495C4.81833 24.7495 5.20123 25.1324 5.20123 25.6047C5.20123 26.0771 4.81833 26.46 4.346 26.46C3.87366 26.46 3.49076 26.0771 3.49076 25.6047C3.49076 25.1324 3.87366 24.7495 4.346 24.7495ZM12.4446 24.191C13.0133 24.191 13.4743 24.652 13.4743 25.2208C13.4743 25.7895 13.0133 26.2505 12.4446 26.2505C11.8758 26.2505 11.4148 25.7895 11.4148 25.2208C11.4148 24.652 11.8758 24.191 12.4446 24.191ZM16.4764 23.7023C17.0933 23.7023 17.5934 24.2024 17.5934 24.8193C17.5934 25.4363 17.0933 25.9364 16.4764 25.9364C15.8595 25.9364 15.3593 25.4363 15.3593 24.8193C15.3593 24.2024 15.8595 23.7023 16.4764 23.7023ZM10.4548 22.3758C11.0236 22.3758 11.4846 22.8368 11.4846 23.4056C11.4846 23.9743 11.0236 24.4353 10.4548 24.4353C9.8861 24.4353 9.42505 23.9743 9.42505 23.4056C9.42505 22.8368 9.8861 22.3758 10.4548 22.3758ZM2.42608 23.039C2.80202 23.039 3.10678 23.3438 3.10678 23.7197C3.10678 24.0957 2.80202 24.4004 2.42608 24.4004C2.05014 24.4004 1.74538 24.0957 1.74538 23.7197C1.74538 23.3438 2.05014 23.039 2.42608 23.039ZM6.44045 22.6551C6.91279 22.6551 7.29569 23.038 7.29569 23.5103C7.29569 23.9826 6.91279 24.3655 6.44045 24.3655C5.96812 24.3655 5.58522 23.9826 5.58522 23.5103C5.58522 23.038 5.96812 22.6551 6.44045 22.6551ZM14.5041 22.1314C15.0728 22.1314 15.5339 22.5925 15.5339 23.1612C15.5339 23.7299 15.0728 24.191 14.5041 24.191C13.9354 24.191 13.4743 23.7299 13.4743 23.1612C13.4743 22.5925 13.9354 22.1314 14.5041 22.1314ZM0.575975 21.2937C0.894078 21.2937 1.15195 21.5515 1.15195 21.8696C1.15195 22.1877 0.894078 22.4456 0.575975 22.4456C0.257873 22.4456 0 22.1877 0 21.8696C0 21.5515 0.257873 21.2937 0.575975 21.2937ZM12.4446 20.3512C13.0133 20.3512 13.4743 20.8122 13.4743 21.3809C13.4743 21.9497 13.0133 22.4107 12.4446 22.4107C11.8758 22.4107 11.4148 21.9497 11.4148 21.3809C11.4148 20.8122 11.8758 20.3512 12.4446 20.3512ZM8.43019 20.6304C8.90252 20.6304 9.28542 21.0133 9.28542 21.4857C9.28542 21.958 8.90252 22.3409 8.43019 22.3409C7.95785 22.3409 7.57495 21.958 7.57495 21.4857C7.57495 21.0133 7.95785 20.6304 8.43019 20.6304ZM4.52053 20.9446C4.89647 20.9446 5.20123 21.2493 5.20123 21.6253C5.20123 22.0012 4.89647 22.306 4.52053 22.306C4.14459 22.306 3.83984 22.0012 3.83984 21.6253C3.83984 21.2493 4.14459 20.9446 4.52053 20.9446ZM10.4199 18.7454C10.8923 18.7454 11.2752 19.1283 11.2752 19.6006C11.2752 20.073 10.8923 20.4559 10.4199 20.4559C9.94758 20.4559 9.56468 20.073 9.56468 19.6006C9.56468 19.1283 9.94758 18.7454 10.4199 18.7454ZM2.67043 19.1992C2.98853 19.1992 3.24641 19.4571 3.24641 19.7752C3.24641 20.0933 2.98853 20.3512 2.67043 20.3512C2.35233 20.3512 2.09446 20.0933 2.09446 19.7752C2.09446 19.4571 2.35233 19.1992 2.67043 19.1992ZM6.51027 18.9199C6.88621 18.9199 7.19097 19.2247 7.19097 19.6006C7.19097 19.9766 6.88621 20.2813 6.51027 20.2813C6.13433 20.2813 5.82957 19.9766 5.82957 19.6006C5.82957 19.2247 6.13433 18.9199 6.51027 18.9199ZM8.5 17.0349C8.87594 17.0349 9.1807 17.3397 9.1807 17.7156C9.1807 18.0916 8.87594 18.3963 8.5 18.3963C8.12406 18.3963 7.8193 18.0916 7.8193 17.7156C7.8193 17.3397 8.12406 17.0349 8.5 17.0349ZM4.66016 17.1746C4.97827 17.1746 5.23614 17.4324 5.23614 17.7505C5.23614 18.0686 4.97827 18.3265 4.66016 18.3265C4.34206 18.3265 4.08419 18.0686 4.08419 17.7505C4.08419 17.4324 4.34206 17.1746 4.66016 17.1746ZM6.6499 15.2896C6.968 15.2896 7.22587 15.5474 7.22587 15.8655C7.22587 16.1836 6.968 16.4415 6.6499 16.4415C6.3318 16.4415 6.07392 16.1836 6.07392 15.8655C6.07392 15.5474 6.3318 15.2896 6.6499 15.2896Z" fill="url(#paint2_linear_1_31)"/>
<path fill-rule="evenodd" clip-rule="evenodd" d="M28.4497 2.44353C27.7749 2.44353 27.2279 1.89653 27.2279 1.22176C27.2279 0.547001 27.7749 0 28.4497 0C29.1244 0 29.6714 0.547001 29.6714 1.22176C29.6714 1.89653 29.1244 2.44353 28.4497 2.44353ZM26.3901 4.50308C25.7154 4.50308 25.1684 3.95608 25.1684 3.28131C25.1684 2.60655 25.7154 2.05955 26.3901 2.05955C27.0649 2.05955 27.6119 2.60655 27.6119 3.28131C27.6119 3.95608 27.0649 4.50308 26.3901 4.50308ZM28.345 6.17864C27.728 6.17864 27.2279 5.67853 27.2279 5.0616C27.2279 4.44468 27.728 3.94456 28.345 3.94456C28.9619 3.94456 29.462 4.44468 29.462 5.0616C29.462 5.67853 28.9619 6.17864 28.345 6.17864ZM24.3306 6.56263C23.6558 6.56263 23.1088 6.01562 23.1088 5.34086C23.1088 4.6661 23.6558 4.1191 24.3306 4.1191C25.0053 4.1191 25.5523 4.6661 25.5523 5.34086C25.5523 6.01562 25.0053 6.56263 24.3306 6.56263ZM26.2854 8.23819C25.6685 8.23819 25.1684 7.73808 25.1684 7.12115C25.1684 6.50422 25.6685 6.00411 26.2854 6.00411C26.9023 6.00411 27.4025 6.50422 27.4025 7.12115C27.4025 7.73808 26.9023 8.23819 26.2854 8.23819ZM22.271 8.62218C21.5963 8.62218 21.0493 8.07517 21.0493 7.40041C21.0493 6.72565 21.5963 6.17864 22.271 6.17864C22.9458 6.17864 23.4928 6.72565 23.4928 7.40041C23.4928 8.07517 22.9458 8.62218 22.271 8.62218ZM28.2577 9.80903C27.689 9.80903 27.2279 9.34799 27.2279 8.77926C27.2279 8.21053 27.689 7.74949 28.2577 7.74949C28.8264 7.74949 29.2875 8.21053 29.2875 8.77926C29.2875 9.34799 28.8264 9.80903 28.2577 9.80903ZM24.2259 10.2977C23.6089 10.2977 23.1088 9.79762 23.1088 9.1807C23.1088 8.56377 23.6089 8.06365 24.2259 8.06365C24.8428 8.06365 25.3429 8.56377 25.3429 9.1807C25.3429 9.79762 24.8428 10.2977 24.2259 10.2977ZM26.1981 11.8686C25.6294 11.8686 25.1684 11.4075 25.1684 10.8388C25.1684 10.2701 25.6294 9.80903 26.1981 9.80903C26.7669 9.80903 27.2279 10.2701 27.2279 10.8388C27.2279 11.4075 26.7669 11.8686 26.1981 11.8686ZM22.079 12.3573C21.5103 12.3573 21.0493 11.8962 21.0493 11.3275V11.153C21.0493 10.5842 21.5103 10.1232 22.079 10.1232H22.2536C22.8223 10.1232 23.2834 10.5842 23.2834 11.153V11.3275C23.2834 11.8962 22.8223 12.3573 22.2536 12.3573H22.079ZM28.2577 13.6489C27.689 13.6489 27.2279 13.1878 27.2279 12.6191C27.2279 12.0504 27.689 11.5893 28.2577 11.5893C28.8264 11.5893 29.2875 12.0504 29.2875 12.6191C29.2875 13.1878 28.8264 13.6489 28.2577 13.6489ZM24.1386 13.9281C23.5699 13.9281 23.1088 13.4671 23.1088 12.8984C23.1088 12.3296 23.5699 11.8686 24.1386 11.8686C24.7073 11.8686 25.1684 12.3296 25.1684 12.8984C25.1684 13.4671 24.7073 13.9281 24.1386 13.9281ZM26.1981 15.7084C25.6294 15.7084 25.1684 15.2474 25.1684 14.6786C25.1684 14.1099 25.6294 13.6489 26.1981 13.6489C26.7669 13.6489 27.2279 14.1099 27.2279 14.6786C27.2279 15.2474 26.7669 15.7084 26.1981 15.7084ZM22.079 15.9877C21.5103 15.9877 21.0493 15.5266 21.0493 14.9579C21.0493 14.3892 21.5103 13.9281 22.079 13.9281C22.6478 13.9281 23.1088 14.3892 23.1088 14.9579C23.1088 15.5266 22.6478 15.9877 22.079 15.9877ZM28.2577 17.2793C27.7854 17.2793 27.4025 16.8964 27.4025 16.424C27.4025 15.9517 27.7854 15.5688 28.2577 15.5688C28.73 15.5688 29.1129 15.9517 29.1129 16.424C29.1129 16.8964 28.73 17.2793 28.2577 17.2793ZM24.1386 17.768C23.5699 17.768 23.1088 17.3069 23.1088 16.7382C23.1088 16.1695 23.5699 15.7084 24.1386 15.7084C24.7073 15.7084 25.1684 16.1695 25.1684 16.7382C25.1684 17.3069 24.7073 17.768 24.1386 17.768ZM26.1981 19.3388C25.7258 19.3388 25.3429 18.9559 25.3429 18.4836C25.3429 18.0112 25.7258 17.6283 26.1981 17.6283C26.6705 17.6283 27.0534 18.0112 27.0534 18.4836C27.0534 18.9559 26.6705 19.3388 26.1981 19.3388ZM22.079 19.8275C21.5103 19.8275 21.0493 19.3665 21.0493 18.7977C21.0493 18.229 21.5103 17.768 22.079 17.768C22.6478 17.768 23.1088 18.229 23.1088 18.7977C23.1088 19.3665 22.6478 19.8275 22.079 19.8275ZM28.2577 20.8398C27.8817 20.8398 27.577 20.5351 27.577 20.1591C27.577 19.7832 27.8817 19.4784 28.2577 19.4784C28.6336 19.4784 28.9384 19.7832 28.9384 20.1591C28.9384 20.5351 28.6336 20.8398 28.2577 20.8398ZM24.1386 21.3984C23.6663 21.3984 23.2834 21.0155 23.2834 20.5431C23.2834 20.0708 23.6663 19.6879 24.1386 19.6879C24.6109 19.6879 24.9938 20.0708 24.9938 20.5431C24.9938 21.0155 24.6109 21.3984 24.1386 21.3984ZM26.1981 22.8994C25.8222 22.8994 25.5174 22.5946 25.5174 22.2187C25.5174 21.8427 25.8222 21.538 26.1981 21.538C26.5741 21.538 26.8788 21.8427 26.8788 22.2187C26.8788 22.5946 26.5741 22.8994 26.1981 22.8994ZM22.079 23.4579C21.6067 23.4579 21.2238 23.075 21.2238 22.6027C21.2238 22.1303 21.6067 21.7474 22.079 21.7474C22.5514 21.7474 22.9343 22.1303 22.9343 22.6027C22.9343 23.075 22.5514 23.4579 22.079 23.4579ZM28.2577 24.3306C27.9396 24.3306 27.6817 24.0727 27.6817 23.7546C27.6817 23.4365 27.9396 23.1786 28.2577 23.1786C28.5758 23.1786 28.8337 23.4365 28.8337 23.7546C28.8337 24.0727 28.5758 24.3306 28.2577 24.3306ZM24.1386 24.9589C23.7627 24.9589 23.4579 24.6542 23.4579 24.2782C23.4579 23.9023 23.7627 23.5975 24.1386 23.5975C24.5145 23.5975 24.8193 23.9023 24.8193 24.2782C24.8193 24.6542 24.5145 24.9589 24.1386 24.9589ZM26.1981 26.3901C25.88 26.3901 25.6222 26.1323 25.6222 25.8142C25.6222 25.4961 25.88 25.2382 26.1981 25.2382C26.5162 25.2382 26.7741 25.4961 26.7741 25.8142C26.7741 26.1323 26.5162 26.3901 26.1981 26.3901ZM22.079 27.0185C21.7031 27.0185 21.3983 26.7137 21.3983 26.3378C21.3983 25.9618 21.7031 25.6571 22.079 25.6571C22.455 25.6571 22.7597 25.9618 22.7597 26.3378C22.7597 26.7137 22.455 27.0185 22.079 27.0185ZM28.2577 27.8214C27.9974 27.8214 27.7864 27.6104 27.7864 27.3501C27.7864 27.0898 27.9974 26.8788 28.2577 26.8788C28.518 26.8788 28.7289 27.0898 28.7289 27.3501C28.7289 27.6104 28.518 27.8214 28.2577 27.8214ZM24.1386 28.4497C23.8205 28.4497 23.5626 28.1918 23.5626 27.8737C23.5626 27.5556 23.8205 27.2977 24.1386 27.2977C24.4567 27.2977 24.7146 27.5556 24.7146 27.8737C24.7146 28.1918 24.4567 28.4497 24.1386 28.4497ZM26.1981 29.8809C25.9379 29.8809 25.7269 29.6699 25.7269 29.4097C25.7269 29.1494 25.9379 28.9384 26.1981 28.9384C26.4584 28.9384 26.6694 29.1494 26.6694 29.4097C26.6694 29.6699 26.4584 29.8809 26.1981 29.8809ZM22.079 30.5092C21.7609 30.5092 21.5031 30.2514 21.5031 29.9333C21.5031 29.6152 21.7609 29.3573 22.079 29.3573C22.3971 29.3573 22.655 29.6152 22.655 29.9333C22.655 30.2514 22.3971 30.5092 22.079 30.5092ZM24.1386 31.9405C23.8783 31.9405 23.6673 31.7295 23.6673 31.4692C23.6673 31.2089 23.8783 30.9979 24.1386 30.9979C24.3989 30.9979 24.6098 31.2089 24.6098 31.4692C24.6098 31.7295 24.3989 31.9405 24.1386 31.9405ZM22.079 34C21.8188 34 21.6078 33.789 21.6078 33.5287C21.6078 33.2685 21.8188 33.0575 22.079 33.0575C22.3393 33.0575 22.5503 33.2685 22.5503 33.5287C22.5503 33.789 22.3393 34 22.079 34Z" fill="url(#paint3_linear_1_31)"/>
<mask id="mask1_1_31" style="mask-type:alpha" maskUnits="userSpaceOnUse" x="29" y="1" width="12" height="18">
<path d="M30.4394 4.08417C29.8225 4.08417 29.3224 3.58405 29.3224 2.96713C29.3224 2.3502 29.8225 1.85009 30.4394 1.85009C31.0563 1.85009 31.5565 2.3502 31.5565 2.96713C31.5565 3.58405 31.0563 4.08417 30.4394 4.08417ZM32.3419 5.68992C31.7732 5.68992 31.3121 5.22888 31.3121 4.66015C31.3121 4.09142 31.7732 3.63037 32.3419 3.63037C32.9106 3.63037 33.3717 4.09142 33.3717 4.66015C33.3717 5.22888 32.9106 5.68992 32.3419 5.68992ZM34.3316 7.50511C33.7629 7.50511 33.3018 7.04407 33.3018 6.47534C33.3018 5.90661 33.7629 5.44557 34.3316 5.44557C34.9004 5.44557 35.3614 5.90661 35.3614 6.47534C35.3614 7.04407 34.9004 7.50511 34.3316 7.50511ZM30.2474 7.78438C29.6787 7.78438 29.2177 7.32333 29.2177 6.7546C29.2177 6.18587 29.6787 5.72483 30.2474 5.72483C30.8162 5.72483 31.2772 6.18587 31.2772 6.7546C31.2772 7.32333 30.8162 7.78438 30.2474 7.78438ZM32.2372 9.59957C31.6684 9.59957 31.2074 9.13853 31.2074 8.5698C31.2074 8.00107 31.6684 7.54002 32.2372 7.54002C32.8059 7.54002 33.2669 8.00107 33.2669 8.5698C33.2669 9.13853 32.8059 9.59957 32.2372 9.59957ZM36.3563 9.25049C35.8839 9.25049 35.501 8.86759 35.501 8.39526C35.501 7.92292 35.8839 7.54002 36.3563 7.54002C36.8286 7.54002 37.2115 7.92292 37.2115 8.39526C37.2115 8.86759 36.8286 9.25049 36.3563 9.25049ZM30.2474 11.6242C29.6787 11.6242 29.2177 11.1632 29.2177 10.5944C29.2177 10.0257 29.6787 9.56466 30.2474 9.56466C30.8162 9.56466 31.2772 10.0257 31.2772 10.5944C31.2772 11.1632 30.8162 11.6242 30.2474 11.6242ZM38.2762 10.961C37.9002 10.961 37.5955 10.6562 37.5955 10.2803C37.5955 9.90433 37.9002 9.59957 38.2762 9.59957C38.6521 9.59957 38.9569 9.90433 38.9569 10.2803C38.9569 10.6562 38.6521 10.961 38.2762 10.961ZM34.2618 11.3449C33.7895 11.3449 33.4066 10.962 33.4066 10.4897C33.4066 10.0174 33.7895 9.63448 34.2618 9.63448C34.7341 9.63448 35.117 10.0174 35.117 10.4897C35.117 10.962 34.7341 11.3449 34.2618 11.3449ZM40.1263 12.7063C39.8082 12.7063 39.5503 12.4485 39.5503 12.1304C39.5503 11.8123 39.8082 11.5544 40.1263 11.5544C40.4444 11.5544 40.7023 11.8123 40.7023 12.1304C40.7023 12.4485 40.4444 12.7063 40.1263 12.7063ZM32.2721 13.3696C31.7997 13.3696 31.4168 12.9867 31.4168 12.5144C31.4168 12.042 31.7997 11.6591 32.2721 11.6591C32.7444 11.6591 33.1273 12.042 33.1273 12.5144C33.1273 12.9867 32.7444 13.3696 32.2721 13.3696ZM36.1817 13.0554C35.8058 13.0554 35.501 12.7507 35.501 12.3747C35.501 11.9988 35.8058 11.694 36.1817 11.694C36.5577 11.694 36.8624 11.9988 36.8624 12.3747C36.8624 12.7507 36.5577 13.0554 36.1817 13.0554ZM30.2823 15.2546C29.81 15.2546 29.4271 14.8717 29.4271 14.3994C29.4271 13.927 29.81 13.5441 30.2823 13.5441C30.7547 13.5441 31.1376 13.927 31.1376 14.3994C31.1376 14.8717 30.7547 15.2546 30.2823 15.2546ZM38.0318 14.8008C37.7137 14.8008 37.4559 14.5429 37.4559 14.2248C37.4559 13.9067 37.7137 13.6488 38.0318 13.6488C38.3499 13.6488 38.6078 13.9067 38.6078 14.2248C38.6078 14.5429 38.3499 14.8008 38.0318 14.8008ZM34.192 15.0801C33.8161 15.0801 33.5113 14.7753 33.5113 14.3994C33.5113 14.0234 33.8161 13.7187 34.192 13.7187C34.5679 13.7187 34.8727 14.0234 34.8727 14.3994C34.8727 14.7753 34.5679 15.0801 34.192 15.0801ZM32.2023 16.9651C31.8263 16.9651 31.5216 16.6603 31.5216 16.2844C31.5216 15.9084 31.8263 15.6037 32.2023 15.6037C32.5782 15.6037 32.883 15.9084 32.883 16.2844C32.883 16.6603 32.5782 16.9651 32.2023 16.9651ZM36.0421 16.8254C35.724 16.8254 35.4661 16.5676 35.4661 16.2495C35.4661 15.9314 35.724 15.6735 36.0421 15.6735C36.3602 15.6735 36.6181 15.9314 36.6181 16.2495C36.6181 16.5676 36.3602 16.8254 36.0421 16.8254ZM34.0524 18.7104C33.7343 18.7104 33.4764 18.4526 33.4764 18.1345C33.4764 17.8164 33.7343 17.5585 34.0524 17.5585C34.3705 17.5585 34.6283 17.8164 34.6283 18.1345C34.6283 18.4526 34.3705 18.7104 34.0524 18.7104Z" fill="white"/>
</mask>
<g mask="url(#mask1_1_31)">
<path d="M30.4394 4.08417C29.8225 4.08417 29.3224 3.58405 29.3224 2.96713C29.3224 2.3502 29.8225 1.85009 30.4394 1.85009C31.0563 1.85009 31.5565 2.3502 31.5565 2.96713C31.5565 3.58405 31.0563 4.08417 30.4394 4.08417ZM32.3419 5.68992C31.7732 5.68992 31.3121 5.22888 31.3121 4.66015C31.3121 4.09142 31.7732 3.63037 32.3419 3.63037C32.9106 3.63037 33.3717 4.09142 33.3717 4.66015C33.3717 5.22888 32.9106 5.68992 32.3419 5.68992ZM34.3316 7.50511C33.7629 7.50511 33.3018 7.04407 33.3018 6.47534C33.3018 5.90661 33.7629 5.44557 34.3316 5.44557C34.9004 5.44557 35.3614 5.90661 35.3614 6.47534C35.3614 7.04407 34.9004 7.50511 34.3316 7.50511ZM30.2474 7.78438C29.6787 7.78438 29.2177 7.32333 29.2177 6.7546C29.2177 6.18587 29.6787 5.72483 30.2474 5.72483C30.8162 5.72483 31.2772 6.18587 31.2772 6.7546C31.2772 7.32333 30.8162 7.78438 30.2474 7.78438ZM32.2372 9.59957C31.6684 9.59957 31.2074 9.13853 31.2074 8.5698C31.2074 8.00107 31.6684 7.54002 32.2372 7.54002C32.8059 7.54002 33.2669 8.00107 33.2669 8.5698C33.2669 9.13853 32.8059 9.59957 32.2372 9.59957ZM36.3563 9.25049C35.8839 9.25049 35.501 8.86759 35.501 8.39526C35.501 7.92292 35.8839 7.54002 36.3563 7.54002C36.8286 7.54002 37.2115 7.92292 37.2115 8.39526C37.2115 8.86759 36.8286 9.25049 36.3563 9.25049ZM30.2474 11.6242C29.6787 11.6242 29.2177 11.1632 29.2177 10.5944C29.2177 10.0257 29.6787 9.56466 30.2474 9.56466C30.8162 9.56466 31.2772 10.0257 31.2772 10.5944C31.2772 11.1632 30.8162 11.6242 30.2474 11.6242ZM38.2762 10.961C37.9002 10.961 37.5955 10.6562 37.5955 10.2803C37.5955 9.90433 37.9002 9.59957 38.2762 9.59957C38.6521 9.59957 38.9569 9.90433 38.9569 10.2803C38.9569 10.6562 38.6521 10.961 38.2762 10.961ZM34.2618 11.3449C33.7895 11.3449 33.4066 10.962 33.4066 10.4897C33.4066 10.0174 33.7895 9.63448 34.2618 9.63448C34.7341 9.63448 35.117 10.0174 35.117 10.4897C35.117 10.962 34.7341 11.3449 34.2618 11.3449ZM40.1263 12.7063C39.8082 12.7063 39.5503 12.4485 39.5503 12.1304C39.5503 11.8123 39.8082 11.5544 40.1263 11.5544C40.4444 11.5544 40.7023 11.8123 40.7023 12.1304C40.7023 12.4485 40.4444 12.7063 40.1263 12.7063ZM32.2721 13.3696C31.7997 13.3696 31.4168 12.9867 31.4168 12.5144C31.4168 12.042 31.7997 11.6591 32.2721 11.6591C32.7444 11.6591 33.1273 12.042 33.1273 12.5144C33.1273 12.9867 32.7444 13.3696 32.2721 13.3696ZM36.1817 13.0554C35.8058 13.0554 35.501 12.7507 35.501 12.3747C35.501 11.9988 35.8058 11.694 36.1817 11.694C36.5577 11.694 36.8624 11.9988 36.8624 12.3747C36.8624 12.7507 36.5577 13.0554 36.1817 13.0554ZM30.2823 15.2546C29.81 15.2546 29.4271 14.8717 29.4271 14.3994C29.4271 13.927 29.81 13.5441 30.2823 13.5441C30.7547 13.5441 31.1376 13.927 31.1376 14.3994C31.1376 14.8717 30.7547 15.2546 30.2823 15.2546ZM38.0318 14.8008C37.7137 14.8008 37.4559 14.5429 37.4559 14.2248C37.4559 13.9067 37.7137 13.6488 38.0318 13.6488C38.3499 13.6488 38.6078 13.9067 38.6078 14.2248C38.6078 14.5429 38.3499 14.8008 38.0318 14.8008ZM34.192 15.0801C33.8161 15.0801 33.5113 14.7753 33.5113 14.3994C33.5113 14.0234 33.8161 13.7187 34.192 13.7187C34.5679 13.7187 34.8727 14.0234 34.8727 14.3994C34.8727 14.7753 34.5679 15.0801 34.192 15.0801ZM32.2023 16.9651C31.8263 16.9651 31.5216 16.6603 31.5216 16.2844C31.5216 15.9084 31.8263 15.6037 32.2023 15.6037C32.5782 15.6037 32.883 15.9084 32.883 16.2844C32.883 16.6603 32.5782 16.9651 32.2023 16.9651ZM36.0421 16.8254C35.724 16.8254 35.4661 16.5676 35.4661 16.2495C35.4661 15.9314 35.724 15.6735 36.0421 15.6735C36.3602 15.6735 36.6181 15.9314 36.6181 16.2495C36.6181 16.5676 36.3602 16.8254 36.0421 16.8254ZM34.0524 18.7104C33.7343 18.7104 33.4764 18.4526 33.4764 18.1345C33.4764 17.8164 33.7343 17.5585 34.0524 17.5585C34.3705 17.5585 34.6283 17.8164 34.6283 18.1345C34.6283 18.4526 34.3705 18.7104 34.0524 18.7104Z" fill="url(#paint4_linear_1_31)"/>
<g filter="url(#filter1_f_1_31)">
<path fill-rule="evenodd" clip-rule="evenodd" d="M28.8337 0.942383L30.2649 1.22164L34.2792 20.0717L26.3901 11.9383L28.8337 0.942383Z" fill="url(#paint5_linear_1_31)"/>
</g>
</g>
</g>
<defs>
<filter id="filter0_f_1_31" x="0.482544" y="0.796631" width="28.078" height="36.1416" filterUnits="userSpaceOnUse" color-interpolation-filters="sRGB">
<feFlood flood-opacity="0" result="BackgroundImageFix"/>
<feBlend mode="normal" in="SourceGraphic" in2="BackgroundImageFix" result="shape"/>
<feGaussianBlur stdDeviation="4" result="effect1_foregroundBlur_1_31"/>
</filter>
<filter id="filter1_f_1_31" x="18.3901" y="-7.05762" width="23.8891" height="35.1294" filterUnits="userSpaceOnUse" color-interpolation-filters="sRGB">
<feFlood flood-opacity="0" result="BackgroundImageFix"/>
<feBlend mode="normal" in="SourceGraphic" in2="BackgroundImageFix" result="shape"/>
<feGaussianBlur stdDeviation="4" result="effect1_foregroundBlur_1_31"/>
</filter>
<linearGradient id="paint0_linear_1_31" x1="15.6212" y1="5.50997" x2="15.6212" y2="23.2053" gradientUnits="userSpaceOnUse">
<stop stop-color="#B427C2"/>
<stop offset="1" stop-color="#AB25B8"/>
</linearGradient>
<linearGradient id="paint1_linear_1_31" x1="14.5216" y1="8.79663" x2="14.5216" y2="28.9383" gradientUnits="userSpaceOnUse">
<stop stop-color="#47004E" stop-opacity="0.146361"/>
<stop offset="1" stop-color="#47004E"/>
</linearGradient>
<linearGradient id="paint2_linear_1_31" x1="12.3029" y1="21.2495" x2="13.1556" y2="33.1305" gradientUnits="userSpaceOnUse">
<stop stop-color="#D72EE8"/>
<stop offset="1" stop-color="#811E8B"/>
</linearGradient>
<linearGradient id="paint3_linear_1_31" x1="25.3604" y1="1.88641" x2="25.3604" y2="34" gradientUnits="userSpaceOnUse">
<stop stop-color="#C8FF2C"/>
<stop offset="1" stop-color="#00B34B"/>
</linearGradient>
<linearGradient id="paint4_linear_1_31" x1="34.2885" y1="13.6558" x2="33.7397" y2="1.86376" gradientUnits="userSpaceOnUse">
<stop stop-color="#D72EE8"/>
<stop offset="1" stop-color="#811E8B"/>
</linearGradient>
<linearGradient id="paint5_linear_1_31" x1="31.0715" y1="17.6769" x2="26.5313" y2="11.8334" gradientUnits="userSpaceOnUse">
<stop stop-color="#47004E" stop-opacity="0.146361"/>
<stop offset="1" stop-color="#47004E"/>
</linearGradient>
<clipPath id="clip0_1_31">
<rect width="174.224" height="34" fill="white"/>
</clipPath>
</defs>
</svg>
