<svg width="43" height="36" viewBox="0 0 43 36" fill="none" xmlns="http://www.w3.org/2000/svg">
<mask id="mask0_1_257" style="mask-type:alpha" maskUnits="userSpaceOnUse" x="12" y="0" width="9" height="26">
<path d="M19.6745 22.8645C20.2753 22.8645 20.7624 23.3516 20.7624 23.9524V24.1368C20.7624 24.7376 20.2753 25.2247 19.6745 25.2247H19.4901C18.8893 25.2247 18.4022 24.7376 18.4022 24.1368V23.9524C18.4022 23.3516 18.8893 22.8645 19.4901 22.8645H19.6745ZM17.4987 21.205C18.0995 21.205 18.5866 21.692 18.5866 22.2929C18.5866 22.8937 18.0995 23.3808 17.4987 23.3808C16.8978 23.3808 16.4108 22.8937 16.4108 22.2929C16.4108 21.692 16.8978 21.205 17.4987 21.205ZM15.3229 19.3242C15.9237 19.3242 16.4108 19.8113 16.4108 20.4121C16.4108 21.0129 15.9237 21.5 15.3229 21.5C14.722 21.5 14.235 21.0129 14.235 20.4121C14.235 19.8113 14.722 19.3242 15.3229 19.3242ZM19.6745 19.0292C20.2753 19.0292 20.7624 19.5162 20.7624 20.1171C20.7624 20.7179 20.2753 21.205 19.6745 21.205C19.0737 21.205 18.5866 20.7179 18.5866 20.1171C18.5866 19.5162 19.0737 19.0292 19.6745 19.0292ZM13.147 17.6647C13.646 17.6647 14.0506 18.0692 14.0506 18.5682C14.0506 19.0672 13.646 19.4717 13.147 19.4717C12.648 19.4717 12.2435 19.0672 12.2435 18.5682C12.2435 18.0692 12.648 17.6647 13.147 17.6647ZM17.4987 17.1484C18.0995 17.1484 18.5866 17.6354 18.5866 18.2363C18.5866 18.8371 18.0995 19.3242 17.4987 19.3242C16.8978 19.3242 16.4108 18.8371 16.4108 18.2363C16.4108 17.6354 16.8978 17.1484 17.4987 17.1484ZM15.3229 15.4888C15.8219 15.4888 16.2264 15.8934 16.2264 16.3924C16.2264 16.8914 15.8219 17.2959 15.3229 17.2959C14.8239 17.2959 14.4193 16.8914 14.4193 16.3924C14.4193 15.8934 14.8239 15.4888 15.3229 15.4888ZM19.6745 14.9726C20.2753 14.9726 20.7624 15.4596 20.7624 16.0605C20.7624 16.6613 20.2753 17.1484 19.6745 17.1484C19.0737 17.1484 18.5866 16.6613 18.5866 16.0605C18.5866 15.4596 19.0737 14.9726 19.6745 14.9726ZM13.147 13.9031C13.5442 13.9031 13.8662 14.225 13.8662 14.6222C13.8662 15.0194 13.5442 15.3413 13.147 15.3413C12.7499 15.3413 12.4279 15.0194 12.4279 14.6222C12.4279 14.225 12.7499 13.9031 13.147 13.9031ZM17.4987 13.313C17.9977 13.313 18.4022 13.7175 18.4022 14.2165C18.4022 14.7155 17.9977 15.1201 17.4987 15.1201C16.9997 15.1201 16.5952 14.7155 16.5952 14.2165C16.5952 13.7175 16.9997 13.313 17.4987 13.313ZM15.3229 11.7273C15.72 11.7273 16.042 12.0492 16.042 12.4464C16.042 12.8436 15.72 13.1655 15.3229 13.1655C14.9257 13.1655 14.6037 12.8436 14.6037 12.4464C14.6037 12.0492 14.9257 11.7273 15.3229 11.7273ZM19.6745 11.1372C20.1735 11.1372 20.578 11.5417 20.578 12.0407C20.578 12.5397 20.1735 12.9442 19.6745 12.9442C19.1755 12.9442 18.771 12.5397 18.771 12.0407C18.771 11.5417 19.1755 11.1372 19.6745 11.1372ZM13.147 10.2153C13.4831 10.2153 13.7555 10.4877 13.7555 10.8238C13.7555 11.1598 13.4831 11.4322 13.147 11.4322C12.811 11.4322 12.5386 11.1598 12.5386 10.8238C12.5386 10.4877 12.811 10.2153 13.147 10.2153ZM17.4987 9.55145C17.8958 9.55145 18.2178 9.87342 18.2178 10.2706C18.2178 10.6677 17.8958 10.9897 17.4987 10.9897C17.1015 10.9897 16.7796 10.6677 16.7796 10.2706C16.7796 9.87342 17.1015 9.55145 17.4987 9.55145ZM15.3229 8.03945C15.6589 8.03945 15.9314 8.31188 15.9314 8.64794C15.9314 8.984 15.6589 9.25643 15.3229 9.25643C14.9868 9.25643 14.7144 8.984 14.7144 8.64794C14.7144 8.31188 14.9868 8.03945 15.3229 8.03945ZM19.6745 7.37564C20.0717 7.37564 20.3936 7.6976 20.3936 8.09477C20.3936 8.49193 20.0717 8.81389 19.6745 8.81389C19.2773 8.81389 18.9554 8.49193 18.9554 8.09477C18.9554 7.6976 19.2773 7.37564 19.6745 7.37564ZM13.147 6.52744C13.422 6.52744 13.6449 6.75034 13.6449 7.0253C13.6449 7.30026 13.422 7.52315 13.147 7.52315C12.8721 7.52315 12.6492 7.30026 12.6492 7.0253C12.6492 6.75034 12.8721 6.52744 13.147 6.52744ZM17.4987 5.86363C17.8347 5.86363 18.1072 6.13606 18.1072 6.47212C18.1072 6.80818 17.8347 7.08062 17.4987 7.08062C17.1626 7.08062 16.8902 6.80818 16.8902 6.47212C16.8902 6.13606 17.1626 5.86363 17.4987 5.86363ZM15.3229 4.35163C15.5978 4.35163 15.8207 4.57453 15.8207 4.84948C15.8207 5.12444 15.5978 5.34734 15.3229 5.34734C15.0479 5.34734 14.825 5.12444 14.825 4.84948C14.825 4.57453 15.0479 4.35163 15.3229 4.35163ZM19.6745 3.68782C20.0106 3.68782 20.283 3.96025 20.283 4.29631C20.283 4.63237 20.0106 4.9048 19.6745 4.9048C19.3384 4.9048 19.066 4.63237 19.066 4.29631C19.066 3.96025 19.3384 3.68782 19.6745 3.68782ZM17.4987 2.17581C17.7736 2.17581 17.9965 2.39871 17.9965 2.67367C17.9965 2.94863 17.7736 3.17153 17.4987 3.17153C17.2237 3.17153 17.0008 2.94863 17.0008 2.67367C17.0008 2.39871 17.2237 2.17581 17.4987 2.17581ZM19.6745 0C19.9495 0 20.1724 0.222898 20.1724 0.497856C20.1724 0.772814 19.9495 0.995711 19.6745 0.995711C19.3995 0.995711 19.1766 0.772814 19.1766 0.497856C19.1766 0.222898 19.3995 0 19.6745 0Z" fill="white"/>
</mask>
<g mask="url(#mask0_1_257)">
<path d="M19.6745 22.8645C20.2753 22.8645 20.7624 23.3516 20.7624 23.9524V24.1368C20.7624 24.7376 20.2753 25.2247 19.6745 25.2247H19.4901C18.8893 25.2247 18.4022 24.7376 18.4022 24.1368V23.9524C18.4022 23.3516 18.8893 22.8645 19.4901 22.8645H19.6745ZM17.4987 21.205C18.0995 21.205 18.5866 21.692 18.5866 22.2929C18.5866 22.8937 18.0995 23.3808 17.4987 23.3808C16.8978 23.3808 16.4108 22.8937 16.4108 22.2929C16.4108 21.692 16.8978 21.205 17.4987 21.205ZM15.3229 19.3242C15.9237 19.3242 16.4108 19.8113 16.4108 20.4121C16.4108 21.0129 15.9237 21.5 15.3229 21.5C14.722 21.5 14.235 21.0129 14.235 20.4121C14.235 19.8113 14.722 19.3242 15.3229 19.3242ZM19.6745 19.0292C20.2753 19.0292 20.7624 19.5162 20.7624 20.1171C20.7624 20.7179 20.2753 21.205 19.6745 21.205C19.0737 21.205 18.5866 20.7179 18.5866 20.1171C18.5866 19.5162 19.0737 19.0292 19.6745 19.0292ZM13.147 17.6647C13.646 17.6647 14.0506 18.0692 14.0506 18.5682C14.0506 19.0672 13.646 19.4717 13.147 19.4717C12.648 19.4717 12.2435 19.0672 12.2435 18.5682C12.2435 18.0692 12.648 17.6647 13.147 17.6647ZM17.4987 17.1484C18.0995 17.1484 18.5866 17.6354 18.5866 18.2363C18.5866 18.8371 18.0995 19.3242 17.4987 19.3242C16.8978 19.3242 16.4108 18.8371 16.4108 18.2363C16.4108 17.6354 16.8978 17.1484 17.4987 17.1484ZM15.3229 15.4888C15.8219 15.4888 16.2264 15.8934 16.2264 16.3924C16.2264 16.8914 15.8219 17.2959 15.3229 17.2959C14.8239 17.2959 14.4193 16.8914 14.4193 16.3924C14.4193 15.8934 14.8239 15.4888 15.3229 15.4888ZM19.6745 14.9726C20.2753 14.9726 20.7624 15.4596 20.7624 16.0605C20.7624 16.6613 20.2753 17.1484 19.6745 17.1484C19.0737 17.1484 18.5866 16.6613 18.5866 16.0605C18.5866 15.4596 19.0737 14.9726 19.6745 14.9726ZM13.147 13.9031C13.5442 13.9031 13.8662 14.225 13.8662 14.6222C13.8662 15.0194 13.5442 15.3413 13.147 15.3413C12.7499 15.3413 12.4279 15.0194 12.4279 14.6222C12.4279 14.225 12.7499 13.9031 13.147 13.9031ZM17.4987 13.313C17.9977 13.313 18.4022 13.7175 18.4022 14.2165C18.4022 14.7155 17.9977 15.1201 17.4987 15.1201C16.9997 15.1201 16.5952 14.7155 16.5952 14.2165C16.5952 13.7175 16.9997 13.313 17.4987 13.313ZM15.3229 11.7273C15.72 11.7273 16.042 12.0492 16.042 12.4464C16.042 12.8436 15.72 13.1655 15.3229 13.1655C14.9257 13.1655 14.6037 12.8436 14.6037 12.4464C14.6037 12.0492 14.9257 11.7273 15.3229 11.7273ZM19.6745 11.1372C20.1735 11.1372 20.578 11.5417 20.578 12.0407C20.578 12.5397 20.1735 12.9442 19.6745 12.9442C19.1755 12.9442 18.771 12.5397 18.771 12.0407C18.771 11.5417 19.1755 11.1372 19.6745 11.1372ZM13.147 10.2153C13.4831 10.2153 13.7555 10.4877 13.7555 10.8238C13.7555 11.1598 13.4831 11.4322 13.147 11.4322C12.811 11.4322 12.5386 11.1598 12.5386 10.8238C12.5386 10.4877 12.811 10.2153 13.147 10.2153ZM17.4987 9.55145C17.8958 9.55145 18.2178 9.87342 18.2178 10.2706C18.2178 10.6677 17.8958 10.9897 17.4987 10.9897C17.1015 10.9897 16.7796 10.6677 16.7796 10.2706C16.7796 9.87342 17.1015 9.55145 17.4987 9.55145ZM15.3229 8.03945C15.6589 8.03945 15.9314 8.31188 15.9314 8.64794C15.9314 8.984 15.6589 9.25643 15.3229 9.25643C14.9868 9.25643 14.7144 8.984 14.7144 8.64794C14.7144 8.31188 14.9868 8.03945 15.3229 8.03945ZM19.6745 7.37564C20.0717 7.37564 20.3936 7.6976 20.3936 8.09477C20.3936 8.49193 20.0717 8.81389 19.6745 8.81389C19.2773 8.81389 18.9554 8.49193 18.9554 8.09477C18.9554 7.6976 19.2773 7.37564 19.6745 7.37564ZM13.147 6.52744C13.422 6.52744 13.6449 6.75034 13.6449 7.0253C13.6449 7.30026 13.422 7.52315 13.147 7.52315C12.8721 7.52315 12.6492 7.30026 12.6492 7.0253C12.6492 6.75034 12.8721 6.52744 13.147 6.52744ZM17.4987 5.86363C17.8347 5.86363 18.1072 6.13606 18.1072 6.47212C18.1072 6.80818 17.8347 7.08062 17.4987 7.08062C17.1626 7.08062 16.8902 6.80818 16.8902 6.47212C16.8902 6.13606 17.1626 5.86363 17.4987 5.86363ZM15.3229 4.35163C15.5978 4.35163 15.8207 4.57453 15.8207 4.84948C15.8207 5.12444 15.5978 5.34734 15.3229 5.34734C15.0479 5.34734 14.825 5.12444 14.825 4.84948C14.825 4.57453 15.0479 4.35163 15.3229 4.35163ZM19.6745 3.68782C20.0106 3.68782 20.283 3.96025 20.283 4.29631C20.283 4.63237 20.0106 4.9048 19.6745 4.9048C19.3384 4.9048 19.066 4.63237 19.066 4.29631C19.066 3.96025 19.3384 3.68782 19.6745 3.68782ZM17.4987 2.17581C17.7736 2.17581 17.9965 2.39871 17.9965 2.67367C17.9965 2.94863 17.7736 3.17153 17.4987 3.17153C17.2237 3.17153 17.0008 2.94863 17.0008 2.67367C17.0008 2.39871 17.2237 2.17581 17.4987 2.17581ZM19.6745 0C19.9495 0 20.1724 0.222898 20.1724 0.497856C20.1724 0.772814 19.9495 0.995711 19.6745 0.995711C19.3995 0.995711 19.1766 0.772814 19.1766 0.497856C19.1766 0.222898 19.3995 0 19.6745 0Z" fill="url(#paint0_linear_1_257)"/>
<g filter="url(#filter0_f_1_257)">
<path fill-rule="evenodd" clip-rule="evenodd" d="M12.2435 9.29346L20.5779 26.8106L21.7212 30.5722H8.9613L12.2435 9.29346Z" fill="url(#paint1_linear_1_257)"/>
</g>
</g>
<path fill-rule="evenodd" clip-rule="evenodd" d="M12.9442 33.3378C13.6571 33.3378 14.235 33.9157 14.235 34.6286C14.235 35.3414 13.6571 35.9193 12.9442 35.9193C12.2314 35.9193 11.6535 35.3414 11.6535 34.6286C11.6535 33.9157 12.2314 33.3378 12.9442 33.3378ZM10.8422 31.6046C11.4939 31.6046 12.0223 32.1329 12.0223 32.7847C12.0223 33.4364 11.4939 33.9648 10.8422 33.9648C10.1904 33.9648 9.66209 33.4364 9.66209 32.7847C9.66209 32.1329 10.1904 31.6046 10.8422 31.6046ZM15.1201 31.162C15.8329 31.162 16.4108 31.7399 16.4108 32.4528C16.4108 33.1656 15.8329 33.7435 15.1201 33.7435C14.4072 33.7435 13.8293 33.1656 13.8293 32.4528C13.8293 31.7399 14.4072 31.162 15.1201 31.162ZM8.83233 29.9082C9.43316 29.9082 9.92024 30.3952 9.92024 30.9961C9.92024 31.5969 9.43316 32.084 8.83233 32.084C8.23149 32.084 7.74442 31.5969 7.74442 30.9961C7.74442 30.3952 8.23149 29.9082 8.83233 29.9082ZM13.0549 29.3919C13.7066 29.3919 14.235 29.9202 14.235 30.572C14.235 31.2237 13.7066 31.7521 13.0549 31.7521C12.4031 31.7521 11.8748 31.2237 11.8748 30.572C11.8748 29.9202 12.4031 29.3919 13.0549 29.3919ZM17.2959 28.9862C18.0087 28.9862 18.5866 29.5641 18.5866 30.2769C18.5866 30.9898 18.0087 31.5677 17.2959 31.5677C16.583 31.5677 16.0051 30.9898 16.0051 30.2769C16.0051 29.5641 16.583 28.9862 17.2959 28.9862ZM6.73027 27.9905C7.33111 27.9905 7.81818 28.4776 7.81818 29.0784C7.81818 29.6792 7.33111 30.1663 6.73027 30.1663C6.12944 30.1663 5.64236 29.6792 5.64236 29.0784C5.64236 28.4776 6.12944 27.9905 6.73027 27.9905ZM11.045 27.6955C11.6459 27.6955 12.1329 28.1825 12.1329 28.7834C12.1329 29.3842 11.6459 29.8713 11.045 29.8713C10.4442 29.8713 9.95711 29.3842 9.95711 28.7834C9.95711 28.1825 10.4442 27.6955 11.045 27.6955ZM15.2307 27.2161C15.8825 27.2161 16.4108 27.7444 16.4108 28.3962C16.4108 29.0479 15.8825 29.5763 15.2307 29.5763C14.5789 29.5763 14.0506 29.0479 14.0506 28.3962C14.0506 27.7444 14.5789 27.2161 15.2307 27.2161ZM19.4717 26.8104C20.1845 26.8104 20.7624 27.3883 20.7624 28.1011C20.7624 28.814 20.1845 29.3919 19.4717 29.3919C18.7588 29.3919 18.181 28.814 18.181 28.1011C18.181 27.3883 18.7588 26.8104 19.4717 26.8104ZM8.94296 25.7778C9.5438 25.7778 10.0309 26.2649 10.0309 26.8657C10.0309 27.4665 9.5438 27.9536 8.94296 27.9536C8.34213 27.9536 7.85506 27.4665 7.85506 26.8657C7.85506 26.2649 8.34213 25.7778 8.94296 25.7778ZM4.59134 26.1466C5.09033 26.1466 5.49485 26.5511 5.49485 27.0501C5.49485 27.5491 5.09033 27.9536 4.59134 27.9536C4.09234 27.9536 3.68782 27.5491 3.68782 27.0501C3.68782 26.5511 4.09234 26.1466 4.59134 26.1466ZM13.1471 25.5565C13.7479 25.5565 14.235 26.0436 14.235 26.6444C14.235 27.2453 13.7479 27.7324 13.1471 27.7324C12.5462 27.7324 12.0592 27.2453 12.0592 26.6444C12.0592 26.0436 12.5462 25.5565 13.1471 25.5565ZM17.4065 25.0402C18.0583 25.0402 18.5866 25.5686 18.5866 26.2203C18.5866 26.8721 18.0583 27.4004 17.4065 27.4004C16.7548 27.4004 16.2264 26.8721 16.2264 26.2203C16.2264 25.5686 16.7548 25.0402 17.4065 25.0402ZM11.045 23.6389C11.6459 23.6389 12.1329 24.1259 12.1329 24.7268C12.1329 25.3276 11.6459 25.8147 11.045 25.8147C10.4442 25.8147 9.95711 25.3276 9.95711 24.7268C9.95711 24.1259 10.4442 23.6389 11.045 23.6389ZM2.56304 24.3396C2.9602 24.3396 3.28216 24.6615 3.28216 25.0587C3.28216 25.4558 2.9602 25.7778 2.56304 25.7778C2.16587 25.7778 1.84391 25.4558 1.84391 25.0587C1.84391 24.6615 2.16587 24.3396 2.56304 24.3396ZM6.80403 23.9339C7.30303 23.9339 7.70754 24.3384 7.70754 24.8374C7.70754 25.3364 7.30303 25.7409 6.80403 25.7409C6.30503 25.7409 5.90051 25.3364 5.90051 24.8374C5.90051 24.3384 6.30503 23.9339 6.80403 23.9339ZM15.3229 23.3807C15.9237 23.3807 16.4108 23.8678 16.4108 24.4686C16.4108 25.0695 15.9237 25.5565 15.3229 25.5565C14.7221 25.5565 14.235 25.0695 14.235 24.4686C14.235 23.8678 14.7221 23.3807 15.3229 23.3807ZM0.60849 22.4956C0.94455 22.4956 1.21698 22.7681 1.21698 23.1041C1.21698 23.4402 0.94455 23.7126 0.60849 23.7126C0.27243 23.7126 0 23.4402 0 23.1041C0 22.7681 0.27243 22.4956 0.60849 22.4956ZM13.1471 21.4999C13.7479 21.4999 14.235 21.987 14.235 22.5878C14.235 23.1887 13.7479 23.6757 13.1471 23.6757C12.5462 23.6757 12.0592 23.1887 12.0592 22.5878C12.0592 21.987 12.5462 21.4999 13.1471 21.4999ZM8.90609 21.795C9.40508 21.795 9.8096 22.1995 9.8096 22.6985C9.8096 23.1975 9.40508 23.602 8.90609 23.602C8.40709 23.602 8.00257 23.1975 8.00257 22.6985C8.00257 22.1995 8.40709 21.795 8.90609 21.795ZM4.77573 22.1269C5.17289 22.1269 5.49485 22.4488 5.49485 22.846C5.49485 23.2431 5.17289 23.5651 4.77573 23.5651C4.37857 23.5651 4.0566 23.2431 4.0566 22.846C4.0566 22.4488 4.37857 22.1269 4.77573 22.1269ZM11.0081 19.8035C11.5071 19.8035 11.9117 20.2081 11.9117 20.707C11.9117 21.206 11.5071 21.6106 11.0081 21.6106C10.5091 21.6106 10.1046 21.206 10.1046 20.707C10.1046 20.2081 10.5091 19.8035 11.0081 19.8035ZM2.82118 20.2829C3.15724 20.2829 3.42967 20.5554 3.42967 20.8914C3.42967 21.2275 3.15724 21.4999 2.82118 21.4999C2.48512 21.4999 2.21269 21.2275 2.21269 20.8914C2.21269 20.5554 2.48512 20.2829 2.82118 20.2829ZM6.87778 19.9879C7.27495 19.9879 7.59691 20.3099 7.59691 20.707C7.59691 21.1042 7.27495 21.4262 6.87778 21.4262C6.48062 21.4262 6.15866 21.1042 6.15866 20.707C6.15866 20.3099 6.48062 19.9879 6.87778 19.9879ZM8.97984 17.9965C9.377 17.9965 9.69897 18.3185 9.69897 18.7156C9.69897 19.1128 9.377 19.4347 8.97984 19.4347C8.58268 19.4347 8.26072 19.1128 8.26072 18.7156C8.26072 18.3185 8.58268 17.9965 8.97984 17.9965ZM4.92324 18.144C5.2593 18.144 5.53173 18.4164 5.53173 18.7525C5.53173 19.0886 5.2593 19.361 4.92324 19.361C4.58718 19.361 4.31475 19.0886 4.31475 18.7525C4.31475 18.4164 4.58718 18.144 4.92324 18.144ZM7.0253 16.1526C7.36136 16.1526 7.63379 16.425 7.63379 16.7611C7.63379 17.0971 7.36136 17.3696 7.0253 17.3696C6.68924 17.3696 6.41681 17.0971 6.41681 16.7611C6.41681 16.425 6.68924 16.1526 7.0253 16.1526Z" fill="url(#paint2_linear_1_257)"/>
<path fill-rule="evenodd" clip-rule="evenodd" d="M30.0557 2.58153C29.3428 2.58153 28.765 2.00365 28.765 1.29079C28.765 0.577938 29.3428 5.34058e-05 30.0557 5.34058e-05C30.7686 5.34058e-05 31.3464 0.577938 31.3464 1.29079C31.3464 2.00365 30.7686 2.58153 30.0557 2.58153ZM27.8799 4.75734C27.167 4.75734 26.5891 4.17946 26.5891 3.46661C26.5891 2.75375 27.167 2.17587 27.8799 2.17587C28.5927 2.17587 29.1706 2.75375 29.1706 3.46661C29.1706 4.17946 28.5927 4.75734 27.8799 4.75734ZM29.9451 6.5275C29.2933 6.5275 28.765 5.99915 28.765 5.34739C28.765 4.69564 29.2933 4.16729 29.9451 4.16729C30.5968 4.16729 31.1252 4.69564 31.1252 5.34739C31.1252 5.99915 30.5968 6.5275 29.9451 6.5275ZM25.7041 6.93316C24.9912 6.93316 24.4133 6.35527 24.4133 5.64242C24.4133 4.92957 24.9912 4.35168 25.7041 4.35168C26.4169 4.35168 26.9948 4.92957 26.9948 5.64242C26.9948 6.35527 26.4169 6.93316 25.7041 6.93316ZM27.7692 8.70331C27.1175 8.70331 26.5891 8.17496 26.5891 7.52321C26.5891 6.87146 27.1175 6.34311 27.7692 6.34311C28.421 6.34311 28.9494 6.87146 28.9494 7.52321C28.9494 8.17496 28.421 8.70331 27.7692 8.70331ZM23.5283 9.10897C22.8154 9.10897 22.2375 8.53109 22.2375 7.81824C22.2375 7.10538 22.8154 6.5275 23.5283 6.5275C24.2411 6.5275 24.819 7.10538 24.819 7.81824C24.819 8.53109 24.2411 9.10897 23.5283 9.10897ZM29.8529 10.3628C29.252 10.3628 28.765 9.87576 28.765 9.27493C28.765 8.67409 29.252 8.18702 29.8529 8.18702C30.4537 8.18702 30.9408 8.67409 30.9408 9.27493C30.9408 9.87576 30.4537 10.3628 29.8529 10.3628ZM25.5934 10.8791C24.9417 10.8791 24.4133 10.3508 24.4133 9.69902C24.4133 9.04727 24.9417 8.51892 25.5934 8.51892C26.2452 8.51892 26.7735 9.04727 26.7735 9.69902C26.7735 10.3508 26.2452 10.8791 25.5934 10.8791ZM27.6771 12.5386C27.0762 12.5386 26.5891 12.0516 26.5891 11.4507C26.5891 10.8499 27.0762 10.3628 27.6771 10.3628C28.2779 10.3628 28.765 10.8499 28.765 11.4507C28.765 12.0516 28.2779 12.5386 27.6771 12.5386ZM23.3254 13.0549C22.7246 13.0549 22.2375 12.5679 22.2375 11.967V11.7826C22.2375 11.1818 22.7246 10.6947 23.3254 10.6947H23.5098C24.1106 10.6947 24.5977 11.1818 24.5977 11.7826V11.967C24.5977 12.5679 24.1106 13.0549 23.5098 13.0549H23.3254ZM29.8529 14.4194C29.252 14.4194 28.765 13.9324 28.765 13.3315C28.765 12.7307 29.252 12.2436 29.8529 12.2436C30.4537 12.2436 30.9408 12.7307 30.9408 13.3315C30.9408 13.9324 30.4537 14.4194 29.8529 14.4194ZM25.5012 14.7145C24.9004 14.7145 24.4133 14.2274 24.4133 13.6266C24.4133 13.0257 24.9004 12.5386 25.5012 12.5386C26.1021 12.5386 26.5891 13.0257 26.5891 13.6266C26.5891 14.2274 26.1021 14.7145 25.5012 14.7145ZM27.6771 16.5952C27.0762 16.5952 26.5891 16.1082 26.5891 15.5073C26.5891 14.9065 27.0762 14.4194 27.6771 14.4194C28.2779 14.4194 28.765 14.9065 28.765 15.5073C28.765 16.1082 28.2779 16.5952 27.6771 16.5952ZM23.3254 16.8903C22.7246 16.8903 22.2375 16.4032 22.2375 15.8024C22.2375 15.2015 22.7246 14.7145 23.3254 14.7145C23.9263 14.7145 24.4133 15.2015 24.4133 15.8024C24.4133 16.4032 23.9263 16.8903 23.3254 16.8903ZM29.8529 18.2548C29.3539 18.2548 28.9494 17.8503 28.9494 17.3513C28.9494 16.8523 29.3539 16.4477 29.8529 16.4477C30.3519 16.4477 30.7564 16.8523 30.7564 17.3513C30.7564 17.8503 30.3519 18.2548 29.8529 18.2548ZM25.5012 18.7711C24.9004 18.7711 24.4133 18.284 24.4133 17.6832C24.4133 17.0823 24.9004 16.5952 25.5012 16.5952C26.1021 16.5952 26.5891 17.0823 26.5891 17.6832C26.5891 18.284 26.1021 18.7711 25.5012 18.7711ZM27.6771 20.4306C27.1781 20.4306 26.7735 20.0261 26.7735 19.5271C26.7735 19.0281 27.1781 18.6236 27.6771 18.6236C28.1761 18.6236 28.5806 19.0281 28.5806 19.5271C28.5806 20.0261 28.1761 20.4306 27.6771 20.4306ZM23.3254 20.9469C22.7246 20.9469 22.2375 20.4598 22.2375 19.859C22.2375 19.2581 22.7246 18.7711 23.3254 18.7711C23.9263 18.7711 24.4133 19.2581 24.4133 19.859C24.4133 20.4598 23.9263 20.9469 23.3254 20.9469ZM29.8529 22.0163C29.4557 22.0163 29.1337 21.6944 29.1337 21.2972C29.1337 20.9001 29.4557 20.5781 29.8529 20.5781C30.25 20.5781 30.572 20.9001 30.572 21.2972C30.572 21.6944 30.25 22.0163 29.8529 22.0163ZM25.5012 22.6064C25.0022 22.6064 24.5977 22.2019 24.5977 21.7029C24.5977 21.2039 25.0022 20.7994 25.5012 20.7994C26.0002 20.7994 26.4048 21.2039 26.4048 21.7029C26.4048 22.2019 26.0002 22.6064 25.5012 22.6064ZM27.6771 24.1922C27.2799 24.1922 26.9579 23.8702 26.9579 23.473C26.9579 23.0759 27.2799 22.7539 27.6771 22.7539C28.0742 22.7539 28.3962 23.0759 28.3962 23.473C28.3962 23.8702 28.0742 24.1922 27.6771 24.1922ZM23.3254 24.7822C22.8264 24.7822 22.4219 24.3777 22.4219 23.8787C22.4219 23.3797 22.8264 22.9752 23.3254 22.9752C23.8244 22.9752 24.2289 23.3797 24.2289 23.8787C24.2289 24.3777 23.8244 24.7822 23.3254 24.7822ZM29.8529 25.7042C29.5168 25.7042 29.2444 25.4317 29.2444 25.0957C29.2444 24.7596 29.5168 24.4872 29.8529 24.4872C30.1889 24.4872 30.4614 24.7596 30.4614 25.0957C30.4614 25.4317 30.1889 25.7042 29.8529 25.7042ZM25.5012 26.368C25.1041 26.368 24.7821 26.046 24.7821 25.6489C24.7821 25.2517 25.1041 24.9297 25.5012 24.9297C25.8984 24.9297 26.2204 25.2517 26.2204 25.6489C26.2204 26.046 25.8984 26.368 25.5012 26.368ZM27.6771 27.88C27.341 27.88 27.0686 27.6076 27.0686 27.2715C27.0686 26.9354 27.341 26.663 27.6771 26.663C28.0131 26.663 28.2855 26.9354 28.2855 27.2715C28.2855 27.6076 28.0131 27.88 27.6771 27.88ZM23.3254 28.5438C22.9283 28.5438 22.6063 28.2218 22.6063 27.8247C22.6063 27.4275 22.9283 27.1055 23.3254 27.1055C23.7226 27.1055 24.0445 27.4275 24.0445 27.8247C24.0445 28.2218 23.7226 28.5438 23.3254 28.5438ZM29.8529 29.392C29.5779 29.392 29.355 29.1691 29.355 28.8941C29.355 28.6192 29.5779 28.3963 29.8529 28.3963C30.1278 28.3963 30.3507 28.6192 30.3507 28.8941C30.3507 29.1691 30.1278 29.392 29.8529 29.392ZM25.5012 30.0558C25.1652 30.0558 24.8927 29.7834 24.8927 29.4473C24.8927 29.1112 25.1652 28.8388 25.5012 28.8388C25.8373 28.8388 26.1097 29.1112 26.1097 29.4473C26.1097 29.7834 25.8373 30.0558 25.5012 30.0558ZM27.6771 31.5678C27.4021 31.5678 27.1792 31.3449 27.1792 31.0699C27.1792 30.795 27.4021 30.5721 27.6771 30.5721C27.952 30.5721 28.1749 30.795 28.1749 31.0699C28.1749 31.3449 27.952 31.5678 27.6771 31.5678ZM23.3254 32.2316C22.9894 32.2316 22.7169 31.9592 22.7169 31.6231C22.7169 31.2871 22.9894 31.0146 23.3254 31.0146C23.6615 31.0146 23.9339 31.2871 23.9339 31.6231C23.9339 31.9592 23.6615 32.2316 23.3254 32.2316ZM25.5012 33.7436C25.2263 33.7436 25.0034 33.5207 25.0034 33.2458C25.0034 32.9708 25.2263 32.7479 25.5012 32.7479C25.7762 32.7479 25.9991 32.9708 25.9991 33.2458C25.9991 33.5207 25.7762 33.7436 25.5012 33.7436ZM23.3254 35.9194C23.0505 35.9194 22.8276 35.6965 22.8276 35.4216C22.8276 35.1466 23.0505 34.9237 23.3254 34.9237C23.6004 34.9237 23.8233 35.1466 23.8233 35.4216C23.8233 35.6965 23.6004 35.9194 23.3254 35.9194Z" fill="url(#paint3_linear_1_257)"/>
<mask id="mask1_1_257" style="mask-type:alpha" maskUnits="userSpaceOnUse" x="30" y="1" width="13" height="19">
<path d="M32.1578 4.31487C31.506 4.31487 30.9777 3.78652 30.9777 3.13477C30.9777 2.48302 31.506 1.95467 32.1578 1.95467C32.8095 1.95467 33.3379 2.48302 33.3379 3.13477C33.3379 3.78652 32.8095 4.31487 32.1578 4.31487ZM34.1677 6.01127C33.5668 6.01127 33.0797 5.5242 33.0797 4.92336C33.0797 4.32253 33.5668 3.83546 34.1677 3.83546C34.7685 3.83546 35.2556 4.32253 35.2556 4.92336C35.2556 5.5242 34.7685 6.01127 34.1677 6.01127ZM36.2697 7.92894C35.6689 7.92894 35.1818 7.44187 35.1818 6.84103C35.1818 6.2402 35.6689 5.75312 36.2697 5.75312C36.8706 5.75312 37.3576 6.2402 37.3576 6.84103C37.3576 7.44187 36.8706 7.92894 36.2697 7.92894ZM31.955 8.22396C31.3541 8.22396 30.867 7.73689 30.867 7.13606C30.867 6.53522 31.3541 6.04815 31.955 6.04815C32.5558 6.04815 33.0429 6.53522 33.0429 7.13606C33.0429 7.73689 32.5558 8.22396 31.955 8.22396ZM34.057 10.1416C33.4562 10.1416 32.9691 9.65456 32.9691 9.05372C32.9691 8.45289 33.4562 7.96582 34.057 7.96582C34.6579 7.96582 35.1449 8.45289 35.1449 9.05372C35.1449 9.65456 34.6579 10.1416 34.057 10.1416ZM38.4087 9.77285C37.9097 9.77285 37.5051 9.36833 37.5051 8.86933C37.5051 8.37034 37.9097 7.96582 38.4087 7.96582C38.9077 7.96582 39.3122 8.37034 39.3122 8.86933C39.3122 9.36833 38.9077 9.77285 38.4087 9.77285ZM31.955 12.2806C31.3541 12.2806 30.867 11.7935 30.867 11.1927C30.867 10.5918 31.3541 10.1048 31.955 10.1048C32.5558 10.1048 33.0429 10.5918 33.0429 11.1927C33.0429 11.7935 32.5558 12.2806 31.955 12.2806ZM40.437 11.5799C40.0398 11.5799 39.7178 11.2579 39.7178 10.8608C39.7178 10.4636 40.0398 10.1416 40.437 10.1416C40.8341 10.1416 41.1561 10.4636 41.1561 10.8608C41.1561 11.2579 40.8341 11.5799 40.437 11.5799ZM36.196 11.9855C35.697 11.9855 35.2924 11.581 35.2924 11.082C35.2924 10.583 35.697 10.1785 36.196 10.1785C36.695 10.1785 37.0995 10.583 37.0995 11.082C37.0995 11.581 36.695 11.9855 36.196 11.9855ZM42.3915 13.4238C42.0554 13.4238 41.783 13.1514 41.783 12.8153C41.783 12.4792 42.0554 12.2068 42.3915 12.2068C42.7276 12.2068 43 12.4792 43 12.8153C43 13.1514 42.7276 13.4238 42.3915 13.4238ZM34.0939 14.1245C33.5949 14.1245 33.1904 13.72 33.1904 13.221C33.1904 12.722 33.5949 12.3174 34.0939 12.3174C34.5929 12.3174 34.9974 12.722 34.9974 13.221C34.9974 13.72 34.5929 14.1245 34.0939 14.1245ZM38.2243 13.7926C37.8271 13.7926 37.5051 13.4706 37.5051 13.0735C37.5051 12.6763 37.8271 12.3543 38.2243 12.3543C38.6214 12.3543 38.9434 12.6763 38.9434 13.0735C38.9434 13.4706 38.6214 13.7926 38.2243 13.7926ZM31.9918 16.1159C31.4928 16.1159 31.0883 15.7114 31.0883 15.2124C31.0883 14.7134 31.4928 14.3089 31.9918 14.3089C32.4908 14.3089 32.8954 14.7134 32.8954 15.2124C32.8954 15.7114 32.4908 16.1159 31.9918 16.1159ZM40.1788 15.6365C39.8428 15.6365 39.5703 15.3641 39.5703 15.028C39.5703 14.6919 39.8428 14.4195 40.1788 14.4195C40.5149 14.4195 40.7873 14.6919 40.7873 15.028C40.7873 15.3641 40.5149 15.6365 40.1788 15.6365ZM36.1222 15.9315C35.725 15.9315 35.4031 15.6095 35.4031 15.2124C35.4031 14.8152 35.725 14.4933 36.1222 14.4933C36.5194 14.4933 36.8413 14.8152 36.8413 15.2124C36.8413 15.6095 36.5194 15.9315 36.1222 15.9315ZM34.0201 17.9229C33.623 17.9229 33.301 17.601 33.301 17.2038C33.301 16.8066 33.623 16.4847 34.0201 16.4847C34.4173 16.4847 34.7393 16.8066 34.7393 17.2038C34.7393 17.601 34.4173 17.9229 34.0201 17.9229ZM38.0768 17.7754C37.7407 17.7754 37.4683 17.503 37.4683 17.1669C37.4683 16.8309 37.7407 16.5584 38.0768 16.5584C38.4128 16.5584 38.6852 16.8309 38.6852 17.1669C38.6852 17.503 38.4128 17.7754 38.0768 17.7754ZM35.9747 19.7668C35.6386 19.7668 35.3662 19.4944 35.3662 19.1584C35.3662 18.8223 35.6386 18.5499 35.9747 18.5499C36.3107 18.5499 36.5832 18.8223 36.5832 19.1584C36.5832 19.4944 36.3107 19.7668 35.9747 19.7668Z" fill="white"/>
</mask>
<g mask="url(#mask1_1_257)">
<path d="M32.1578 4.31487C31.506 4.31487 30.9777 3.78652 30.9777 3.13477C30.9777 2.48302 31.506 1.95467 32.1578 1.95467C32.8095 1.95467 33.3379 2.48302 33.3379 3.13477C33.3379 3.78652 32.8095 4.31487 32.1578 4.31487ZM34.1677 6.01127C33.5668 6.01127 33.0797 5.5242 33.0797 4.92336C33.0797 4.32253 33.5668 3.83546 34.1677 3.83546C34.7685 3.83546 35.2556 4.32253 35.2556 4.92336C35.2556 5.5242 34.7685 6.01127 34.1677 6.01127ZM36.2697 7.92894C35.6689 7.92894 35.1818 7.44187 35.1818 6.84103C35.1818 6.2402 35.6689 5.75312 36.2697 5.75312C36.8706 5.75312 37.3576 6.2402 37.3576 6.84103C37.3576 7.44187 36.8706 7.92894 36.2697 7.92894ZM31.955 8.22396C31.3541 8.22396 30.867 7.73689 30.867 7.13606C30.867 6.53522 31.3541 6.04815 31.955 6.04815C32.5558 6.04815 33.0429 6.53522 33.0429 7.13606C33.0429 7.73689 32.5558 8.22396 31.955 8.22396ZM34.057 10.1416C33.4562 10.1416 32.9691 9.65456 32.9691 9.05372C32.9691 8.45289 33.4562 7.96582 34.057 7.96582C34.6579 7.96582 35.1449 8.45289 35.1449 9.05372C35.1449 9.65456 34.6579 10.1416 34.057 10.1416ZM38.4087 9.77285C37.9097 9.77285 37.5051 9.36833 37.5051 8.86933C37.5051 8.37034 37.9097 7.96582 38.4087 7.96582C38.9077 7.96582 39.3122 8.37034 39.3122 8.86933C39.3122 9.36833 38.9077 9.77285 38.4087 9.77285ZM31.955 12.2806C31.3541 12.2806 30.867 11.7935 30.867 11.1927C30.867 10.5918 31.3541 10.1048 31.955 10.1048C32.5558 10.1048 33.0429 10.5918 33.0429 11.1927C33.0429 11.7935 32.5558 12.2806 31.955 12.2806ZM40.437 11.5799C40.0398 11.5799 39.7178 11.2579 39.7178 10.8608C39.7178 10.4636 40.0398 10.1416 40.437 10.1416C40.8341 10.1416 41.1561 10.4636 41.1561 10.8608C41.1561 11.2579 40.8341 11.5799 40.437 11.5799ZM36.196 11.9855C35.697 11.9855 35.2924 11.581 35.2924 11.082C35.2924 10.583 35.697 10.1785 36.196 10.1785C36.695 10.1785 37.0995 10.583 37.0995 11.082C37.0995 11.581 36.695 11.9855 36.196 11.9855ZM42.3915 13.4238C42.0554 13.4238 41.783 13.1514 41.783 12.8153C41.783 12.4792 42.0554 12.2068 42.3915 12.2068C42.7276 12.2068 43 12.4792 43 12.8153C43 13.1514 42.7276 13.4238 42.3915 13.4238ZM34.0939 14.1245C33.5949 14.1245 33.1904 13.72 33.1904 13.221C33.1904 12.722 33.5949 12.3174 34.0939 12.3174C34.5929 12.3174 34.9974 12.722 34.9974 13.221C34.9974 13.72 34.5929 14.1245 34.0939 14.1245ZM38.2243 13.7926C37.8271 13.7926 37.5051 13.4706 37.5051 13.0735C37.5051 12.6763 37.8271 12.3543 38.2243 12.3543C38.6214 12.3543 38.9434 12.6763 38.9434 13.0735C38.9434 13.4706 38.6214 13.7926 38.2243 13.7926ZM31.9918 16.1159C31.4928 16.1159 31.0883 15.7114 31.0883 15.2124C31.0883 14.7134 31.4928 14.3089 31.9918 14.3089C32.4908 14.3089 32.8954 14.7134 32.8954 15.2124C32.8954 15.7114 32.4908 16.1159 31.9918 16.1159ZM40.1788 15.6365C39.8428 15.6365 39.5703 15.3641 39.5703 15.028C39.5703 14.6919 39.8428 14.4195 40.1788 14.4195C40.5149 14.4195 40.7873 14.6919 40.7873 15.028C40.7873 15.3641 40.5149 15.6365 40.1788 15.6365ZM36.1222 15.9315C35.725 15.9315 35.4031 15.6095 35.4031 15.2124C35.4031 14.8152 35.725 14.4933 36.1222 14.4933C36.5194 14.4933 36.8413 14.8152 36.8413 15.2124C36.8413 15.6095 36.5194 15.9315 36.1222 15.9315ZM34.0201 17.9229C33.623 17.9229 33.301 17.601 33.301 17.2038C33.301 16.8066 33.623 16.4847 34.0201 16.4847C34.4173 16.4847 34.7393 16.8066 34.7393 17.2038C34.7393 17.601 34.4173 17.9229 34.0201 17.9229ZM38.0768 17.7754C37.7407 17.7754 37.4683 17.503 37.4683 17.1669C37.4683 16.8309 37.7407 16.5584 38.0768 16.5584C38.4128 16.5584 38.6852 16.8309 38.6852 17.1669C38.6852 17.503 38.4128 17.7754 38.0768 17.7754ZM35.9747 19.7668C35.6386 19.7668 35.3662 19.4944 35.3662 19.1584C35.3662 18.8223 35.6386 18.5499 35.9747 18.5499C36.3107 18.5499 36.5832 18.8223 36.5832 19.1584C36.5832 19.4944 36.3107 19.7668 35.9747 19.7668Z" fill="url(#paint4_linear_1_257)"/>
<g filter="url(#filter1_f_1_257)">
<path fill-rule="evenodd" clip-rule="evenodd" d="M30.4615 0.99585L31.9735 1.29088L36.2145 21.2051L27.88 12.6125L30.4615 0.99585Z" fill="url(#paint5_linear_1_257)"/>
</g>
</g>
<defs>
<filter id="filter0_f_1_257" x="0.961304" y="1.29346" width="28.7599" height="37.2788" filterUnits="userSpaceOnUse" color-interpolation-filters="sRGB">
<feFlood flood-opacity="0" result="BackgroundImageFix"/>
<feBlend mode="normal" in="SourceGraphic" in2="BackgroundImageFix" result="shape"/>
<feGaussianBlur stdDeviation="4" result="effect1_foregroundBlur_1_257"/>
</filter>
<filter id="filter1_f_1_257" x="19.88" y="-7.00415" width="24.3345" height="36.2092" filterUnits="userSpaceOnUse" color-interpolation-filters="sRGB">
<feFlood flood-opacity="0" result="BackgroundImageFix"/>
<feBlend mode="normal" in="SourceGraphic" in2="BackgroundImageFix" result="shape"/>
<feGaussianBlur stdDeviation="4" result="effect1_foregroundBlur_1_257"/>
</filter>
<linearGradient id="paint0_linear_1_257" x1="16.503" y1="5.82102" x2="16.503" y2="24.5152" gradientUnits="userSpaceOnUse">
<stop stop-color="#B427C2"/>
<stop offset="1" stop-color="#AB25B8"/>
</linearGradient>
<linearGradient id="paint1_linear_1_257" x1="15.3412" y1="9.29346" x2="15.3412" y2="30.5722" gradientUnits="userSpaceOnUse">
<stop stop-color="#47004E" stop-opacity="0.146361"/>
<stop offset="1" stop-color="#47004E"/>
</linearGradient>
<linearGradient id="paint2_linear_1_257" x1="12.9975" y1="22.449" x2="13.8983" y2="35.0007" gradientUnits="userSpaceOnUse">
<stop stop-color="#D72EE8"/>
<stop offset="1" stop-color="#811E8B"/>
</linearGradient>
<linearGradient id="paint3_linear_1_257" x1="26.792" y1="1.99296" x2="26.792" y2="35.9194" gradientUnits="userSpaceOnUse">
<stop stop-color="#C8FF2C"/>
<stop offset="1" stop-color="#00B34B"/>
</linearGradient>
<linearGradient id="paint4_linear_1_257" x1="36.2242" y1="14.4268" x2="35.6444" y2="1.96912" gradientUnits="userSpaceOnUse">
<stop stop-color="#D72EE8"/>
<stop offset="1" stop-color="#811E8B"/>
</linearGradient>
<linearGradient id="paint5_linear_1_257" x1="32.8257" y1="18.675" x2="28.0291" y2="12.5017" gradientUnits="userSpaceOnUse">
<stop stop-color="#47004E" stop-opacity="0.146361"/>
<stop offset="1" stop-color="#47004E"/>
</linearGradient>
</defs>
</svg>
